<svg width="1920" height="91" viewBox="0 0 1920 91" fill="none" xmlns="http://www.w3.org/2000/svg">
<path d="M879.067 64H873.243L886.329 27.6364H892.668L905.754 64H899.93L889.649 34.2415H889.365L879.067 64ZM880.043 49.7599H898.935V54.3764H880.043V49.7599ZM911.005 64V27.6364H924.322C926.902 27.6364 929.039 28.0625 930.731 28.9148C932.424 29.7552 933.691 30.8975 934.531 32.3416C935.372 33.7739 935.792 35.3897 935.792 37.1889C935.792 38.7041 935.514 39.9825 934.957 41.0241C934.401 42.054 933.655 42.8826 932.72 43.5099C931.797 44.1255 930.779 44.5753 929.666 44.8594V45.2145C930.873 45.2737 932.051 45.6643 933.199 46.3864C934.359 47.0966 935.318 48.1087 936.076 49.4226C936.833 50.7365 937.212 52.3345 937.212 54.2166C937.212 56.075 936.774 57.7441 935.898 59.2237C935.034 60.6915 933.697 61.8575 931.885 62.7216C930.074 63.5739 927.76 64 924.943 64H911.005ZM916.491 59.2947H924.41C927.038 59.2947 928.92 58.7857 930.057 57.7678C931.193 56.7498 931.761 55.4773 931.761 53.9503C931.761 52.8021 931.471 51.7486 930.891 50.7898C930.311 49.831 929.483 49.0675 928.405 48.4993C927.34 47.9311 926.073 47.647 924.606 47.647H916.491V59.2947ZM916.491 43.3679H923.842C925.073 43.3679 926.18 43.1312 927.162 42.6577C928.157 42.1842 928.944 41.5213 929.524 40.669C930.116 39.8049 930.412 38.7869 930.412 37.6151C930.412 36.1117 929.885 34.8511 928.831 33.8331C927.778 32.8151 926.162 32.3061 923.984 32.3061H916.491V43.3679ZM975.307 45.8182C975.307 49.7008 974.597 53.0388 973.176 55.8324C971.756 58.6141 969.809 60.7566 967.335 62.2599C964.873 63.7514 962.073 64.4972 958.936 64.4972C955.788 64.4972 952.976 63.7514 950.502 62.2599C948.04 60.7566 946.099 58.6082 944.678 55.8146C943.258 53.0211 942.548 49.6889 942.548 45.8182C942.548 41.9356 943.258 38.6035 944.678 35.8217C946.099 33.0282 948.04 30.8857 950.502 29.3942C952.976 27.8909 955.788 27.1392 958.936 27.1392C962.073 27.1392 964.873 27.8909 967.335 29.3942C969.809 30.8857 971.756 33.0282 973.176 35.8217C974.597 38.6035 975.307 41.9356 975.307 45.8182ZM969.874 45.8182C969.874 42.8589 969.394 40.3672 968.436 38.343C967.489 36.3071 966.186 34.7682 964.529 33.7266C962.884 32.6731 961.02 32.1463 958.936 32.1463C956.841 32.1463 954.971 32.6731 953.325 33.7266C951.68 34.7682 950.378 36.3071 949.419 38.343C948.472 40.3672 947.999 42.8589 947.999 45.8182C947.999 48.7775 948.472 51.2751 949.419 53.3111C950.378 55.3352 951.68 56.8741 953.325 57.9276C954.971 58.9692 956.841 59.4901 958.936 59.4901C961.02 59.4901 962.884 58.9692 964.529 57.9276C966.186 56.8741 967.489 55.3352 968.436 53.3111C969.394 51.2751 969.874 48.7775 969.874 45.8182ZM1005.53 27.6364H1011.04V51.5533C1011.04 54.0982 1010.44 56.3532 1009.24 58.3182C1008.05 60.2713 1006.37 61.8101 1004.2 62.9347C1002.03 64.0473 999.495 64.6037 996.583 64.6037C993.683 64.6037 991.15 64.0473 988.983 62.9347C986.817 61.8101 985.136 60.2713 983.941 58.3182C982.745 56.3532 982.147 54.0982 982.147 51.5533V27.6364H987.634V51.1094C987.634 52.7547 987.995 54.2166 988.717 55.495C989.451 56.7734 990.487 57.7796 991.824 58.5135C993.162 59.2356 994.748 59.5966 996.583 59.5966C998.429 59.5966 1000.02 59.2356 1001.36 58.5135C1002.71 57.7796 1003.74 56.7734 1004.45 55.495C1005.17 54.2166 1005.53 52.7547 1005.53 51.1094V27.6364ZM1017.22 32.3594V27.6364H1045.36V32.3594H1034.02V64H1028.55V32.3594H1017.22Z" fill="white"/>
<g filter="url(#filter0_f_1705_59)">
<path d="M0 40.4247L824 17V74L0 50.5753V40.4247Z" fill="#F325F9"/>
</g>
<g filter="url(#filter1_f_1705_59)">
<path d="M1920 40.4247L1096 17V74L1920 50.5753V40.4247Z" fill="#F325F9"/>
</g>
<defs>
<filter id="filter0_f_1705_59" x="-17" y="0" width="858" height="91" filterUnits="userSpaceOnUse" color-interpolation-filters="sRGB">
<feFlood flood-opacity="0" result="BackgroundImageFix"/>
<feBlend mode="normal" in="SourceGraphic" in2="BackgroundImageFix" result="shape"/>
<feGaussianBlur stdDeviation="8.5" result="effect1_foregroundBlur_1705_59"/>
</filter>
<filter id="filter1_f_1705_59" x="1079" y="0" width="858" height="91" filterUnits="userSpaceOnUse" color-interpolation-filters="sRGB">
<feFlood flood-opacity="0" result="BackgroundImageFix"/>
<feBlend mode="normal" in="SourceGraphic" in2="BackgroundImageFix" result="shape"/>
<feGaussianBlur stdDeviation="8.5" result="effect1_foregroundBlur_1705_59"/>
</filter>
</defs>
</svg>
