<svg width="14" height="26" viewBox="0 0 14 26" fill="none" xmlns="http://www.w3.org/2000/svg">
<path d="M2.79746 25.2502C3.0589 25.2511 3.31722 25.1934 3.55343 25.0814C3.78964 24.9693 3.99775 24.8058 4.16246 24.6027L12.615 14.1027C12.8724 13.7896 13.0131 13.3968 13.0131 12.9915C13.0131 12.5861 12.8724 12.1934 12.615 11.8802L3.86496 1.38024C3.56791 1.02286 3.14107 0.798117 2.67832 0.755452C2.21558 0.712787 1.75484 0.855696 1.39746 1.15274C1.04008 1.44978 0.815336 1.87663 0.772672 2.33937C0.730007 2.80212 0.872915 3.26286 1.16996 3.62024L8.99246 13.0002L1.43246 22.3802C1.21846 22.6371 1.08253 22.9499 1.04074 23.2816C0.99895 23.6133 1.05305 23.9501 1.19665 24.252C1.34025 24.5539 1.56733 24.8084 1.85102 24.9853C2.13472 25.1622 2.46315 25.2541 2.79746 25.2502Z" fill="#3D3D3D"/>
</svg>
