<svg width="542" height="539" viewBox="0 0 542 539" fill="none" xmlns="http://www.w3.org/2000/svg">
<g opacity="0.26">
<mask id="path-1-outside-1_51_3747" maskUnits="userSpaceOnUse" x="0" y="0" width="542" height="539" fill="black">
<rect fill="white" width="542" height="539"/>
<path fill-rule="evenodd" clip-rule="evenodd" d="M3 536V152.932L152.088 3H539V391.141L394.956 536H3Z"/>
</mask>
<path fill-rule="evenodd" clip-rule="evenodd" d="M3 536V152.932L152.088 3H539V391.141L394.956 536H3Z" fill="#696969"/>
<path d="M3 152.932L0.872701 150.816L0 151.694V152.932H3ZM3 536H0V539H3V536ZM152.088 3V0H150.84L149.96 0.884675L152.088 3ZM539 3H542V0H539V3ZM539 391.141L541.127 393.256L542 392.378V391.141H539ZM394.956 536V539H396.204L397.083 538.115L394.956 536ZM0 152.932V536H6V152.932H0ZM149.96 0.884675L0.872701 150.816L5.1273 155.047L154.215 5.11533L149.96 0.884675ZM539 0H152.088V6H539V0ZM542 391.141V3H536V391.141H542ZM397.083 538.115L541.127 393.256L536.873 389.025L392.829 533.885L397.083 538.115ZM3 539H394.956V533H3V539Z" fill="url(#paint0_linear_51_3747)" mask="url(#path-1-outside-1_51_3747)"/>
<path d="M3 152.932L0.872701 150.816L0 151.694V152.932H3ZM3 536H0V539H3V536ZM152.088 3V0H150.84L149.96 0.884675L152.088 3ZM539 3H542V0H539V3ZM539 391.141L541.127 393.256L542 392.378V391.141H539ZM394.956 536V539H396.204L397.083 538.115L394.956 536ZM0 152.932V536H6V152.932H0ZM149.96 0.884675L0.872701 150.816L5.1273 155.047L154.215 5.11533L149.96 0.884675ZM539 0H152.088V6H539V0ZM542 391.141V3H536V391.141H542ZM397.083 538.115L541.127 393.256L536.873 389.025L392.829 533.885L397.083 538.115ZM3 539H394.956V533H3V539Z" fill="url(#paint1_linear_51_3747)" mask="url(#path-1-outside-1_51_3747)"/>
</g>
<defs>
<linearGradient id="paint0_linear_51_3747" x1="526" y1="24.6217" x2="336.566" y2="295.651" gradientUnits="userSpaceOnUse">
<stop stop-color="white"/>
<stop offset="1" stop-color="white" stop-opacity="0"/>
</linearGradient>
<linearGradient id="paint1_linear_51_3747" x1="52" y1="516.892" x2="275.081" y2="323.545" gradientUnits="userSpaceOnUse">
<stop stop-color="white"/>
<stop offset="1" stop-color="white" stop-opacity="0"/>
</linearGradient>
</defs>
</svg>
