<svg width="229" height="31" viewBox="0 0 229 31" fill="none" xmlns="http://www.w3.org/2000/svg">
<g clip-path="url(#clip0_111_737)">
<path d="M32.9053 31H54.8745V25.2127H39.5446V18.1145H52.2547V12.3223H39.5446V5.78731H54.9668V0H32.9053V31Z" fill="white"/>
<path d="M81.3251 19.5128L66.9333 0H57.0228L60.1092 3.92294V31.0971H66.7437V10.7395L81.607 31H87.9644V0H81.3251V19.5128Z" fill="white"/>
<path d="M22.9024 15.0509C25.8187 14.4926 28.2489 11.7834 28.2489 7.95756C28.2295 3.82584 25.2403 0 19.2571 0H0L2.98918 3.82584V31.0146H19.9278C25.9159 31.0146 28.9974 27.281 28.9974 22.6103C28.8856 18.7699 26.2464 15.5024 22.9024 15.0509ZM9.62855 5.82616H17.9496C20.1952 5.82616 21.595 7.13704 21.595 9.09366C21.595 11.0503 20.1952 12.3612 17.9496 12.3612H9.62855V5.82616ZM18.2267 25.2467H9.62855V18.1145H18.2267C20.7541 18.1145 22.1539 19.7021 22.1539 21.6636C22.1539 23.9018 20.6569 25.2127 18.2267 25.2127V25.2467Z" fill="white"/>
<path d="M185.091 19.5128H188.551V23.159C186.761 24.6393 184.518 25.4618 182.194 25.4894C176.677 25.4894 172.755 21.2897 172.755 15.5947C172.755 9.89961 176.677 5.69507 182.194 5.69507C183.612 5.70679 185.004 6.0717 186.245 6.75671C187.486 7.44173 188.536 8.4252 189.3 9.61801L194.535 6.70493C192.294 3.17525 188.362 0 182.102 0C173.314 0 166.023 6.06891 166.023 15.5024C166.023 24.9359 173.222 31 182.102 31C184.5 31.0398 186.878 30.5594 189.072 29.5921C191.267 28.6249 193.225 27.1936 194.812 25.3972V13.9148H180.605L185.091 19.5128Z" fill="white"/>
<path d="M155.18 19.5128L140.783 0H130.872L133.959 3.92294V31.0971H140.598V10.7395L155.461 31H161.814V0H155.18V19.5128Z" fill="white"/>
<path d="M216.776 0H203.974L207.055 3.92294L206.496 5.41347L196.586 31.0971H204.066L206.01 25.8633H219.401L221.345 31.0971H228.82L216.776 0ZM207.716 19.9837L212.577 6.62725L217.437 19.9837H207.716Z" fill="white"/>
<path d="M127.042 0H120.403V31.0971H127.042V0Z" fill="white"/>
<path d="M115.076 5.32122V0H91.702V5.78731H106.381L91.702 25.6788V31H115.358V25.2127H100.305L115.076 5.32122Z" fill="white"/>
</g>
<defs>
<clipPath id="clip0_111_737">
<rect width="229" height="31" fill="white"/>
</clipPath>
</defs>
</svg>
