<svg width="230" height="31" viewBox="0 0 230 31" fill="none" xmlns="http://www.w3.org/2000/svg">
<g clip-path="url(#clip0_1721_1903)">
<path d="M33.4697 31H55.439V25.2127H40.1091V18.1145H52.8192V12.3223H40.1091V5.78731H55.5313V0H33.4697V31Z" fill="#3D3D3D"/>
<path d="M81.8892 19.5128L67.4974 0H57.5869L60.6733 3.92294V31.0971H67.3078V10.7395L82.1711 31H88.5285V0H81.8892V19.5128Z" fill="#3D3D3D"/>
<path d="M23.4669 15.0509C26.3832 14.4926 28.8134 11.7834 28.8134 7.95756C28.7939 3.82584 25.8048 0 19.8215 0H0.564453L3.55363 3.82584V31.0146H20.4923C26.4804 31.0146 29.5619 27.281 29.5619 22.6103C29.4501 18.7699 26.8109 15.5024 23.4669 15.0509ZM10.193 5.82616H18.5141C20.7596 5.82616 22.1594 7.13704 22.1594 9.09366C22.1594 11.0503 20.7596 12.3612 18.5141 12.3612H10.193V5.82616ZM18.7911 25.2467H10.193V18.1145H18.7911C21.3186 18.1145 22.7184 19.7021 22.7184 21.6636C22.7184 23.9018 21.2214 25.2127 18.7911 25.2127V25.2467Z" fill="#3D3D3D"/>
<path d="M185.655 19.5128H189.116V23.159C187.326 24.6393 185.082 25.4618 182.759 25.4894C177.242 25.4894 173.32 21.2897 173.32 15.5947C173.32 9.89961 177.242 5.69507 182.759 5.69507C184.176 5.70679 185.569 6.0717 186.809 6.75671C188.05 7.44173 189.1 8.4252 189.865 9.61801L195.099 6.70493C192.859 3.17525 188.927 0 182.666 0C173.879 0 166.588 6.06891 166.588 15.5024C166.588 24.9359 173.786 31 182.666 31C185.064 31.0398 187.443 30.5594 189.637 29.5921C191.831 28.6249 193.789 27.1936 195.376 25.3972V13.9148H181.169L185.655 19.5128Z" fill="#3D3D3D"/>
<path d="M155.744 19.5128L141.347 0H131.437L134.523 3.92294V31.0971H141.162V10.7395L156.026 31H162.378V0H155.744V19.5128Z" fill="#3D3D3D"/>
<path d="M217.341 0H204.538L207.62 3.92294L207.061 5.41347L197.15 31.0971H204.631L206.575 25.8633H219.965L221.91 31.0971H229.385L217.341 0ZM208.281 19.9837L213.141 6.62725L218.002 19.9837H208.281Z" fill="#3D3D3D"/>
<path d="M127.607 0H120.968V31.0971H127.607V0Z" fill="#3D3D3D"/>
<path d="M115.64 5.32122V0H92.2666V5.78731H106.945L92.2666 25.6788V31H115.922V25.2127H100.87L115.64 5.32122Z" fill="#3D3D3D"/>
</g>
<defs>
<clipPath id="clip0_1721_1903">
<rect width="229" height="31" fill="white" transform="translate(0.564453)"/>
</clipPath>
</defs>
</svg>
