<svg width="167" height="32" viewBox="0 0 167 32" fill="none" xmlns="http://www.w3.org/2000/svg">
<path d="M0 0.317383H12.2432C14.5752 0.317383 16.3243 0.902208 17.6199 1.87692C19.045 3.04657 19.8223 4.73606 19.8223 6.81544C19.8223 9.21972 18.8507 10.7143 16.9073 11.624V11.754C19.4985 12.5987 20.9884 14.938 20.9884 17.7322C20.9884 20.3964 19.9519 22.4757 18.2676 23.7754C16.8425 24.815 15.0287 25.2699 12.5671 25.2699H0V0.317383ZM11.0124 10.0645C12.308 10.0645 13.2797 9.34968 13.2797 7.85513C13.2797 6.42555 12.308 5.71077 10.9476 5.71077H6.73701V9.99948H11.0124V10.0645ZM11.5954 19.7466C13.0853 19.7466 14.1866 18.8368 14.1866 17.2123C14.1866 15.4578 13.0206 14.6781 11.5954 14.6781H6.80178V19.8115H11.5954V19.7466Z" fill="white"/>
<path d="M22.0896 0.317383H28.5027V25.3349H22.0896V0.317383Z" fill="white"/>
<path d="M29.7983 16.4324C29.7983 10.7791 33.4259 7.01025 39.0617 7.01025C44.6974 7.01025 48.2603 10.8441 48.2603 16.4324C48.2603 22.0857 44.6974 25.8546 39.0617 25.8546C33.4259 25.8546 29.7983 22.0857 29.7983 16.4324ZM41.8472 16.4324C41.8472 13.3134 40.8755 11.364 38.9321 11.364C36.9887 11.364 36.0818 13.3134 36.0818 16.4324C36.0818 19.5515 36.9887 21.5659 38.9321 21.5659C40.8755 21.5009 41.8472 19.5515 41.8472 16.4324Z" fill="white"/>
<path d="M48.9729 16.4324C48.9729 10.7791 52.6005 7.01025 58.2362 7.01025C63.872 7.01025 67.3701 10.7791 67.3701 16.4324C67.3701 22.0857 63.8072 25.8546 58.1715 25.8546C52.6005 25.8546 48.9729 22.0857 48.9729 16.4324ZM61.0217 16.4324C61.0217 13.3134 60.05 11.364 58.1067 11.364C56.1633 11.364 55.2564 13.3134 55.2564 16.4324C55.2564 19.5515 56.1633 21.5659 58.1067 21.5659C60.05 21.5009 61.0217 19.5515 61.0217 16.4324Z" fill="white"/>
<path d="M68.6656 7.46516H74.6253V10.1294H74.7549C75.9209 8.04998 77.5403 6.94531 80.1315 6.94531C82.3988 6.94531 84.083 8.04998 84.9251 9.9994H85.0547C86.4798 7.6601 88.3584 6.94531 90.5609 6.94531C94.7068 6.94531 96.4558 9.9994 96.4558 14.0932V25.2698H90.237V15.1978C90.237 13.3784 89.654 12.2087 88.0993 12.2087C86.5446 12.2087 85.7673 13.6383 85.7673 15.5877V25.2698H79.5485V15.1978C79.5485 13.3784 78.9655 12.2087 77.4108 12.2087C75.8561 12.2087 75.0787 13.6383 75.0787 15.5877V25.2698H68.6656V7.46516Z" fill="white"/>
<path d="M104.294 22.9306H104.229V25.2699H98.2696V0.317383H104.488V9.2847H104.618C105.784 7.72516 107.403 6.88042 109.671 6.88042C114.14 6.88042 116.732 10.9092 116.732 16.3026C116.732 22.3458 113.946 25.8547 109.282 25.8547C107.339 25.8547 105.33 24.945 104.294 22.9306ZM110.318 16.2376C110.318 13.3785 109.282 11.494 107.403 11.494C105.46 11.494 104.294 13.3785 104.294 16.2376C104.294 19.0968 105.525 20.9812 107.403 20.9812C109.282 20.9812 110.318 19.1617 110.318 16.2376Z" fill="white"/>
<path d="M117.444 16.3675C117.444 10.7792 121.137 6.94531 126.448 6.94531C129.104 6.94531 131.112 7.79006 132.667 9.28461C134.74 11.299 135.647 14.4181 135.582 18.057H123.663C123.922 20.2663 124.958 21.436 126.837 21.436C127.938 21.436 128.91 20.9161 129.299 19.7465H135.323C134.287 23.8403 131.113 25.8547 126.643 25.8547C121.137 25.7897 117.444 22.0208 117.444 16.3675ZM123.663 14.4831H129.363C129.234 12.3387 128.068 11.234 126.578 11.234C124.829 11.169 123.857 12.4037 123.663 14.4831Z" fill="white"/>
<path d="M142.643 10.5192H142.773C144.068 8.0499 145.753 7.0752 147.89 7.0752C148.408 7.0752 148.732 7.14018 148.927 7.27014V12.7285H148.797C145.105 12.0787 142.967 13.8332 142.967 17.862V25.3347H136.683V7.46508H142.643V10.5192Z" fill="white"/>
<path d="M149.574 25.3348H155.599C155.858 26.1146 156.635 26.8294 158.125 26.8294C160.133 26.8294 160.846 25.5948 160.846 23.7103V22.4107H160.716C159.745 23.5804 158.384 24.4251 156.441 24.4251C152.619 24.4251 149.251 21.566 149.251 15.9776C149.251 10.8442 151.971 6.88037 156.117 6.88037C158.514 6.88037 159.939 7.85508 160.911 9.34963H161.04V7.40022H167V22.8656C167 25.7247 166.028 27.9341 164.538 29.2337C162.984 30.5983 160.781 31.1831 158.255 31.1831C153.461 31.2481 150.157 29.2987 149.574 25.3348ZM161.105 15.7177C161.105 13.5084 160.069 11.6889 158.255 11.6889C156.506 11.6889 155.405 13.2485 155.405 15.7177C155.405 18.122 156.506 19.8115 158.255 19.8115C160.004 19.8115 161.105 18.057 161.105 15.7177Z" fill="white"/>
</svg>
