<svg width="168" height="32" viewBox="0 0 168 32" fill="none" xmlns="http://www.w3.org/2000/svg">
<path d="M0.564453 0.317383H12.8077C15.1397 0.317383 16.8887 0.902208 18.1843 1.87692C19.6094 3.04657 20.3868 4.73606 20.3868 6.81544C20.3868 9.21972 19.4151 10.7143 17.4718 11.624V11.754C20.0629 12.5987 21.5528 14.938 21.5528 17.7322C21.5528 20.3964 20.5164 22.4757 18.8321 23.7754C17.407 24.815 15.5932 25.2699 13.1316 25.2699H0.564453V0.317383ZM11.5769 10.0645C12.8724 10.0645 13.8441 9.34968 13.8441 7.85513C13.8441 6.42555 12.8724 5.71077 11.5121 5.71077H7.30146V9.99948H11.5769V10.0645ZM12.1599 19.7466C13.6498 19.7466 14.751 18.8368 14.751 17.2123C14.751 15.4578 13.585 14.6781 12.1599 14.6781H7.36624V19.8115H12.1599V19.7466Z" fill="#3D3D3D"/>
<path d="M22.6543 0.317383H29.0674V25.3349H22.6543V0.317383Z" fill="#3D3D3D"/>
<path d="M30.3623 16.4324C30.3623 10.7791 33.9899 7.01025 39.6257 7.01025C45.2615 7.01025 48.8243 10.8441 48.8243 16.4324C48.8243 22.0857 45.2615 25.8546 39.6257 25.8546C33.9899 25.8546 30.3623 22.0857 30.3623 16.4324ZM42.4112 16.4324C42.4112 13.3134 41.4395 11.364 39.4961 11.364C37.5528 11.364 36.6459 13.3134 36.6459 16.4324C36.6459 19.5515 37.5528 21.5659 39.4961 21.5659C41.4395 21.5009 42.4112 19.5515 42.4112 16.4324Z" fill="#3D3D3D"/>
<path d="M49.5371 16.4324C49.5371 10.7791 53.1647 7.01025 58.8005 7.01025C64.4362 7.01025 67.9343 10.7791 67.9343 16.4324C67.9343 22.0857 64.3715 25.8546 58.7357 25.8546C53.1647 25.8546 49.5371 22.0857 49.5371 16.4324ZM61.586 16.4324C61.586 13.3134 60.6143 11.364 58.6709 11.364C56.7276 11.364 55.8207 13.3134 55.8207 16.4324C55.8207 19.5515 56.7276 21.5659 58.6709 21.5659C60.6143 21.5009 61.586 19.5515 61.586 16.4324Z" fill="#3D3D3D"/>
<path d="M69.2305 7.46516H75.1901V10.1294H75.3197C76.4857 8.04998 78.1052 6.94531 80.6963 6.94531C82.9636 6.94531 84.6479 8.04998 85.49 9.9994H85.6195C87.0447 7.6601 88.9233 6.94531 91.1257 6.94531C95.2716 6.94531 97.0206 9.9994 97.0206 14.0932V25.2698H90.8018V15.1978C90.8018 13.3784 90.2188 12.2087 88.6641 12.2087C87.1094 12.2087 86.3321 13.6383 86.3321 15.5877V25.2698H80.1133V15.1978C80.1133 13.3784 79.5303 12.2087 77.9756 12.2087C76.4209 12.2087 75.6436 13.6383 75.6436 15.5877V25.2698H69.2305V7.46516Z" fill="#3D3D3D"/>
<path d="M104.858 22.9306H104.794V25.2699H98.834V0.317383H105.053V9.2847H105.182C106.348 7.72516 107.968 6.88042 110.235 6.88042C114.705 6.88042 117.296 10.9092 117.296 16.3026C117.296 22.3458 114.51 25.8547 109.846 25.8547C107.903 25.8547 105.895 24.945 104.858 22.9306ZM110.883 16.2376C110.883 13.3785 109.846 11.494 107.968 11.494C106.024 11.494 104.858 13.3785 104.858 16.2376C104.858 19.0968 106.089 20.9812 107.968 20.9812C109.846 20.9812 110.883 19.1617 110.883 16.2376Z" fill="#3D3D3D"/>
<path d="M118.009 16.3675C118.009 10.7792 121.701 6.94531 127.013 6.94531C129.669 6.94531 131.677 7.79006 133.232 9.28461C135.305 11.299 136.212 14.4181 136.147 18.057H124.228C124.487 20.2663 125.523 21.436 127.402 21.436C128.503 21.436 129.475 20.9161 129.863 19.7465H135.888C134.851 23.8403 131.677 25.8547 127.207 25.8547C121.701 25.7897 118.009 22.0208 118.009 16.3675ZM124.228 14.4831H129.928C129.799 12.3387 128.633 11.234 127.143 11.234C125.394 11.169 124.422 12.4037 124.228 14.4831Z" fill="#3D3D3D"/>
<path d="M143.208 10.5192H143.337C144.633 8.0499 146.317 7.0752 148.455 7.0752C148.973 7.0752 149.297 7.14018 149.491 7.27014V12.7285H149.362C145.669 12.0787 143.532 13.8332 143.532 17.862V25.3347H137.248V7.46508H143.208V10.5192Z" fill="#3D3D3D"/>
<path d="M150.139 25.3348H156.164C156.423 26.1146 157.2 26.8294 158.69 26.8294C160.698 26.8294 161.411 25.5948 161.411 23.7103V22.4107H161.281C160.31 23.5804 158.949 24.4251 157.006 24.4251C153.184 24.4251 149.815 21.566 149.815 15.9776C149.815 10.8442 152.536 6.88037 156.682 6.88037C159.079 6.88037 160.504 7.85508 161.476 9.34963H161.605V7.40022H167.565V22.8656C167.565 25.7247 166.593 27.9341 165.103 29.2337C163.549 30.5983 161.346 31.1831 158.82 31.1831C154.026 31.2481 150.722 29.2987 150.139 25.3348ZM161.67 15.7177C161.67 13.5084 160.634 11.6889 158.82 11.6889C157.071 11.6889 155.969 13.2485 155.969 15.7177C155.969 18.122 157.071 19.8115 158.82 19.8115C160.569 19.8115 161.67 18.057 161.67 15.7177Z" fill="#3D3D3D"/>
</svg>
