<svg width="696" height="228" viewBox="0 0 696 228" fill="none" xmlns="http://www.w3.org/2000/svg">
<path fill-rule="evenodd" clip-rule="evenodd" d="M676.114 56C676.167 56 676.21 56.042 676.213 56.0946C677.195 76.7176 685.402 93.1846 695.775 95.4962C695.906 95.5253 696 95.6402 696 95.7741V95.7741C696 95.908 695.906 96.0228 695.775 96.0519C685.323 98.3811 677.07 115.082 676.192 135.925C676.19 135.967 676.156 136 676.114 136V136C676.073 136 676.038 135.967 676.037 135.925C675.151 114.903 666.763 98.0939 656.183 95.995C656.077 95.974 656 95.8819 656 95.7741V95.7741C656 95.6663 656.077 95.5742 656.183 95.5532C666.684 93.47 675.025 76.8965 676.016 56.0946C676.018 56.042 676.062 56 676.114 56V56Z" fill="#D8F474"/>
<path fill-rule="evenodd" clip-rule="evenodd" d="M638.149 0C638.217 0 638.273 0.0546379 638.276 0.123044C639.551 28.9846 650.209 52.0342 663.687 55.2896C663.87 55.3338 664 55.4956 664 55.6837V55.6837C664 55.8718 663.87 56.0336 663.687 56.0778C650.107 59.3579 639.389 82.7339 638.249 111.903C638.247 111.957 638.202 112 638.148 112V112C638.095 112 638.05 111.957 638.048 111.903C636.898 82.48 626.002 58.9514 612.255 55.9967C612.107 55.9649 612 55.8351 612 55.6837V55.6837C612 55.5323 612.107 55.4025 612.255 55.3707C625.9 52.4381 636.735 29.2378 638.021 0.123055C638.024 0.0546489 638.08 0 638.149 0V0Z" fill="#D8F474"/>
<path d="M53.6621 141.014H24.9912L24.8379 125.222H48.9092C53.151 125.222 56.6263 124.686 59.335 123.612C62.0436 122.488 64.0623 120.878 65.3911 118.783C66.771 116.636 67.4609 114.03 67.4609 110.963C67.4609 107.488 66.7965 104.677 65.4678 102.531C64.1901 100.384 62.1714 98.8255 59.4116 97.8545C56.703 96.8835 53.2021 96.3979 48.9092 96.3979H32.9639V190H9.96582V78.3828H48.9092C55.3997 78.3828 61.2004 78.9961 66.311 80.2227C71.4728 81.4492 75.8424 83.3146 79.4199 85.8188C82.9974 88.3231 85.7316 91.4917 87.6226 95.3247C89.5135 99.1066 90.459 103.604 90.459 108.817C90.459 113.417 89.4113 117.658 87.3159 121.542C85.2716 125.427 82.0264 128.595 77.5801 131.048C73.1849 133.501 67.4354 134.856 60.3315 135.111L53.6621 141.014ZM52.6655 190H18.7051L27.6743 172.062H52.6655C56.703 172.062 59.9993 171.423 62.5547 170.145C65.11 168.816 67.001 167.028 68.2275 164.779C69.4541 162.53 70.0674 159.949 70.0674 157.036C70.0674 153.765 69.5052 150.929 68.3809 148.527C67.3076 146.125 65.57 144.285 63.168 143.007C60.766 141.679 57.5973 141.014 53.6621 141.014H31.5073L31.6606 125.222H59.2583L64.5479 131.432C71.3451 131.329 76.8135 132.53 80.9531 135.035C85.1439 137.488 88.1847 140.682 90.0757 144.617C92.0177 148.552 92.9888 152.769 92.9888 157.266C92.9888 164.421 91.43 170.452 88.3125 175.358C85.195 180.213 80.6209 183.867 74.5903 186.32C68.6108 188.773 61.3026 190 52.6655 190ZM169.916 160.792C169.916 158.799 169.609 157.011 168.996 155.426C168.434 153.791 167.36 152.309 165.776 150.98C164.192 149.6 161.969 148.246 159.107 146.917C156.245 145.588 152.539 144.208 147.991 142.777C142.931 141.142 138.127 139.302 133.579 137.258C129.081 135.214 125.095 132.837 121.62 130.128C118.196 127.369 115.487 124.174 113.494 120.546C111.552 116.917 110.581 112.701 110.581 107.897C110.581 103.246 111.603 99.0299 113.647 95.248C115.691 91.415 118.553 88.1442 122.233 85.4355C125.913 82.6758 130.257 80.5549 135.265 79.0728C140.325 77.5907 145.87 76.8496 151.901 76.8496C160.129 76.8496 167.309 78.3317 173.442 81.2959C179.575 84.2601 184.328 88.3231 187.701 93.4849C191.125 98.6466 192.837 104.549 192.837 111.193H169.992C169.992 107.923 169.302 105.061 167.923 102.607C166.594 100.103 164.549 98.1356 161.79 96.7046C159.081 95.2736 155.657 94.5581 151.517 94.5581C147.531 94.5581 144.209 95.1714 141.551 96.3979C138.894 97.5734 136.901 99.1833 135.572 101.228C134.243 103.221 133.579 105.469 133.579 107.974C133.579 109.865 134.039 111.577 134.959 113.11C135.93 114.643 137.361 116.074 139.252 117.403C141.143 118.732 143.468 119.984 146.228 121.159C148.987 122.335 152.182 123.485 155.81 124.609C161.892 126.449 167.233 128.519 171.832 130.818C176.483 133.118 180.367 135.699 183.485 138.561C186.602 141.423 188.953 144.668 190.537 148.297C192.122 151.925 192.914 156.04 192.914 160.639C192.914 165.494 191.968 169.838 190.077 173.671C188.186 177.504 185.452 180.75 181.875 183.407C178.297 186.065 174.03 188.083 169.072 189.463C164.115 190.843 158.57 191.533 152.437 191.533C146.918 191.533 141.475 190.818 136.109 189.387C130.742 187.905 125.862 185.681 121.466 182.717C117.122 179.753 113.647 175.971 111.041 171.372C108.434 166.772 107.131 161.329 107.131 155.043H130.206C130.206 158.518 130.742 161.457 131.816 163.859C132.889 166.261 134.396 168.203 136.339 169.685C138.332 171.167 140.683 172.24 143.391 172.905C146.151 173.569 149.166 173.901 152.437 173.901C156.424 173.901 159.694 173.339 162.25 172.215C164.856 171.09 166.773 169.532 167.999 167.539C169.277 165.545 169.916 163.297 169.916 160.792ZM274.824 152.973H297.745C297.285 160.486 295.215 167.155 291.536 172.981C287.907 178.808 282.822 183.356 276.28 186.627C269.79 189.898 261.97 191.533 252.822 191.533C245.667 191.533 239.253 190.307 233.58 187.854C227.908 185.349 223.052 181.772 219.015 177.121C215.029 172.47 211.988 166.849 209.892 160.256C207.797 153.663 206.749 146.278 206.749 138.101V130.358C206.749 122.181 207.823 114.796 209.969 108.204C212.167 101.56 215.284 95.9124 219.322 91.2617C223.41 86.611 228.291 83.0335 233.964 80.5293C239.637 78.0251 245.974 76.7729 252.975 76.7729C262.277 76.7729 270.122 78.4595 276.51 81.8325C282.95 85.2056 287.932 89.8563 291.459 95.7847C295.036 101.713 297.183 108.459 297.898 116.023H274.9C274.645 111.526 273.75 107.718 272.217 104.601C270.684 101.432 268.359 99.0555 265.241 97.4712C262.175 95.8358 258.086 95.0181 252.975 95.0181C249.142 95.0181 245.795 95.7336 242.933 97.1646C240.071 98.5955 237.669 100.768 235.727 103.681C233.785 106.594 232.328 110.273 231.357 114.72C230.437 119.115 229.977 124.277 229.977 130.205V138.101C229.977 143.876 230.412 148.961 231.281 153.356C232.149 157.701 233.478 161.38 235.267 164.396C237.107 167.36 239.458 169.608 242.32 171.142C245.233 172.624 248.734 173.365 252.822 173.365C257.626 173.365 261.587 172.598 264.704 171.065C267.822 169.532 270.198 167.257 271.834 164.242C273.52 161.227 274.517 157.471 274.824 152.973ZM348.684 190H324.383L324.536 172.062H348.684C354.715 172.062 359.8 170.707 363.939 167.999C368.079 165.239 371.197 161.227 373.292 155.963C375.439 150.699 376.512 144.336 376.512 136.875V131.432C376.512 125.708 375.898 120.674 374.672 116.33C373.496 111.986 371.733 108.331 369.382 105.367C367.031 102.403 364.144 100.18 360.72 98.6978C357.296 97.1646 353.36 96.3979 348.914 96.3979H323.923V78.3828H348.914C356.376 78.3828 363.198 79.6605 369.382 82.2158C375.617 84.7201 381.009 88.3231 385.558 93.0249C390.106 97.7267 393.607 103.348 396.06 109.89C398.564 116.381 399.816 123.612 399.816 131.585V136.875C399.816 144.796 398.564 152.028 396.06 158.569C393.607 165.111 390.106 170.733 385.558 175.435C381.06 180.085 375.668 183.688 369.382 186.244C363.147 188.748 356.248 190 348.684 190ZM337.415 78.3828V190H314.417V78.3828H337.415ZM461.795 97.4712L431.437 190H406.983L448.456 78.3828H464.018L461.795 97.4712ZM487.016 190L456.582 97.4712L454.129 78.3828H469.844L511.547 190H487.016ZM485.636 148.45V166.465H426.684V148.45H485.636ZM613.772 131.585V136.875C613.772 145.358 612.622 152.973 610.322 159.719C608.022 166.465 604.777 172.215 600.586 176.968C596.396 181.67 591.387 185.273 585.561 187.777C579.786 190.281 573.372 191.533 566.319 191.533C559.318 191.533 552.904 190.281 547.078 187.777C541.302 185.273 536.294 181.67 532.052 176.968C527.81 172.215 524.514 166.465 522.163 159.719C519.863 152.973 518.713 145.358 518.713 136.875V131.585C518.713 123.05 519.863 115.435 522.163 108.74C524.463 101.994 527.708 96.2446 531.899 91.4917C536.141 86.7388 541.149 83.1102 546.924 80.606C552.75 78.1017 559.164 76.8496 566.166 76.8496C573.219 76.8496 579.633 78.1017 585.408 80.606C591.234 83.1102 596.242 86.7388 600.433 91.4917C604.675 96.2446 607.946 101.994 610.245 108.74C612.596 115.435 613.772 123.05 613.772 131.585ZM590.544 136.875V131.432C590.544 125.503 590.007 120.29 588.934 115.793C587.861 111.296 586.276 107.514 584.181 104.447C582.086 101.381 579.53 99.0811 576.515 97.5479C573.5 95.9635 570.05 95.1714 566.166 95.1714C562.282 95.1714 558.832 95.9635 555.817 97.5479C552.853 99.0811 550.323 101.381 548.227 104.447C546.183 107.514 544.624 111.296 543.551 115.793C542.478 120.29 541.941 125.503 541.941 131.432V136.875C541.941 142.752 542.478 147.965 543.551 152.513C544.624 157.011 546.209 160.818 548.304 163.936C550.399 167.002 552.955 169.327 555.97 170.912C558.985 172.496 562.435 173.288 566.319 173.288C570.203 173.288 573.653 172.496 576.668 170.912C579.684 169.327 582.213 167.002 584.258 163.936C586.302 160.818 587.861 157.011 588.934 152.513C590.007 147.965 590.544 142.752 590.544 136.875Z" fill="url(#paint0_linear_2270_134)"/>
<path d="M53.6621 141.014V142.014H54.0411L54.3249 141.763L53.6621 141.014ZM24.9912 141.014L23.9913 141.024L24.0009 142.014H24.9912V141.014ZM24.8379 125.222V124.222H23.8281L23.8379 125.232L24.8379 125.222ZM59.335 123.612L59.7033 124.542L59.7109 124.539L59.7183 124.536L59.335 123.612ZM65.3911 118.783L64.5499 118.242L64.5466 118.247L65.3911 118.783ZM65.4678 102.531L64.6085 103.042L64.6129 103.05L64.6175 103.057L65.4678 102.531ZM59.4116 97.8545L59.0742 98.7958L59.0797 98.7978L59.4116 97.8545ZM32.9639 96.3979V95.3979H31.9639V96.3979H32.9639ZM32.9639 190V191H33.9639V190H32.9639ZM9.96582 190H8.96582V191H9.96582V190ZM9.96582 78.3828V77.3828H8.96582V78.3828H9.96582ZM66.311 80.2227L66.0777 81.195L66.0798 81.1956L66.311 80.2227ZM79.4199 85.8188L78.8465 86.6381L79.4199 85.8188ZM87.6226 95.3247L86.7257 95.7671L86.7281 95.7719L87.6226 95.3247ZM87.3159 121.542L86.4358 121.068L86.431 121.077L87.3159 121.542ZM77.5801 131.048L77.097 130.173L77.0927 130.175L77.5801 131.048ZM60.3315 135.111L60.2956 134.112L59.9373 134.125L59.6688 134.362L60.3315 135.111ZM18.7051 190L17.8107 189.553L17.087 191H18.7051V190ZM27.6743 172.062V171.062H27.0563L26.7799 171.614L27.6743 172.062ZM62.5547 170.145L63.0019 171.039L63.009 171.036L63.016 171.032L62.5547 170.145ZM68.3809 148.527L67.4679 148.935L67.4714 148.943L67.4752 148.951L68.3809 148.527ZM63.168 143.007L62.6839 143.882L62.6911 143.886L62.6984 143.89L63.168 143.007ZM31.5073 141.014L30.5074 141.004L30.4976 142.014H31.5073V141.014ZM31.6606 125.222V124.222H30.6703L30.6607 125.212L31.6606 125.222ZM59.2583 125.222L60.0195 124.574L59.7201 124.222H59.2583V125.222ZM64.5479 131.432L63.7866 132.08L64.092 132.439L64.5629 132.432L64.5479 131.432ZM80.9531 135.035L80.4355 135.89L80.4417 135.894L80.4479 135.898L80.9531 135.035ZM90.0757 144.617L89.1743 145.05L89.1789 145.06L90.0757 144.617ZM88.3125 175.358L89.154 175.898L89.1565 175.894L88.3125 175.358ZM74.5903 186.32L74.2135 185.394L74.2108 185.395L74.5903 186.32ZM53.6621 140.014H24.9912V142.014H53.6621V140.014ZM25.9912 141.004L25.8378 125.212L23.8379 125.232L23.9913 141.024L25.9912 141.004ZM24.8379 126.222H48.9092V124.222H24.8379V126.222ZM48.9092 126.222C53.2246 126.222 56.8369 125.678 59.7033 124.542L58.9666 122.683C56.4157 123.693 53.0775 124.222 48.9092 124.222V126.222ZM59.7183 124.536C62.5815 123.347 64.7778 121.617 66.2356 119.318L64.5466 118.247C63.3469 120.139 61.5057 121.628 58.9516 122.689L59.7183 124.536ZM66.2323 119.323C67.7352 116.986 68.4609 114.182 68.4609 110.963H66.4609C66.4609 113.877 65.8068 116.287 64.5499 118.242L66.2323 119.323ZM68.4609 110.963C68.4609 107.37 67.775 104.358 66.318 102.004L64.6175 103.057C65.8181 104.997 66.4609 107.607 66.4609 110.963H68.4609ZM66.3271 102.019C64.9097 99.6381 62.6845 97.946 59.7435 96.9112L59.0797 98.7978C61.6583 99.7051 63.4705 101.13 64.6085 103.042L66.3271 102.019ZM59.7491 96.9132C56.8928 95.8892 53.2662 95.3979 48.9092 95.3979V97.3979C53.1381 97.3979 56.5132 97.8777 59.0742 98.7958L59.7491 96.9132ZM48.9092 95.3979H32.9639V97.3979H48.9092V95.3979ZM31.9639 96.3979V190H33.9639V96.3979H31.9639ZM32.9639 189H9.96582V191H32.9639V189ZM10.9658 190V78.3828H8.96582V190H10.9658ZM9.96582 79.3828H48.9092V77.3828H9.96582V79.3828ZM48.9092 79.3828C55.3387 79.3828 61.0588 79.9905 66.0777 81.195L66.5444 79.2503C61.3419 78.0017 55.4608 77.3828 48.9092 77.3828V79.3828ZM66.0798 81.1956C71.1445 82.3991 75.392 84.2199 78.8465 86.6381L79.9934 84.9996C76.2929 82.4093 71.8011 80.4994 66.5422 79.2497L66.0798 81.1956ZM78.8465 86.6381C82.2893 89.0481 84.9109 92.0883 86.7258 95.7671L88.5194 94.8823C86.5524 90.8951 83.7055 87.5981 79.9934 84.9996L78.8465 86.6381ZM86.7281 95.7719C88.5354 99.3864 89.459 103.724 89.459 108.817H91.459C91.459 103.484 90.4917 98.8268 88.517 94.8775L86.7281 95.7719ZM89.459 108.817C89.459 113.258 88.4491 117.336 86.4358 121.068L88.196 122.017C90.3735 117.981 91.459 113.575 91.459 108.817H89.459ZM86.431 121.077C84.4914 124.762 81.3997 127.799 77.097 130.173L78.0632 131.924C82.653 129.392 86.0519 126.091 88.2008 122.008L86.431 121.077ZM77.0927 130.175C72.881 132.526 67.3023 133.86 60.2956 134.112L60.3675 136.111C67.5684 135.852 73.4888 134.477 78.0674 131.922L77.0927 130.175ZM59.6688 134.362L52.9993 140.265L54.3249 141.763L60.9943 135.86L59.6688 134.362ZM52.6655 189H18.7051V191H52.6655V189ZM19.5995 190.447L28.5687 172.509L26.7799 171.614L17.8107 189.553L19.5995 190.447ZM27.6743 173.062H52.6655V171.062H27.6743V173.062ZM52.6655 173.062C56.7981 173.062 60.2625 172.409 63.0019 171.039L62.1075 169.251C59.7362 170.436 56.6078 171.062 52.6655 171.062V173.062ZM63.016 171.032C65.725 169.624 67.7721 167.702 69.1054 165.258L67.3496 164.3C66.2298 166.353 64.4951 168.009 62.0933 169.258L63.016 171.032ZM69.1054 165.258C70.4226 162.843 71.0674 160.093 71.0674 157.036H69.0674C69.0674 159.805 68.4856 162.217 67.3496 164.3L69.1054 165.258ZM71.0674 157.036C71.0674 153.652 70.4858 150.665 69.2865 148.103L67.4752 148.951C68.5247 151.193 69.0674 153.878 69.0674 157.036H71.0674ZM69.2939 148.119C68.1265 145.506 66.2289 143.503 63.6376 142.124L62.6984 143.89C64.9111 145.067 66.4887 146.743 67.4679 148.935L69.2939 148.119ZM63.652 142.132C61.0514 140.694 57.6978 140.014 53.6621 140.014V142.014C57.4969 142.014 60.4805 142.663 62.6839 143.882L63.652 142.132ZM53.6621 140.014H31.5073V142.014H53.6621V140.014ZM32.5073 141.024L32.6606 125.232L30.6607 125.212L30.5074 141.004L32.5073 141.024ZM31.6606 126.222H59.2583V124.222H31.6606V126.222ZM58.4971 125.871L63.7866 132.08L65.3091 130.783L60.0195 124.574L58.4971 125.871ZM64.5629 132.432C71.2451 132.331 76.5089 133.515 80.4355 135.89L81.4707 134.179C77.1181 131.546 71.445 130.328 64.5328 130.432L64.5629 132.432ZM80.4479 135.898C84.4868 138.262 87.3792 141.315 89.1743 145.05L90.977 144.184C88.9902 140.049 85.8009 136.714 81.4583 134.172L80.4479 135.898ZM89.1789 145.06C91.0513 148.854 91.9888 152.918 91.9888 157.266H93.9888C93.9888 152.619 92.9841 148.251 90.9724 144.175L89.1789 145.06ZM91.9888 157.266C91.9888 164.275 90.4629 170.109 87.4685 174.822L89.1565 175.894C92.3972 170.794 93.9888 164.567 93.9888 157.266H91.9888ZM87.471 174.818C84.4789 179.477 80.0787 183.008 74.2135 185.394L74.9671 187.247C81.1632 184.726 85.9111 180.949 89.154 175.898L87.471 174.818ZM74.2108 185.395C68.3848 187.785 61.2137 189 52.6655 189V191C61.3914 191 68.8368 189.762 74.9699 187.245L74.2108 185.395ZM168.996 155.426L168.05 155.751L168.056 155.769L168.063 155.787L168.996 155.426ZM165.776 150.98L165.119 151.734L165.126 151.74L165.133 151.746L165.776 150.98ZM147.991 142.777L147.683 143.729L147.691 143.731L147.991 142.777ZM133.579 137.258L133.165 138.168L133.169 138.17L133.579 137.258ZM121.62 130.128L120.992 130.907L120.999 130.912L121.005 130.917L121.62 130.128ZM113.494 120.546L112.612 121.018L112.617 121.027L113.494 120.546ZM113.647 95.248L114.527 95.7236L114.53 95.7186L113.647 95.248ZM122.233 85.4355L122.826 86.2409L122.833 86.2355L122.233 85.4355ZM135.265 79.0728L134.984 78.1131L134.982 78.1139L135.265 79.0728ZM187.701 93.4849L186.864 94.0319L186.868 94.0377L187.701 93.4849ZM192.837 111.193V112.193H193.837V111.193H192.837ZM169.992 111.193H168.992V112.193H169.992V111.193ZM167.923 102.607L167.039 103.076L167.045 103.087L167.051 103.098L167.923 102.607ZM161.79 96.7046L161.323 97.5888L161.329 97.5923L161.79 96.7046ZM141.551 96.3979L141.956 97.3125L141.963 97.3093L141.971 97.3059L141.551 96.3979ZM135.572 101.228L136.404 101.782L136.41 101.773L135.572 101.228ZM134.959 113.11L134.101 113.624L134.107 113.635L134.114 113.645L134.959 113.11ZM139.252 117.403L139.827 116.585L139.252 117.403ZM155.81 124.609L155.514 125.564L155.521 125.566L155.81 124.609ZM171.832 130.818L171.385 131.713L171.389 131.715L171.832 130.818ZM190.537 148.297L189.621 148.697L190.537 148.297ZM181.875 183.407L181.278 182.604L181.875 183.407ZM136.109 189.387L135.842 190.351L135.851 190.353L136.109 189.387ZM121.466 182.717L120.903 183.543L120.907 183.546L121.466 182.717ZM107.131 155.043V154.043H106.131V155.043H107.131ZM130.206 155.043H131.206V154.043H130.206V155.043ZM136.339 169.685L135.732 170.48L135.742 170.488L136.339 169.685ZM143.391 172.905L143.153 173.876L143.157 173.877L143.391 172.905ZM162.25 172.215L161.854 171.297L161.847 171.3L162.25 172.215ZM167.999 167.539L167.157 166.999L167.152 167.007L167.148 167.014L167.999 167.539ZM170.916 160.792C170.916 158.697 170.593 156.783 169.928 155.065L168.063 155.787C168.625 157.238 168.916 158.902 168.916 160.792H170.916ZM169.941 155.101C169.31 153.263 168.115 151.636 166.419 150.214L165.133 151.746C166.606 152.981 167.558 154.319 168.05 155.751L169.941 155.101ZM166.433 150.226C164.752 148.762 162.437 147.361 159.528 146.01L158.686 147.824C161.5 149.131 163.632 150.439 165.119 151.734L166.433 150.226ZM159.528 146.01C156.612 144.656 152.862 143.262 148.291 141.823L147.691 143.731C152.217 145.155 155.877 146.52 158.686 147.824L159.528 146.01ZM148.298 141.826C143.271 140.201 138.502 138.374 133.989 136.346L133.169 138.17C137.753 140.23 142.591 142.083 147.683 143.729L148.298 141.826ZM133.993 136.347C129.558 134.332 125.641 131.995 122.235 129.34L121.005 130.917C124.549 133.68 128.605 136.095 133.165 138.168L133.993 136.347ZM122.247 129.35C118.918 126.667 116.297 123.572 114.37 120.064L112.617 121.027C114.677 124.777 117.473 128.071 120.992 130.907L122.247 129.35ZM114.375 120.074C112.523 116.613 111.581 112.564 111.581 107.897H109.581C109.581 112.838 110.58 117.221 112.612 121.018L114.375 120.074ZM111.581 107.897C111.581 103.398 112.568 99.3476 114.527 95.7236L112.767 94.7725C110.638 98.7123 109.581 103.094 109.581 107.897H111.581ZM114.53 95.7186C116.5 92.0243 119.26 88.8657 122.826 86.2409L121.64 84.6302C117.847 87.4227 114.883 90.8058 112.765 94.7775L114.53 95.7186ZM122.833 86.2355C126.406 83.5561 130.639 81.4845 135.549 80.0317L134.982 78.1139C129.874 79.6252 125.42 81.7955 121.633 84.6355L122.833 86.2355ZM135.546 80.0324C140.503 78.5806 145.952 77.8496 151.901 77.8496V75.8496C145.788 75.8496 140.147 76.6007 134.984 78.1131L135.546 80.0324ZM151.901 77.8496C160.009 77.8496 167.035 79.3099 173.007 82.1962L173.877 80.3955C167.583 77.3535 160.249 75.8496 151.901 75.8496V77.8496ZM173.007 82.1962C178.994 85.0899 183.6 89.0378 186.864 94.0319L188.538 92.9378C185.055 87.6083 180.156 83.4303 173.877 80.3955L173.007 82.1962ZM186.868 94.0377C190.175 99.0235 191.837 104.731 191.837 111.193H193.837C193.837 104.368 192.075 98.2698 188.534 92.9321L186.868 94.0377ZM192.837 110.193H169.992V112.193H192.837V110.193ZM170.992 111.193C170.992 107.779 170.271 104.743 168.794 102.117L167.051 103.098C168.334 105.378 168.992 108.066 168.992 111.193H170.992ZM168.806 102.139C167.373 99.4378 165.172 97.3319 162.25 95.8168L161.329 97.5923C163.927 98.9393 165.815 100.769 167.039 103.076L168.806 102.139ZM162.257 95.8204C159.363 94.2914 155.765 93.5581 151.517 93.5581V95.5581C155.549 95.5581 158.8 96.2558 161.323 97.5888L162.257 95.8204ZM151.517 93.5581C147.436 93.5581 143.96 94.185 141.132 95.49L141.971 97.3059C144.458 96.1578 147.626 95.5581 151.517 95.5581V93.5581ZM141.147 95.4834C138.346 96.7221 136.187 98.4466 134.734 100.683L136.41 101.773C137.615 99.9199 139.441 98.4247 141.956 97.3125L141.147 95.4834ZM134.74 100.673C133.296 102.838 132.579 105.281 132.579 107.974H134.579C134.579 105.657 135.19 103.603 136.404 101.782L134.74 100.673ZM132.579 107.974C132.579 110.035 133.083 111.927 134.101 113.624L135.816 112.595C134.995 111.227 134.579 109.694 134.579 107.974H132.579ZM134.114 113.645C135.172 115.315 136.706 116.836 138.677 118.221L139.827 116.585C138.015 115.312 136.688 113.971 135.803 112.575L134.114 113.645ZM138.677 118.221C140.639 119.6 143.03 120.884 145.836 122.079L146.62 120.239C143.906 119.084 141.646 117.863 139.827 116.585L138.677 118.221ZM145.836 122.079C148.634 123.271 151.861 124.432 155.514 125.564L156.106 123.654C152.502 122.537 149.341 121.398 146.62 120.239L145.836 122.079ZM155.521 125.566C161.56 127.393 166.846 129.443 171.385 131.713L172.279 129.924C167.619 127.594 162.224 125.504 156.1 123.652L155.521 125.566ZM171.389 131.715C175.973 133.982 179.774 136.512 182.808 139.298L184.161 137.824C180.96 134.886 176.993 132.255 172.275 129.922L171.389 131.715ZM182.808 139.298C185.83 142.072 188.096 145.205 189.621 148.697L191.454 147.897C189.81 144.132 187.374 140.774 184.161 137.824L182.808 139.298ZM189.621 148.697C191.142 152.181 191.914 156.155 191.914 160.639H193.914C193.914 155.924 193.101 151.67 191.454 147.897L189.621 148.697ZM191.914 160.639C191.914 165.362 190.995 169.551 189.181 173.229L190.974 174.114C192.942 170.126 193.914 165.627 193.914 160.639H191.914ZM189.181 173.229C187.363 176.914 184.734 180.037 181.278 182.604L182.471 184.21C186.17 181.462 189.01 178.095 190.974 174.114L189.181 173.229ZM181.278 182.604C177.813 185.178 173.661 187.148 168.804 188.5L169.341 190.427C174.398 189.019 178.781 186.951 182.471 184.21L181.278 182.604ZM168.804 188.5C163.949 189.851 158.496 190.533 152.437 190.533V192.533C158.644 192.533 164.281 191.835 169.341 190.427L168.804 188.5ZM152.437 190.533C147.005 190.533 141.649 189.829 136.366 188.42L135.851 190.353C141.301 191.806 146.83 192.533 152.437 192.533V190.533ZM136.375 188.423C131.108 186.968 126.327 184.789 122.026 181.888L120.907 183.546C125.397 186.574 130.377 188.841 135.842 190.351L136.375 188.423ZM122.03 181.891C117.813 179.014 114.442 175.346 111.911 170.879L110.171 171.865C112.852 176.596 116.432 180.493 120.903 183.543L122.03 181.891ZM111.911 170.879C109.404 166.455 108.131 161.189 108.131 155.043H106.131C106.131 161.469 107.464 167.089 110.171 171.865L111.911 170.879ZM107.131 156.043H130.206V154.043H107.131V156.043ZM129.206 155.043C129.206 158.616 129.757 161.702 130.903 164.267L132.729 163.451C131.728 161.211 131.206 158.421 131.206 155.043H129.206ZM130.903 164.267C132.039 166.809 133.647 168.889 135.732 170.48L136.945 168.89C135.146 167.517 133.739 165.712 132.729 163.451L130.903 164.267ZM135.742 170.488C137.854 172.058 140.331 173.184 143.153 173.876L143.63 171.934C141.035 171.297 138.809 170.276 136.935 168.883L135.742 170.488ZM143.157 173.877C146.004 174.562 149.099 174.901 152.437 174.901V172.901C149.234 172.901 146.298 172.576 143.625 171.933L143.157 173.877ZM152.437 174.901C156.507 174.901 159.928 174.329 162.652 173.13L161.847 171.3C159.461 172.35 156.34 172.901 152.437 172.901V174.901ZM162.646 173.133C165.4 171.945 167.495 170.265 168.851 168.063L167.148 167.014C166.05 168.798 164.312 170.236 161.854 171.297L162.646 173.133ZM168.841 168.078C170.228 165.915 170.916 163.476 170.916 160.792H168.916C168.916 163.117 168.326 165.176 167.157 166.999L168.841 168.078ZM274.824 152.973V151.973H273.889L273.826 152.905L274.824 152.973ZM297.745 152.973L298.743 153.034L298.808 151.973H297.745V152.973ZM291.536 172.981L290.69 172.447L290.687 172.453L291.536 172.981ZM276.28 186.627L275.833 185.733L275.83 185.734L276.28 186.627ZM233.58 187.854L233.177 188.768L233.184 188.771L233.58 187.854ZM219.015 177.121L218.256 177.772L218.26 177.777L219.015 177.121ZM209.892 160.256L208.939 160.559L209.892 160.256ZM209.969 108.204L209.02 107.89L209.018 107.894L209.969 108.204ZM219.322 91.2617L218.571 90.6015L218.566 90.6062L219.322 91.2617ZM276.51 81.8325L276.043 82.7168L276.046 82.7184L276.51 81.8325ZM291.459 95.7847L290.599 96.2959L290.603 96.3013L291.459 95.7847ZM297.898 116.023V117.023H298.997L298.894 115.929L297.898 116.023ZM274.9 116.023L273.902 116.08L273.955 117.023H274.9V116.023ZM272.217 104.601L271.317 105.036L271.32 105.042L272.217 104.601ZM265.241 97.4712L264.77 98.3535L264.779 98.3582L264.788 98.3627L265.241 97.4712ZM231.357 114.72L230.38 114.506L230.378 114.515L231.357 114.72ZM231.281 153.356L230.3 153.55L230.3 153.553L231.281 153.356ZM235.267 164.396L234.407 164.906L234.412 164.914L234.417 164.923L235.267 164.396ZM242.32 171.142L241.847 172.023L241.857 172.028L241.866 172.033L242.32 171.142ZM271.834 164.242L270.961 163.754L270.955 163.765L271.834 164.242ZM274.824 153.973H297.745V151.973H274.824V153.973ZM296.747 152.912C296.296 160.273 294.272 166.776 290.69 172.447L292.381 173.515C296.159 167.534 298.274 160.699 298.743 153.034L296.747 152.912ZM290.687 172.453C287.162 178.112 282.221 182.539 275.833 185.733L276.727 187.521C283.423 184.174 288.652 179.503 292.384 173.51L290.687 172.453ZM275.83 185.734C269.511 188.919 261.853 190.533 252.822 190.533V192.533C262.087 192.533 270.069 190.877 276.73 187.52L275.83 185.734ZM252.822 190.533C245.782 190.533 239.507 189.327 233.977 186.936L233.184 188.771C239 191.287 245.552 192.533 252.822 192.533V190.533ZM233.984 186.939C228.445 184.494 223.71 181.004 219.77 176.466L218.26 177.777C222.395 182.539 227.37 186.205 233.177 188.768L233.984 186.939ZM219.774 176.47C215.886 171.934 212.905 166.434 210.845 159.953L208.939 160.559C211.07 167.263 214.172 173.007 218.256 177.772L219.774 176.47ZM210.845 159.953C208.786 153.474 207.749 146.194 207.749 138.101H205.749C205.749 146.363 206.808 153.852 208.939 160.559L210.845 159.953ZM207.749 138.101V130.358H205.749V138.101H207.749ZM207.749 130.358C207.749 122.268 208.811 114.99 210.92 108.513L209.018 107.894C206.834 114.603 205.749 122.095 205.749 130.358H207.749ZM210.919 108.518C213.08 101.982 216.137 96.4554 220.077 91.9173L218.566 90.6062C214.431 95.3695 211.253 101.137 209.02 107.89L210.919 108.518ZM220.073 91.922C224.065 87.3805 228.827 83.8898 234.368 81.4441L233.56 79.6145C227.754 82.1773 222.755 85.8415 218.571 90.6015L220.073 91.922ZM234.368 81.4441C239.898 79.0029 246.095 77.7729 252.975 77.7729V75.7729C245.853 75.7729 239.375 77.0472 233.56 79.6145L234.368 81.4441ZM252.975 77.7729C262.16 77.7729 269.834 79.4385 276.043 82.7168L276.977 80.9482C270.409 77.4805 262.394 75.7729 252.975 75.7729V77.7729ZM276.046 82.7184C282.331 86.0104 287.173 90.5353 290.599 96.2959L292.318 95.2734C288.692 89.1773 283.568 84.4008 276.974 80.9467L276.046 82.7184ZM290.603 96.3013C294.095 102.089 296.2 108.688 296.903 116.117L298.894 115.929C298.166 108.23 295.977 101.337 292.315 95.268L290.603 96.3013ZM297.898 115.023H274.9V117.023H297.898V115.023ZM275.899 115.966C275.638 111.373 274.721 107.427 273.114 104.159L271.32 105.042C272.779 108.009 273.652 111.678 273.902 116.08L275.899 115.966ZM273.117 104.165C271.49 100.801 269.008 98.2637 265.694 96.5797L264.788 98.3627C267.709 99.8473 269.878 102.063 271.317 105.036L273.117 104.165ZM265.712 96.5888C262.448 94.8483 258.179 94.0181 252.975 94.0181V96.0181C257.994 96.0181 261.901 96.8232 264.77 98.3535L265.712 96.5888ZM252.975 94.0181C249.018 94.0181 245.511 94.7573 242.486 96.2701L243.38 98.059C246.078 96.7098 249.267 96.0181 252.975 96.0181V94.0181ZM242.486 96.2701C239.454 97.7861 236.924 100.082 234.895 103.126L236.559 104.235C238.414 101.453 240.688 99.4049 243.38 98.059L242.486 96.2701ZM234.895 103.126C232.866 106.169 231.37 109.973 230.38 114.506L232.334 114.933C233.286 110.574 234.703 107.019 236.559 104.235L234.895 103.126ZM230.378 114.515C229.441 118.995 228.977 124.228 228.977 130.205H230.977C230.977 124.325 231.434 119.235 232.336 114.925L230.378 114.515ZM228.977 130.205V138.101H230.977V130.205H228.977ZM228.977 138.101C228.977 143.924 229.415 149.076 230.3 153.55L232.262 153.163C231.408 148.846 230.977 143.829 230.977 138.101H228.977ZM230.3 153.553C231.185 157.98 232.548 161.772 234.407 164.906L236.127 163.885C234.409 160.989 233.113 157.422 232.261 153.16L230.3 153.553ZM234.417 164.923C236.343 168.025 238.819 170.401 241.847 172.023L242.792 170.26C240.096 168.816 237.871 166.695 236.117 163.868L234.417 164.923ZM241.866 172.033C244.951 173.602 248.615 174.365 252.822 174.365V172.365C248.853 172.365 245.515 171.645 242.773 170.25L241.866 172.033ZM252.822 174.365C257.724 174.365 261.849 173.584 265.146 171.962L264.263 170.168C261.325 171.613 257.528 172.365 252.822 172.365V174.365ZM265.146 171.962C268.447 170.339 270.977 167.919 272.713 164.719L270.955 163.765C269.42 166.596 267.197 168.725 264.263 170.168L265.146 171.962ZM272.707 164.73C274.484 161.553 275.508 157.643 275.821 153.041L273.826 152.905C273.526 157.298 272.557 160.901 270.961 163.754L272.707 164.73ZM324.383 190L323.383 189.991L323.374 191H324.383V190ZM324.536 172.062V171.062H323.545L323.536 172.053L324.536 172.062ZM363.939 167.999L364.487 168.835L364.494 168.831L363.939 167.999ZM373.292 155.963L372.366 155.585L372.363 155.593L373.292 155.963ZM374.672 116.33L373.707 116.591L373.71 116.601L374.672 116.33ZM360.72 98.6978L360.311 99.6105L360.323 99.6155L360.72 98.6978ZM323.923 96.3979H322.923V97.3979H323.923V96.3979ZM323.923 78.3828V77.3828H322.923V78.3828H323.923ZM369.382 82.2158L369 83.1401L369.01 83.1438L369.382 82.2158ZM385.558 93.0249L386.276 92.3296L385.558 93.0249ZM396.06 109.89L395.124 110.241L395.127 110.25L396.06 109.89ZM396.06 158.569L395.126 158.212L395.124 158.218L396.06 158.569ZM385.558 175.435L384.839 174.739L384.839 174.739L385.558 175.435ZM369.382 186.244L369.755 187.172L369.759 187.17L369.382 186.244ZM337.415 78.3828H338.415V77.3828H337.415V78.3828ZM337.415 190V191H338.415V190H337.415ZM314.417 190H313.417V191H314.417V190ZM314.417 78.3828V77.3828H313.417V78.3828H314.417ZM348.684 189H324.383V191H348.684V189ZM325.383 190.009L325.536 172.07L323.536 172.053L323.383 189.991L325.383 190.009ZM324.536 173.062H348.684V171.062H324.536V173.062ZM348.684 173.062C354.866 173.062 360.152 171.672 364.487 168.835L363.392 167.162C359.448 169.743 354.563 171.062 348.684 171.062V173.062ZM364.494 168.831C368.825 165.943 372.061 161.758 374.221 156.333L372.363 155.593C370.332 160.696 367.333 164.534 363.385 167.166L364.494 168.831ZM374.218 156.34C376.426 150.926 377.512 144.427 377.512 136.875H375.512C375.512 144.245 374.451 150.472 372.366 155.585L374.218 156.34ZM377.512 136.875V131.432H375.512V136.875H377.512ZM377.512 131.432C377.512 125.639 376.891 120.51 375.634 116.058L373.71 116.601C374.905 120.837 375.512 125.776 375.512 131.432H377.512ZM375.637 116.068C374.433 111.618 372.616 107.835 370.166 104.746L368.599 105.989C370.851 108.828 372.56 112.353 373.707 116.591L375.637 116.068ZM370.166 104.746C367.714 101.654 364.695 99.3285 361.117 97.78L360.323 99.6155C363.593 101.031 366.349 103.152 368.599 105.989L370.166 104.746ZM361.128 97.7851C357.554 96.1846 353.476 95.3979 348.914 95.3979V97.3979C353.245 97.3979 357.037 98.1445 360.311 99.6104L361.128 97.7851ZM348.914 95.3979H323.923V97.3979H348.914V95.3979ZM324.923 96.3979V78.3828H322.923V96.3979H324.923ZM323.923 79.3828H348.914V77.3828H323.923V79.3828ZM348.914 79.3828C356.26 79.3828 362.951 80.6402 369 83.14L369.764 81.2916C363.446 78.6808 356.492 77.3828 348.914 77.3828V79.3828ZM369.01 83.1438C375.118 85.5971 380.391 89.1222 384.839 93.7202L386.276 92.3296C381.627 87.524 376.117 83.843 369.755 81.2879L369.01 83.1438ZM384.839 93.7202C389.286 98.3169 392.715 103.819 395.124 110.241L396.996 109.539C394.498 102.878 390.927 97.1366 386.276 92.3296L384.839 93.7202ZM395.127 110.25C397.581 116.61 398.816 123.718 398.816 131.585H400.816C400.816 123.507 399.548 116.151 396.993 109.53L395.127 110.25ZM398.816 131.585V136.875H400.816V131.585H398.816ZM398.816 136.875C398.816 144.69 397.581 151.798 395.126 158.212L396.994 158.927C399.547 152.257 400.816 144.902 400.816 136.875H398.816ZM395.124 158.218C392.715 164.64 389.286 170.143 384.839 174.739L386.276 176.13C390.927 171.323 394.498 165.582 396.996 158.92L395.124 158.218ZM384.839 174.739C380.443 179.285 375.169 182.812 369.006 185.317L369.759 187.17C376.168 184.565 381.678 180.885 386.277 176.13L384.839 174.739ZM369.01 185.316C362.907 187.767 356.136 189 348.684 189V191C356.36 191 363.388 189.729 369.755 187.172L369.01 185.316ZM336.415 78.3828V190H338.415V78.3828H336.415ZM337.415 189H314.417V191H337.415V189ZM315.417 190V78.3828H313.417V190H315.417ZM314.417 79.3828H337.415V77.3828H314.417V79.3828ZM461.795 97.4712L462.745 97.7829L462.776 97.6871L462.788 97.5869L461.795 97.4712ZM431.437 190V191H432.162L432.387 190.312L431.437 190ZM406.983 190L406.045 189.652L405.544 191H406.983V190ZM448.456 78.3828V77.3828H447.761L447.518 78.0345L448.456 78.3828ZM464.018 78.3828L465.011 78.4985L465.141 77.3828H464.018V78.3828ZM487.016 190L486.066 190.312L486.292 191H487.016V190ZM456.582 97.4712L455.59 97.5987L455.602 97.6931L455.632 97.7836L456.582 97.4712ZM454.129 78.3828V77.3828H452.992L453.137 78.5103L454.129 78.3828ZM469.844 78.3828L470.781 78.0328L470.538 77.3828H469.844V78.3828ZM511.547 190V191H512.988L512.484 189.65L511.547 190ZM485.636 148.45H486.636V147.45H485.636V148.45ZM485.636 166.465V167.465H486.636V166.465H485.636ZM426.684 166.465H425.684V167.465H426.684V166.465ZM426.684 148.45V147.45H425.684V148.45H426.684ZM460.844 97.1595L430.487 189.688L432.387 190.312L462.745 97.7829L460.844 97.1595ZM431.437 189H406.983V191H431.437V189ZM407.92 190.348L449.393 78.7311L447.518 78.0345L406.045 189.652L407.92 190.348ZM448.456 79.3828H464.018V77.3828H448.456V79.3828ZM463.025 78.2671L460.801 97.3555L462.788 97.5869L465.011 78.4985L463.025 78.2671ZM487.966 189.688L457.532 97.1587L455.632 97.7836L486.066 190.312L487.966 189.688ZM457.574 97.3437L455.12 78.2553L453.137 78.5103L455.59 97.5987L457.574 97.3437ZM454.129 79.3828H469.844V77.3828H454.129V79.3828ZM468.907 78.7328L510.61 190.35L512.484 189.65L470.781 78.0328L468.907 78.7328ZM511.547 189H487.016V191H511.547V189ZM484.636 148.45V166.465H486.636V148.45H484.636ZM485.636 165.465H426.684V167.465H485.636V165.465ZM427.684 166.465V148.45H425.684V166.465H427.684ZM426.684 149.45H485.636V147.45H426.684V149.45ZM600.586 176.968L601.333 177.633L601.336 177.629L600.586 176.968ZM585.561 187.777L585.166 186.858L585.163 186.859L585.561 187.777ZM547.078 187.777L546.68 188.694L546.683 188.696L547.078 187.777ZM532.052 176.968L531.306 177.634L531.31 177.638L532.052 176.968ZM522.163 159.719L521.216 160.042L521.219 160.048L522.163 159.719ZM522.163 108.74L523.109 109.065L523.109 109.063L522.163 108.74ZM531.899 91.4917L531.153 90.8258L531.149 90.8303L531.899 91.4917ZM546.924 80.606L546.529 79.6872L546.526 79.6885L546.924 80.606ZM585.408 80.606L585.01 81.5234L585.013 81.5247L585.408 80.606ZM600.433 91.4917L599.683 92.1531L599.687 92.1576L600.433 91.4917ZM610.245 108.74L609.299 109.063L609.302 109.072L610.245 108.74ZM588.934 115.793L587.961 116.025L588.934 115.793ZM576.515 97.5479L576.05 98.4332L576.062 98.4392L576.515 97.5479ZM555.817 97.5479L556.276 98.4361L556.282 98.4331L555.817 97.5479ZM548.227 104.447L547.402 103.883L547.395 103.893L548.227 104.447ZM543.551 152.513L542.578 152.743L542.578 152.745L543.551 152.513ZM548.304 163.936L547.474 164.493L547.478 164.5L548.304 163.936ZM555.97 170.912L555.505 171.797L555.97 170.912ZM576.668 170.912L577.133 171.797L576.668 170.912ZM584.258 163.936L585.09 164.49L585.094 164.484L584.258 163.936ZM588.934 152.513L589.907 152.745L589.907 152.743L588.934 152.513ZM612.772 131.585V136.875H614.772V131.585H612.772ZM612.772 136.875C612.772 145.269 611.634 152.772 609.376 159.397L611.269 160.042C613.61 153.174 614.772 145.448 614.772 136.875H612.772ZM609.376 159.397C607.113 166.033 603.93 171.664 599.836 176.306L601.336 177.629C605.625 172.766 608.932 166.897 611.269 160.042L609.376 159.397ZM599.84 176.302C595.747 180.894 590.859 184.411 585.166 186.858L585.956 188.696C591.915 186.134 597.044 182.445 601.333 177.633L599.84 176.302ZM585.163 186.859C579.528 189.303 573.252 190.533 566.319 190.533V192.533C573.492 192.533 580.044 191.259 585.959 188.694L585.163 186.859ZM566.319 190.533C559.439 190.533 553.161 189.303 547.472 186.858L546.683 188.696C552.646 191.259 559.196 192.533 566.319 192.533V190.533ZM547.475 186.859C541.832 184.412 536.941 180.894 532.795 176.298L531.31 177.638C535.647 182.445 540.773 186.133 546.68 188.694L547.475 186.859ZM532.798 176.302C528.654 171.658 525.42 166.027 523.107 159.39L521.219 160.048C523.608 166.904 526.967 172.771 531.306 177.634L532.798 176.302ZM523.109 159.397C520.851 152.772 519.713 145.269 519.713 136.875H517.713C517.713 145.448 518.875 153.174 521.216 160.042L523.109 159.397ZM519.713 136.875V131.585H517.713V136.875H519.713ZM519.713 131.585C519.713 123.139 520.851 115.637 523.109 109.065L521.217 108.415C518.875 115.234 517.713 122.962 517.713 131.585H519.713ZM523.109 109.063C525.372 102.426 528.556 96.7955 532.649 92.1531L531.149 90.8303C526.861 95.6937 523.553 101.562 521.216 108.418L523.109 109.063ZM532.645 92.1576C536.791 87.5114 541.682 83.9693 547.322 81.5234L546.526 79.6885C540.617 82.2511 535.49 85.9662 531.153 90.8258L532.645 92.1576ZM547.319 81.5247C553.008 79.0794 559.286 77.8496 566.166 77.8496V75.8496C559.043 75.8496 552.493 77.124 546.529 79.6872L547.319 81.5247ZM566.166 77.8496C573.098 77.8496 579.375 79.0798 585.01 81.5234L585.805 79.6885C579.89 77.1236 573.339 75.8496 566.166 75.8496V77.8496ZM585.013 81.5247C590.703 83.9705 595.59 87.5112 599.683 92.1531L601.183 90.8303C596.894 85.9663 591.765 82.2499 585.802 79.6872L585.013 81.5247ZM599.687 92.1576C603.83 96.7994 607.037 102.428 609.299 109.063L611.192 108.418C608.854 101.56 605.52 95.6898 601.179 90.8258L599.687 92.1576ZM609.302 109.072C611.609 115.641 612.772 123.141 612.772 131.585H614.772C614.772 122.96 613.584 115.229 611.189 108.409L609.302 109.072ZM591.544 136.875V131.432H589.544V136.875H591.544ZM591.544 131.432C591.544 125.446 591.002 120.152 589.907 115.561L587.961 116.025C589.012 120.429 589.544 125.561 589.544 131.432H591.544ZM589.907 115.561C588.812 110.973 587.185 107.072 585.007 103.883L583.355 105.011C585.367 107.956 586.91 111.618 587.961 116.025L589.907 115.561ZM585.007 103.883C582.826 100.692 580.147 98.273 576.968 96.6565L576.062 98.4392C578.913 99.8891 581.345 102.07 583.355 105.011L585.007 103.883ZM576.98 96.6626C573.802 94.9929 570.189 94.1714 566.166 94.1714V96.1714C569.911 96.1714 573.197 96.9342 576.05 98.4331L576.98 96.6626ZM566.166 94.1714C562.143 94.1714 558.529 94.9929 555.352 96.6626L556.282 98.4331C559.135 96.9342 562.421 96.1714 566.166 96.1714V94.1714ZM555.357 96.6596C552.23 98.2772 549.58 100.696 547.402 103.883L549.053 105.011C551.066 102.066 553.475 99.885 556.276 98.4361L555.357 96.6596ZM547.395 103.893C545.271 107.079 543.672 110.977 542.578 115.561L544.524 116.025C545.576 111.615 547.095 107.949 549.059 105.002L547.395 103.893ZM542.578 115.561C541.483 120.152 540.941 125.446 540.941 131.432H542.941C542.941 125.561 543.473 120.429 544.524 116.025L542.578 115.561ZM540.941 131.432V136.875H542.941V131.432H540.941ZM540.941 136.875C540.941 142.81 541.483 148.103 542.578 152.743L544.524 152.284C543.473 147.827 542.941 142.693 542.941 136.875H540.941ZM542.578 152.745C543.673 157.333 545.299 161.257 547.474 164.493L549.134 163.378C547.119 160.379 545.576 156.688 544.524 152.281L542.578 152.745ZM547.478 164.5C549.657 167.689 552.332 170.13 555.505 171.797L556.435 170.026C553.577 168.525 551.141 166.315 549.13 163.371L547.478 164.5ZM555.505 171.797C558.683 173.467 562.296 174.288 566.319 174.288V172.288C562.574 172.288 559.288 171.525 556.435 170.026L555.505 171.797ZM566.319 174.288C570.342 174.288 573.956 173.467 577.133 171.797L576.203 170.026C573.35 171.525 570.064 172.288 566.319 172.288V174.288ZM577.133 171.797C580.309 170.128 582.961 167.684 585.09 164.49L583.426 163.381C581.466 166.32 579.059 168.526 576.203 170.026L577.133 171.797ZM585.094 164.484C587.215 161.25 588.813 157.329 589.907 152.745L587.961 152.281C586.909 156.692 585.389 160.386 583.421 163.387L585.094 164.484ZM589.907 152.743C591.002 148.103 591.544 142.81 591.544 136.875H589.544C589.544 142.693 589.012 147.827 587.961 152.284L589.907 152.743Z" fill="#C4C4C4"/>
<defs>
<linearGradient id="paint0_linear_2270_134" x1="310" y1="85.5" x2="310" y2="195.5" gradientUnits="userSpaceOnUse">
<stop stop-color="#DF10BC"/>
<stop offset="1" stop-color="#3C4EF0"/>
</linearGradient>
</defs>
</svg>
