<svg width="1920" height="91" viewBox="0 0 1920 91" fill="none" xmlns="http://www.w3.org/2000/svg">
<path d="M773.995 64V27.6364H779.482V43.4389H797.61V27.6364H803.114V64H797.61V48.1442H779.482V64H773.995ZM822.166 64.5504C819.609 64.5504 817.378 63.9645 815.472 62.7926C813.567 61.6207 812.087 59.9813 811.033 57.8743C809.98 55.7673 809.453 53.3052 809.453 50.4879C809.453 47.6589 809.98 45.1849 811.033 43.0661C812.087 40.9472 813.567 39.3018 815.472 38.13C817.378 36.9581 819.609 36.3722 822.166 36.3722C824.723 36.3722 826.954 36.9581 828.86 38.13C830.766 39.3018 832.246 40.9472 833.299 43.0661C834.353 45.1849 834.879 47.6589 834.879 50.4879C834.879 53.3052 834.353 55.7673 833.299 57.8743C832.246 59.9813 830.766 61.6207 828.86 62.7926C826.954 63.9645 824.723 64.5504 822.166 64.5504ZM822.184 60.0938C823.841 60.0938 825.214 59.6558 826.303 58.7798C827.392 57.9039 828.197 56.7379 828.718 55.282C829.251 53.826 829.517 52.2221 829.517 50.4702C829.517 48.7301 829.251 47.1321 828.718 45.6761C828.197 44.2083 827.392 43.0305 826.303 42.1428C825.214 41.255 823.841 40.8111 822.184 40.8111C820.515 40.8111 819.13 41.255 818.029 42.1428C816.94 43.0305 816.129 44.2083 815.597 45.6761C815.076 47.1321 814.815 48.7301 814.815 50.4702C814.815 52.2221 815.076 53.826 815.597 55.282C816.129 56.7379 816.94 57.9039 818.029 58.7798C819.13 59.6558 820.515 60.0938 822.184 60.0938ZM845.888 64L837.862 36.7273H843.349L848.693 56.7557H848.96L854.322 36.7273H859.808L865.135 56.6669H865.401L870.71 36.7273H876.197L868.189 64H862.773L857.234 44.3089H856.825L851.286 64H845.888ZM894.467 64V36.7273H899.776V64H894.467ZM897.148 32.5192C896.225 32.5192 895.432 32.2114 894.769 31.5959C894.118 30.9685 893.793 30.2228 893.793 29.3587C893.793 28.4827 894.118 27.737 894.769 27.1214C895.432 26.4941 896.225 26.1804 897.148 26.1804C898.072 26.1804 898.859 26.4941 899.51 27.1214C900.173 27.737 900.504 28.4827 900.504 29.3587C900.504 30.2228 900.173 30.9685 899.51 31.5959C898.859 32.2114 898.072 32.5192 897.148 32.5192ZM919.649 36.7273V40.9886H904.752V36.7273H919.649ZM908.747 30.1932H914.056V55.9922C914.056 57.022 914.21 57.7973 914.518 58.3182C914.826 58.8272 915.222 59.1764 915.708 59.3658C916.205 59.5433 916.743 59.6321 917.323 59.6321C917.749 59.6321 918.122 59.6025 918.442 59.5433C918.762 59.4841 919.01 59.4368 919.188 59.4013L920.146 63.7869C919.839 63.9053 919.401 64.0237 918.833 64.142C918.264 64.2723 917.554 64.3433 916.702 64.3551C915.305 64.3788 914.003 64.1302 912.796 63.6094C911.588 63.0885 910.612 62.2836 909.866 61.1946C909.12 60.1056 908.747 58.7384 908.747 57.093V30.1932ZM944.667 64L936.642 36.7273H942.128L947.472 56.7557H947.739L953.101 36.7273H958.588L963.914 56.6669H964.181L969.49 36.7273H974.976L966.968 64H961.553L956.013 44.3089H955.605L950.065 64H944.667ZM990.672 64.5504C988.115 64.5504 985.884 63.9645 983.978 62.7926C982.072 61.6207 980.593 59.9813 979.539 57.8743C978.486 55.7673 977.959 53.3052 977.959 50.4879C977.959 47.6589 978.486 45.1849 979.539 43.0661C980.593 40.9472 982.072 39.3018 983.978 38.13C985.884 36.9581 988.115 36.3722 990.672 36.3722C993.229 36.3722 995.46 36.9581 997.366 38.13C999.272 39.3018 1000.75 40.9472 1001.8 43.0661C1002.86 45.1849 1003.39 47.6589 1003.39 50.4879C1003.39 53.3052 1002.86 55.7673 1001.8 57.8743C1000.75 59.9813 999.272 61.6207 997.366 62.7926C995.46 63.9645 993.229 64.5504 990.672 64.5504ZM990.69 60.0938C992.347 60.0938 993.72 59.6558 994.809 58.7798C995.898 57.9039 996.703 56.7379 997.224 55.282C997.757 53.826 998.023 52.2221 998.023 50.4702C998.023 48.7301 997.757 47.1321 997.224 45.6761C996.703 44.2083 995.898 43.0305 994.809 42.1428C993.72 41.255 992.347 40.8111 990.69 40.8111C989.021 40.8111 987.636 41.255 986.535 42.1428C985.446 43.0305 984.635 44.2083 984.102 45.6761C983.582 47.1321 983.321 48.7301 983.321 50.4702C983.321 52.2221 983.582 53.826 984.102 55.282C984.635 56.7379 985.446 57.9039 986.535 58.7798C987.636 59.6558 989.021 60.0938 990.69 60.0938ZM1009.31 64V36.7273H1014.44V41.0597H1014.73C1015.22 39.5919 1016.1 38.4377 1017.35 37.5973C1018.62 36.745 1020.05 36.3189 1021.65 36.3189C1021.98 36.3189 1022.37 36.3307 1022.82 36.3544C1023.28 36.3781 1023.65 36.4077 1023.91 36.4432V41.5213C1023.69 41.4621 1023.31 41.397 1022.77 41.326C1022.23 41.2431 1021.68 41.2017 1021.14 41.2017C1019.88 41.2017 1018.76 41.468 1017.78 42.0007C1016.81 42.5215 1016.04 43.2495 1015.47 44.1847C1014.9 45.108 1014.62 46.1615 1014.62 47.3452V64H1009.31ZM1033.38 54.7493L1033.35 48.2685H1034.27L1045.14 36.7273H1051.49L1039.1 49.8665H1038.27L1033.38 54.7493ZM1028.5 64V27.6364H1033.81V64H1028.5ZM1045.72 64L1035.96 51.0384L1039.62 47.3274L1052.24 64H1045.72ZM1076.77 43.3857L1071.96 44.2379C1071.76 43.6224 1071.44 43.0365 1071 42.4801C1070.57 41.9238 1069.99 41.468 1069.26 41.1129C1068.52 40.7578 1067.61 40.5803 1066.51 40.5803C1065 40.5803 1063.75 40.9176 1062.74 41.5923C1061.74 42.2552 1061.23 43.1134 1061.23 44.1669C1061.23 45.0784 1061.57 45.8123 1062.25 46.3686C1062.92 46.925 1064.01 47.3807 1065.51 47.7358L1069.84 48.7301C1072.35 49.3101 1074.22 50.2038 1075.46 51.4112C1076.69 52.6186 1077.3 54.187 1077.3 56.1165C1077.3 57.75 1076.83 59.206 1075.88 60.4844C1074.95 61.7509 1073.64 62.7453 1071.96 63.4673C1070.29 64.1894 1068.35 64.5504 1066.15 64.5504C1063.1 64.5504 1060.61 63.8994 1058.68 62.5973C1056.75 61.2834 1055.56 59.419 1055.13 57.0043L1060.26 56.223C1060.58 57.5606 1061.23 58.5727 1062.23 59.2592C1063.22 59.9339 1064.52 60.2713 1066.12 60.2713C1067.86 60.2713 1069.25 59.9103 1070.29 59.1882C1071.33 58.4543 1071.85 57.5606 1071.85 56.5071C1071.85 55.6548 1071.53 54.9387 1070.89 54.3587C1070.26 53.7786 1069.3 53.3407 1068 53.0447L1063.38 52.0327C1060.84 51.4527 1058.95 50.5294 1057.74 49.2628C1056.53 47.9962 1055.92 46.3923 1055.92 44.451C1055.92 42.8411 1056.37 41.4325 1057.27 40.2251C1058.17 39.0178 1059.42 38.0767 1061 37.402C1062.59 36.7154 1064.41 36.3722 1066.45 36.3722C1069.4 36.3722 1071.72 37.0114 1073.41 38.2898C1075.11 39.5563 1076.22 41.255 1076.77 43.3857Z" fill="white"/>
<g filter="url(#filter0_f_2309_92)">
<path d="M-2 40.4247L740 17V74L-2 50.5753V40.4247Z" fill="#F325F9"/>
</g>
<g filter="url(#filter1_f_2309_92)">
<path d="M1918 40.4247L1110 17V74L1918 50.5753V40.4247Z" fill="#F325F9"/>
</g>
<defs>
<filter id="filter0_f_2309_92" x="-19" y="0" width="776" height="91" filterUnits="userSpaceOnUse" color-interpolation-filters="sRGB">
<feFlood flood-opacity="0" result="BackgroundImageFix"/>
<feBlend mode="normal" in="SourceGraphic" in2="BackgroundImageFix" result="shape"/>
<feGaussianBlur stdDeviation="8.5" result="effect1_foregroundBlur_2309_92"/>
</filter>
<filter id="filter1_f_2309_92" x="1093" y="0" width="842" height="91" filterUnits="userSpaceOnUse" color-interpolation-filters="sRGB">
<feFlood flood-opacity="0" result="BackgroundImageFix"/>
<feBlend mode="normal" in="SourceGraphic" in2="BackgroundImageFix" result="shape"/>
<feGaussianBlur stdDeviation="8.5" result="effect1_foregroundBlur_2309_92"/>
</filter>
</defs>
</svg>
