<svg width="737" height="737" viewBox="0 0 737 737" fill="none" xmlns="http://www.w3.org/2000/svg">
<g filter="url(#filter0_f_519_42)">
<path d="M368.5 686C543.85 686 686 543.85 686 368.5C686 193.15 543.85 51 368.5 51C193.15 51 51 193.15 51 368.5C51 543.85 193.15 686 368.5 686Z" fill="url(#paint0_radial_519_42)"/>
</g>
<path d="M664.965 502.247C666.719 502.247 668.14 500.826 668.14 499.072C668.14 497.319 666.719 495.897 664.965 495.897C663.212 495.897 661.79 497.319 661.79 499.072C661.79 500.826 663.212 502.247 664.965 502.247Z" fill="url(#paint1_radial_519_42)"/>
<path d="M587.574 395.487C589.328 395.487 590.749 394.065 590.749 392.312C590.749 390.558 589.328 389.137 587.574 389.137C585.821 389.137 584.399 390.558 584.399 392.312C584.399 394.065 585.821 395.487 587.574 395.487Z" fill="url(#paint2_radial_519_42)"/>
<path d="M589.957 233.96C591.71 233.96 593.131 232.539 593.131 230.785C593.131 229.032 591.71 227.61 589.957 227.61C588.203 227.61 586.781 229.032 586.781 230.785C586.781 232.539 588.203 233.96 589.957 233.96Z" fill="url(#paint3_radial_519_42)"/>
<path d="M633.613 266.502C635.366 266.502 636.788 265.081 636.788 263.327C636.788 261.574 635.366 260.152 633.613 260.152C631.859 260.152 630.438 261.574 630.438 263.327C630.438 265.081 631.859 266.502 633.613 266.502Z" fill="url(#paint4_radial_519_42)"/>
<path d="M553.444 288.728C555.198 288.728 556.619 287.306 556.619 285.553C556.619 283.799 555.198 282.378 553.444 282.378C551.691 282.378 550.269 283.799 550.269 285.553C550.269 287.306 551.691 288.728 553.444 288.728Z" fill="url(#paint5_radial_519_42)"/>
<path d="M481.213 202.209C482.966 202.209 484.388 200.788 484.388 199.034C484.388 197.281 482.966 195.859 481.213 195.859C479.459 195.859 478.038 197.281 478.038 199.034C478.038 200.788 479.459 202.209 481.213 202.209Z" fill="url(#paint6_radial_519_42)"/>
<path d="M234.356 247.056C236.109 247.056 237.531 245.635 237.531 243.881C237.531 242.128 236.109 240.706 234.356 240.706C232.602 240.706 231.181 242.128 231.181 243.881C231.181 245.635 232.602 247.056 234.356 247.056Z" fill="url(#paint7_radial_519_42)"/>
<path d="M520.503 165.698C522.257 165.698 523.678 164.276 523.678 162.523C523.678 160.769 522.257 159.348 520.503 159.348C518.75 159.348 517.328 160.769 517.328 162.523C517.328 164.276 518.75 165.698 520.503 165.698Z" fill="url(#paint8_radial_519_42)"/>
<path d="M159.744 282.378C161.498 282.378 162.919 280.957 162.919 279.203C162.919 277.45 161.498 276.028 159.744 276.028C157.991 276.028 156.569 277.45 156.569 279.203C156.569 280.957 157.991 282.378 159.744 282.378Z" fill="url(#paint9_radial_519_42)"/>
<path d="M137.916 230.784C139.67 230.784 141.091 229.362 141.091 227.609C141.091 225.855 139.67 224.434 137.916 224.434C136.163 224.434 134.741 225.855 134.741 227.609C134.741 229.362 136.163 230.784 137.916 230.784Z" fill="url(#paint10_radial_519_42)"/>
<path d="M81.9565 291.905C83.71 291.905 85.1315 290.483 85.1315 288.73C85.1315 286.976 83.71 285.555 81.9565 285.555C80.203 285.555 78.7815 286.976 78.7815 288.73C78.7815 290.483 80.203 291.905 81.9565 291.905Z" fill="url(#paint11_radial_519_42)"/>
<path d="M560.984 567.334C562.737 567.334 564.159 565.913 564.159 564.159C564.159 562.406 562.737 560.984 560.984 560.984C559.23 560.984 557.809 562.406 557.809 564.159C557.809 565.913 559.23 567.334 560.984 567.334Z" fill="url(#paint12_radial_519_42)"/>
<path d="M495.104 457.4C496.857 457.4 498.279 455.978 498.279 454.225C498.279 452.471 496.857 451.05 495.104 451.05C493.35 451.05 491.929 452.471 491.929 454.225C491.929 455.978 493.35 457.4 495.104 457.4Z" fill="url(#paint13_radial_519_42)"/>
<path d="M141.487 410.172C143.241 410.172 144.662 408.751 144.662 406.997C144.662 405.244 143.241 403.822 141.487 403.822C139.734 403.822 138.312 405.244 138.312 406.997C138.312 408.751 139.734 410.172 141.487 410.172Z" fill="url(#paint14_radial_519_42)"/>
<path d="M216.894 398.662C218.647 398.662 220.069 397.241 220.069 395.488C220.069 393.734 218.647 392.312 216.894 392.312C215.14 392.312 213.719 393.734 213.719 395.488C213.719 397.241 215.14 398.662 216.894 398.662Z" fill="url(#paint15_radial_519_42)"/>
<path d="M174.031 600.67C175.784 600.67 177.206 599.249 177.206 597.495C177.206 595.742 175.784 594.32 174.031 594.32C172.277 594.32 170.856 595.742 170.856 597.495C170.856 599.249 172.277 600.67 174.031 600.67Z" fill="url(#paint16_radial_519_42)"/>
<path d="M503.436 541.536C504.313 541.536 505.024 540.826 505.024 539.949C505.024 539.072 504.313 538.361 503.436 538.361C502.56 538.361 501.849 539.072 501.849 539.949C501.849 540.826 502.56 541.536 503.436 541.536Z" fill="url(#paint17_radial_519_42)"/>
<path d="M583.605 483.197C584.482 483.197 585.192 482.486 585.192 481.609C585.192 480.732 584.482 480.021 583.605 480.021C582.728 480.021 582.017 480.732 582.017 481.609C582.017 482.486 582.728 483.197 583.605 483.197Z" fill="url(#paint18_radial_519_42)"/>
<path d="M652.662 405.013C653.539 405.013 654.25 404.302 654.25 403.425C654.25 402.549 653.539 401.838 652.662 401.838C651.785 401.838 651.075 402.549 651.075 403.425C651.075 404.302 651.785 405.013 652.662 405.013Z" fill="url(#paint19_radial_519_42)"/>
<path d="M187.525 525.265C188.402 525.265 189.112 524.554 189.112 523.677C189.112 522.801 188.402 522.09 187.525 522.09C186.648 522.09 185.937 522.801 185.937 523.677C185.937 524.554 186.648 525.265 187.525 525.265Z" fill="url(#paint20_radial_519_42)"/>
<path d="M184.35 475.656C185.227 475.656 185.937 474.946 185.937 474.069C185.937 473.192 185.227 472.481 184.35 472.481C183.473 472.481 182.762 473.192 182.762 474.069C182.762 474.946 183.473 475.656 184.35 475.656Z" fill="url(#paint21_radial_519_42)"/>
<path d="M108.15 458.988C109.027 458.988 109.738 458.278 109.738 457.401C109.738 456.524 109.027 455.813 108.15 455.813C107.273 455.813 106.563 456.524 106.563 457.401C106.563 458.278 107.273 458.988 108.15 458.988Z" fill="url(#paint22_radial_519_42)"/>
<path d="M494.396 321.015C494.467 320.99 494.531 320.946 494.581 320.889C512.71 300.353 527.171 281.264 537.101 264.757C547.044 248.227 552.239 234.627 552.376 224.771C552.513 214.914 547.588 209.002 537.897 207.388C528.233 205.779 514.025 208.478 496.121 215.322C496.023 215.36 495.935 215.422 495.867 215.501C495.437 216 495.965 216.748 496.582 216.52C513.209 210.38 526.455 208.001 535.589 209.522C545.151 211.114 550.009 216.947 549.874 226.671C549.739 236.396 544.614 249.814 534.803 266.122C525.201 282.084 511.305 300.495 493.914 320.298C493.612 320.642 493.964 321.168 494.396 321.015Z" fill="url(#paint23_linear_519_42)"/>
<path d="M298.646 247.754C298.609 247.689 298.555 247.633 298.491 247.594C275.119 233.305 253.807 222.38 235.828 215.468C217.822 208.546 203.527 205.791 193.796 207.368C184.065 208.945 179.098 214.821 179.192 224.646C179.286 234.442 184.411 247.965 194.26 264.408C194.314 264.498 194.39 264.575 194.48 264.629C195.046 264.965 195.691 264.315 195.359 263.747C186.426 248.439 181.782 235.807 181.694 226.547C181.602 216.855 186.502 211.057 196.103 209.502C205.703 207.946 219.807 210.664 237.571 217.493C254.957 224.177 275.502 234.666 298.024 248.354C298.416 248.592 298.872 248.153 298.646 247.754Z" fill="url(#paint24_linear_519_42)"/>
<path d="M433.425 485.305C433.462 485.37 433.516 485.425 433.581 485.465C456.953 499.753 478.264 510.679 496.244 517.591C514.249 524.513 528.544 527.268 538.275 525.691C548.006 524.114 552.973 518.238 552.88 508.413C552.786 498.617 547.661 485.094 537.811 468.65C537.757 468.56 537.681 468.484 537.591 468.43C537.025 468.094 536.381 468.744 536.713 469.312C545.645 484.62 550.288 497.252 550.377 506.511C550.47 516.204 545.569 522.001 535.969 523.557C526.369 525.113 512.265 522.395 494.5 515.565C477.113 508.882 456.569 498.393 434.048 484.705C433.655 484.467 433.199 484.906 433.425 485.305Z" fill="url(#paint25_linear_519_42)"/>
<path d="M236.886 412.258C236.815 412.282 236.751 412.326 236.702 412.383C218.572 432.919 204.112 452.009 194.182 468.515C184.239 485.046 179.044 498.645 178.906 508.502C178.77 518.359 183.695 524.27 193.386 525.884C203.05 527.493 217.257 524.794 235.162 517.95C235.26 517.912 235.347 517.85 235.416 517.771C235.846 517.272 235.318 516.524 234.7 516.753C218.074 522.892 204.827 525.271 195.693 523.751C186.132 522.159 181.274 516.326 181.408 506.601C181.543 496.876 186.669 483.458 196.48 467.15C206.081 451.188 219.978 432.777 237.368 412.974C237.671 412.63 237.318 412.104 236.886 412.258Z" fill="url(#paint26_linear_519_42)"/>
<g filter="url(#filter1_f_519_42)">
<circle cx="368.063" cy="368.937" r="80.447" stroke="#576F8F" stroke-width="40"/>
</g>
<g clip-path="url(#clip0_519_42)">
<path d="M309.86 289.393C301.515 291.161 293.948 297.454 290.801 305.268C288.715 310.359 288.821 306.753 288.821 379.305C288.821 452.034 288.715 448.357 290.836 453.378C293.488 459.671 298.969 465.151 305.298 467.803C310.284 469.925 306.642 469.818 379.342 469.818C451.228 469.818 448.187 469.889 453.032 468.015C459.113 465.611 464.806 460.131 467.6 453.943C469.827 448.993 469.651 454.827 469.792 380.543C469.863 319.8 469.827 312.728 469.332 310.218C467.211 299.717 459.043 291.514 448.576 289.357C446.136 288.862 438.817 288.792 379.094 288.827C321.21 288.862 312.017 288.933 309.86 289.393ZM387.899 321.355C390.94 322.027 393.486 323.441 395.784 325.74C399.249 329.205 400.558 332.74 400.558 338.822V342.18H395.254H389.95V338.998C389.95 335.038 389.243 333.377 387.121 332.281C385.883 331.644 385.035 331.573 379.271 331.573C373.649 331.573 372.623 331.644 371.563 332.245C369.123 333.518 368.062 336.912 369.37 339.246C369.689 339.847 376.973 347.802 385.565 356.924C394.122 366.011 401.618 374.037 402.22 374.709C405.862 378.987 408.903 385.457 410.317 392.034C411.272 396.418 411.201 405.186 410.211 409.57C407.029 423.183 398.224 433.295 386.52 436.654C382.595 437.785 376.089 437.785 372.164 436.654C359.717 433.083 350.205 421.415 348.048 406.989C346.493 396.701 348.685 388.003 354.837 379.765C359.364 373.719 365.693 369.441 374.851 366.223C376.725 365.551 378.281 364.915 378.281 364.809C378.281 364.703 374.462 360.566 369.83 355.616C365.163 350.666 360.884 345.787 360.283 344.832C355.085 336.205 360 324.184 369.795 321.532C372.234 320.896 385.105 320.754 387.899 321.355Z" fill="#223145"/>
<path d="M379.85 376.415C377.346 377.351 374.429 378.589 373.356 379.167C368.237 381.836 364.302 386.927 363.174 392.294C362.623 394.853 362.816 398.926 363.587 402.035C366.118 411.887 374.484 418.134 382.437 416.07C385.299 415.327 387.005 414.309 389.509 411.804C391.491 409.851 392.096 409.025 393.169 406.851C395.151 402.778 395.619 400.632 395.619 395.706C395.619 392.018 395.536 391.303 394.876 389.101C393.912 385.937 392.289 382.827 390.528 380.791C388.629 378.589 384.776 374.654 384.556 374.681C384.473 374.681 382.354 375.479 379.85 376.415Z" fill="#223145"/>
</g>
<defs>
<filter id="filter0_f_519_42" x="0.687599" y="0.687599" width="735.625" height="735.625" filterUnits="userSpaceOnUse" color-interpolation-filters="sRGB">
<feFlood flood-opacity="0" result="BackgroundImageFix"/>
<feBlend mode="normal" in="SourceGraphic" in2="BackgroundImageFix" result="shape"/>
<feGaussianBlur stdDeviation="25.1562" result="effect1_foregroundBlur_519_42"/>
</filter>
<filter id="filter1_f_519_42" x="207.616" y="208.49" width="320.894" height="320.895" filterUnits="userSpaceOnUse" color-interpolation-filters="sRGB">
<feFlood flood-opacity="0" result="BackgroundImageFix"/>
<feBlend mode="normal" in="SourceGraphic" in2="BackgroundImageFix" result="shape"/>
<feGaussianBlur stdDeviation="30" result="effect1_foregroundBlur_519_42"/>
</filter>
<radialGradient id="paint0_radial_519_42" cx="0" cy="0" r="1" gradientUnits="userSpaceOnUse" gradientTransform="translate(368.5 377.081) rotate(90) scale(308.919)">
<stop stop-color="white"/>
<stop offset="0.266145" stop-color="white"/>
<stop offset="0.595433" stop-color="#FFAE38"/>
<stop offset="0.616919" stop-color="#FF9560"/>
<stop offset="1" stop-color="#193749"/>
</radialGradient>
<radialGradient id="paint1_radial_519_42" cx="0" cy="0" r="1" gradientUnits="userSpaceOnUse" gradientTransform="translate(664.965 499.072) rotate(90) scale(3.175)">
<stop stop-color="white"/>
<stop offset="0.0001" stop-color="white"/>
<stop offset="0.287557" stop-color="white"/>
<stop offset="0.287657" stop-color="white" stop-opacity="0"/>
</radialGradient>
<radialGradient id="paint2_radial_519_42" cx="0" cy="0" r="1" gradientUnits="userSpaceOnUse" gradientTransform="translate(587.574 392.312) rotate(90) scale(3.175 3.17502)">
<stop stop-color="white"/>
<stop offset="0.0001" stop-color="white"/>
<stop offset="0.287557" stop-color="white"/>
<stop offset="0.287657" stop-color="white" stop-opacity="0"/>
</radialGradient>
<radialGradient id="paint3_radial_519_42" cx="0" cy="0" r="1" gradientUnits="userSpaceOnUse" gradientTransform="translate(589.956 230.785) rotate(90) scale(3.17501 3.175)">
<stop stop-color="white"/>
<stop offset="0.0001" stop-color="white"/>
<stop offset="0.287557" stop-color="white"/>
<stop offset="0.287657" stop-color="white" stop-opacity="0"/>
</radialGradient>
<radialGradient id="paint4_radial_519_42" cx="0" cy="0" r="1" gradientUnits="userSpaceOnUse" gradientTransform="translate(633.613 263.327) rotate(90) scale(3.17501 3.175)">
<stop stop-color="white"/>
<stop offset="0.0001" stop-color="white"/>
<stop offset="0.287557" stop-color="white"/>
<stop offset="0.287657" stop-color="white" stop-opacity="0"/>
</radialGradient>
<radialGradient id="paint5_radial_519_42" cx="0" cy="0" r="1" gradientUnits="userSpaceOnUse" gradientTransform="translate(553.444 285.553) rotate(90) scale(3.17501 3.175)">
<stop stop-color="white"/>
<stop offset="0.0001" stop-color="white"/>
<stop offset="0.287557" stop-color="white"/>
<stop offset="0.287657" stop-color="white" stop-opacity="0"/>
</radialGradient>
<radialGradient id="paint6_radial_519_42" cx="0" cy="0" r="1" gradientUnits="userSpaceOnUse" gradientTransform="translate(481.213 199.034) rotate(90) scale(3.17501 3.17502)">
<stop stop-color="white"/>
<stop offset="0.0001" stop-color="white"/>
<stop offset="0.287557" stop-color="white"/>
<stop offset="0.287657" stop-color="white" stop-opacity="0"/>
</radialGradient>
<radialGradient id="paint7_radial_519_42" cx="0" cy="0" r="1" gradientUnits="userSpaceOnUse" gradientTransform="translate(234.356 243.881) rotate(90) scale(3.17501 3.175)">
<stop stop-color="white"/>
<stop offset="0.0001" stop-color="white"/>
<stop offset="0.287557" stop-color="white"/>
<stop offset="0.287657" stop-color="white" stop-opacity="0"/>
</radialGradient>
<radialGradient id="paint8_radial_519_42" cx="0" cy="0" r="1" gradientUnits="userSpaceOnUse" gradientTransform="translate(520.503 162.523) rotate(90) scale(3.175 3.175)">
<stop stop-color="white"/>
<stop offset="0.0001" stop-color="white"/>
<stop offset="0.287557" stop-color="white"/>
<stop offset="0.287657" stop-color="white" stop-opacity="0"/>
</radialGradient>
<radialGradient id="paint9_radial_519_42" cx="0" cy="0" r="1" gradientUnits="userSpaceOnUse" gradientTransform="translate(159.744 279.203) rotate(90) scale(3.17501 3.175)">
<stop stop-color="white"/>
<stop offset="0.0001" stop-color="white"/>
<stop offset="0.287557" stop-color="white"/>
<stop offset="0.287657" stop-color="white" stop-opacity="0"/>
</radialGradient>
<radialGradient id="paint10_radial_519_42" cx="0" cy="0" r="1" gradientUnits="userSpaceOnUse" gradientTransform="translate(137.916 227.609) rotate(90) scale(3.17501 3.175)">
<stop stop-color="white"/>
<stop offset="0.0001" stop-color="white"/>
<stop offset="0.287557" stop-color="white"/>
<stop offset="0.287657" stop-color="white" stop-opacity="0"/>
</radialGradient>
<radialGradient id="paint11_radial_519_42" cx="0" cy="0" r="1" gradientUnits="userSpaceOnUse" gradientTransform="translate(81.9565 288.73) rotate(90) scale(3.17501 3.175)">
<stop stop-color="white"/>
<stop offset="0.0001" stop-color="white"/>
<stop offset="0.287557" stop-color="white"/>
<stop offset="0.287657" stop-color="white" stop-opacity="0"/>
</radialGradient>
<radialGradient id="paint12_radial_519_42" cx="0" cy="0" r="1" gradientUnits="userSpaceOnUse" gradientTransform="translate(560.984 564.159) rotate(90) scale(3.175)">
<stop stop-color="white"/>
<stop offset="0.0001" stop-color="white"/>
<stop offset="0.287557" stop-color="white"/>
<stop offset="0.287657" stop-color="white" stop-opacity="0"/>
</radialGradient>
<radialGradient id="paint13_radial_519_42" cx="0" cy="0" r="1" gradientUnits="userSpaceOnUse" gradientTransform="translate(495.104 454.225) rotate(90) scale(3.175)">
<stop stop-color="white"/>
<stop offset="0.0001" stop-color="white"/>
<stop offset="0.287557" stop-color="white"/>
<stop offset="0.287657" stop-color="white" stop-opacity="0"/>
</radialGradient>
<radialGradient id="paint14_radial_519_42" cx="0" cy="0" r="1" gradientUnits="userSpaceOnUse" gradientTransform="translate(141.488 406.997) rotate(90) scale(3.17502 3.175)">
<stop stop-color="white"/>
<stop offset="0.0001" stop-color="white"/>
<stop offset="0.287557" stop-color="white"/>
<stop offset="0.287657" stop-color="white" stop-opacity="0"/>
</radialGradient>
<radialGradient id="paint15_radial_519_42" cx="0" cy="0" r="1" gradientUnits="userSpaceOnUse" gradientTransform="translate(216.894 395.487) rotate(90) scale(3.175)">
<stop stop-color="white"/>
<stop offset="0.0001" stop-color="white"/>
<stop offset="0.287557" stop-color="white"/>
<stop offset="0.287657" stop-color="white" stop-opacity="0"/>
</radialGradient>
<radialGradient id="paint16_radial_519_42" cx="0" cy="0" r="1" gradientUnits="userSpaceOnUse" gradientTransform="translate(174.031 597.495) rotate(90) scale(3.17502 3.175)">
<stop stop-color="white"/>
<stop offset="0.0001" stop-color="white"/>
<stop offset="0.287557" stop-color="white"/>
<stop offset="0.287657" stop-color="white" stop-opacity="0"/>
</radialGradient>
<radialGradient id="paint17_radial_519_42" cx="0" cy="0" r="1" gradientUnits="userSpaceOnUse" gradientTransform="translate(503.436 539.949) rotate(90) scale(1.58751 1.58749)">
<stop stop-color="white"/>
<stop offset="0.0001" stop-color="white"/>
<stop offset="0.287557" stop-color="white"/>
<stop offset="0.287657" stop-color="white" stop-opacity="0"/>
</radialGradient>
<radialGradient id="paint18_radial_519_42" cx="0" cy="0" r="1" gradientUnits="userSpaceOnUse" gradientTransform="translate(583.605 481.609) rotate(90) scale(1.58751)">
<stop stop-color="white"/>
<stop offset="0.0001" stop-color="white"/>
<stop offset="0.287557" stop-color="white"/>
<stop offset="0.287657" stop-color="white" stop-opacity="0"/>
</radialGradient>
<radialGradient id="paint19_radial_519_42" cx="0" cy="0" r="1" gradientUnits="userSpaceOnUse" gradientTransform="translate(652.662 403.425) rotate(90) scale(1.58749 1.58751)">
<stop stop-color="white"/>
<stop offset="0.0001" stop-color="white"/>
<stop offset="0.287557" stop-color="white"/>
<stop offset="0.287657" stop-color="white" stop-opacity="0"/>
</radialGradient>
<radialGradient id="paint20_radial_519_42" cx="0" cy="0" r="1" gradientUnits="userSpaceOnUse" gradientTransform="translate(187.525 523.677) rotate(90) scale(1.58751 1.5875)">
<stop stop-color="white"/>
<stop offset="0.0001" stop-color="white"/>
<stop offset="0.287557" stop-color="white"/>
<stop offset="0.287657" stop-color="white" stop-opacity="0"/>
</radialGradient>
<radialGradient id="paint21_radial_519_42" cx="0" cy="0" r="1" gradientUnits="userSpaceOnUse" gradientTransform="translate(184.35 474.069) rotate(90) scale(1.58749 1.5875)">
<stop stop-color="white"/>
<stop offset="0.0001" stop-color="white"/>
<stop offset="0.287557" stop-color="white"/>
<stop offset="0.287657" stop-color="white" stop-opacity="0"/>
</radialGradient>
<radialGradient id="paint22_radial_519_42" cx="0" cy="0" r="1" gradientUnits="userSpaceOnUse" gradientTransform="translate(108.15 457.401) rotate(90) scale(1.58751 1.5875)">
<stop stop-color="white"/>
<stop offset="0.0001" stop-color="white"/>
<stop offset="0.287557" stop-color="white"/>
<stop offset="0.287657" stop-color="white" stop-opacity="0"/>
</radialGradient>
<linearGradient id="paint23_linear_519_42" x1="495.029" y1="215.687" x2="494.834" y2="326.77" gradientUnits="userSpaceOnUse">
<stop stop-color="#FFDDAC"/>
<stop offset="0.0838498" stop-color="white"/>
<stop offset="1" stop-color="white" stop-opacity="0"/>
</linearGradient>
<linearGradient id="paint24_linear_519_42" x1="194.809" y1="265.421" x2="304.239" y2="246.324" gradientUnits="userSpaceOnUse">
<stop stop-color="#FFDDAC"/>
<stop offset="0.0838498" stop-color="white"/>
<stop offset="1" stop-color="white" stop-opacity="0"/>
</linearGradient>
<linearGradient id="paint25_linear_519_42" x1="537.262" y1="467.638" x2="427.833" y2="486.735" gradientUnits="userSpaceOnUse">
<stop stop-color="#FFDDAC"/>
<stop offset="0.0838498" stop-color="white"/>
<stop offset="1" stop-color="white" stop-opacity="0"/>
</linearGradient>
<linearGradient id="paint26_linear_519_42" x1="236.254" y1="517.586" x2="236.448" y2="406.502" gradientUnits="userSpaceOnUse">
<stop stop-color="#FFDDAC"/>
<stop offset="0.0838498" stop-color="white"/>
<stop offset="1" stop-color="white" stop-opacity="0"/>
</linearGradient>
<clipPath id="clip0_519_42">
<rect x="293.82" y="293.819" width="149.36" height="149.36" rx="74.6802" fill="white"/>
</clipPath>
</defs>
</svg>
