<svg width="1954" height="107" viewBox="0 0 1954 107" fill="none" xmlns="http://www.w3.org/2000/svg">
<path d="M616.794 75V31.3636H632.348C635.743 31.3636 638.555 31.9815 640.786 33.2173C643.016 34.4531 644.685 36.1435 645.793 38.2884C646.901 40.419 647.455 42.8196 647.455 45.4901C647.455 48.1747 646.893 50.5895 645.771 52.7344C644.663 54.8651 642.987 56.5554 640.743 57.8054C638.513 59.0412 635.707 59.6591 632.327 59.6591H621.631V54.0767H631.73C633.875 54.0767 635.615 53.7074 636.95 52.9688C638.286 52.2159 639.266 51.1932 639.891 49.9006C640.516 48.608 640.828 47.1378 640.828 45.4901C640.828 43.8423 640.516 42.3793 639.891 41.1009C639.266 39.8224 638.278 38.821 636.929 38.0966C635.594 37.3722 633.832 37.0099 631.645 37.0099H623.378V75H616.794ZM663.893 75.7244C661.819 75.7244 659.944 75.3409 658.268 74.5739C656.592 73.7926 655.263 72.6634 654.283 71.1861C653.317 69.7088 652.835 67.8977 652.835 65.7528C652.835 63.9062 653.19 62.3864 653.9 61.1932C654.61 60 655.569 59.0554 656.776 58.3594C657.984 57.6634 659.333 57.1378 660.825 56.7827C662.316 56.4276 663.836 56.1577 665.384 55.973C667.344 55.7457 668.935 55.5611 670.157 55.419C671.379 55.2628 672.266 55.0142 672.82 54.6733C673.374 54.3324 673.651 53.7784 673.651 53.0114V52.8622C673.651 51.0014 673.126 49.5597 672.075 48.5369C671.038 47.5142 669.489 47.0028 667.43 47.0028C665.285 47.0028 663.594 47.4787 662.359 48.4304C661.137 49.3679 660.292 50.4119 659.823 51.5625L653.836 50.1989C654.546 48.2102 655.583 46.6051 656.947 45.3835C658.325 44.1477 659.908 43.2528 661.698 42.6989C663.488 42.1307 665.37 41.8466 667.344 41.8466C668.651 41.8466 670.036 42.0028 671.499 42.3153C672.977 42.6136 674.354 43.1676 675.633 43.9773C676.925 44.7869 677.984 45.9446 678.808 47.4503C679.631 48.9418 680.043 50.8807 680.043 53.267V75H673.822V70.5256H673.566C673.154 71.3494 672.536 72.1591 671.712 72.9545C670.888 73.75 669.83 74.4105 668.538 74.9361C667.245 75.4616 665.697 75.7244 663.893 75.7244ZM665.278 70.6108C667.039 70.6108 668.545 70.2628 669.795 69.5668C671.059 68.8707 672.018 67.9616 672.671 66.8395C673.339 65.7031 673.673 64.4886 673.673 63.196V58.9773C673.445 59.2045 673.005 59.4176 672.352 59.6165C671.712 59.8011 670.981 59.9645 670.157 60.1065C669.333 60.2344 668.531 60.3551 667.749 60.4688C666.968 60.5682 666.315 60.6534 665.789 60.7244C664.553 60.8807 663.424 61.1435 662.401 61.5128C661.393 61.8821 660.583 62.4148 659.972 63.1108C659.376 63.7926 659.077 64.7017 659.077 65.8381C659.077 67.4148 659.66 68.608 660.825 69.4176C661.989 70.2131 663.474 70.6108 665.278 70.6108ZM688.529 75V42.2727H694.686V47.4716H695.027C695.624 45.7102 696.675 44.3253 698.181 43.3168C699.701 42.294 701.419 41.7827 703.337 41.7827C703.735 41.7827 704.203 41.7969 704.743 41.8253C705.297 41.8537 705.73 41.8892 706.043 41.9318V48.0256C705.787 47.9545 705.333 47.8764 704.679 47.7912C704.026 47.6918 703.373 47.642 702.719 47.642C701.213 47.642 699.871 47.9616 698.692 48.6009C697.527 49.2259 696.604 50.0994 695.922 51.2216C695.24 52.3295 694.9 53.5937 694.9 55.0142V75H688.529ZM728.767 42.2727V47.3864H710.89V42.2727H728.767ZM715.684 34.4318H722.055V65.3906C722.055 66.6264 722.24 67.5568 722.609 68.1818C722.978 68.7926 723.454 69.2116 724.037 69.4389C724.633 69.652 725.279 69.7585 725.975 69.7585C726.487 69.7585 726.934 69.723 727.318 69.652C727.701 69.581 728 69.5241 728.213 69.4815L729.363 74.7443C728.994 74.8864 728.468 75.0284 727.787 75.1705C727.105 75.3267 726.252 75.4119 725.23 75.4261C723.554 75.4545 721.991 75.1562 720.542 74.5312C719.093 73.9062 717.922 72.9403 717.027 71.6335C716.132 70.3267 715.684 68.6861 715.684 66.7116V34.4318ZM742.185 55.5682V75H735.814V42.2727H741.929V47.5994H742.334C743.087 45.8665 744.266 44.4744 745.871 43.4233C747.49 42.3722 749.528 41.8466 751.986 41.8466C754.216 41.8466 756.169 42.3153 757.845 43.2528C759.521 44.1761 760.821 45.554 761.744 47.3864C762.668 49.2187 763.129 51.4844 763.129 54.1832V75H756.759V54.9503C756.759 52.5781 756.141 50.7244 754.905 49.3892C753.669 48.0398 751.972 47.3651 749.812 47.3651C748.335 47.3651 747.021 47.6847 745.871 48.3239C744.734 48.9631 743.832 49.9006 743.165 51.1364C742.511 52.358 742.185 53.8352 742.185 55.5682ZM785.778 75.6605C782.554 75.6605 779.777 74.9716 777.447 73.5938C775.132 72.2017 773.342 70.2486 772.078 67.7344C770.828 65.206 770.203 62.2443 770.203 58.8494C770.203 55.4972 770.828 52.5426 772.078 49.9858C773.342 47.429 775.104 45.4332 777.362 43.9986C779.635 42.5639 782.291 41.8466 785.331 41.8466C787.178 41.8466 788.967 42.152 790.7 42.7628C792.433 43.3736 793.989 44.3324 795.366 45.6392C796.744 46.946 797.831 48.6435 798.626 50.7315C799.422 52.8054 799.82 55.3267 799.82 58.2955V60.554H773.804V55.7812H793.577C793.577 54.1051 793.236 52.6207 792.554 51.3281C791.872 50.0213 790.913 48.9915 789.678 48.2386C788.456 47.4858 787.021 47.1094 785.374 47.1094C783.584 47.1094 782.021 47.5497 780.686 48.4304C779.365 49.2969 778.342 50.4332 777.618 51.8395C776.908 53.2315 776.553 54.7443 776.553 56.3778V60.1065C776.553 62.294 776.936 64.1548 777.703 65.6889C778.484 67.223 779.571 68.3949 780.963 69.2045C782.355 70 783.982 70.3977 785.842 70.3977C787.05 70.3977 788.151 70.2273 789.145 69.8864C790.139 69.5312 790.999 69.0057 791.723 68.3097C792.447 67.6136 793.001 66.7543 793.385 65.7315L799.415 66.8182C798.932 68.5937 798.065 70.1491 796.815 71.4844C795.58 72.8054 794.024 73.8352 792.149 74.5739C790.288 75.2983 788.165 75.6605 785.778 75.6605ZM806.888 75V42.2727H813.046V47.4716H813.387C813.983 45.7102 815.034 44.3253 816.54 43.3168C818.06 42.294 819.779 41.7827 821.696 41.7827C822.094 41.7827 822.563 41.7969 823.103 41.8253C823.657 41.8537 824.09 41.8892 824.402 41.9318V48.0256C824.147 47.9545 823.692 47.8764 823.039 47.7912C822.385 47.6918 821.732 47.642 821.078 47.642C819.573 47.642 818.23 47.9616 817.051 48.6009C815.887 49.2259 814.963 50.0994 814.282 51.2216C813.6 52.3295 813.259 53.5937 813.259 55.0142V75H806.888ZM854.44 50.2628L848.665 51.2855C848.424 50.5469 848.04 49.8437 847.515 49.1761C847.004 48.5085 846.308 47.9616 845.427 47.5355C844.546 47.1094 843.445 46.8963 842.124 46.8963C840.32 46.8963 838.815 47.3011 837.607 48.1108C836.4 48.9062 835.796 49.9361 835.796 51.2003C835.796 52.294 836.201 53.1747 837.011 53.8423C837.82 54.5099 839.127 55.0568 840.931 55.483L846.13 56.6761C849.141 57.3722 851.386 58.4446 852.863 59.8935C854.34 61.3423 855.079 63.2244 855.079 65.5398C855.079 67.5 854.511 69.2472 853.374 70.7812C852.252 72.3011 850.683 73.4943 848.665 74.3608C846.663 75.2273 844.34 75.6605 841.698 75.6605C838.033 75.6605 835.043 74.8793 832.728 73.3168C830.413 71.7401 828.992 69.5028 828.467 66.6051L834.624 65.6676C835.008 67.2727 835.796 68.4872 836.989 69.3111C838.183 70.1207 839.738 70.5256 841.656 70.5256C843.744 70.5256 845.413 70.0923 846.663 69.2259C847.913 68.3452 848.538 67.2727 848.538 66.0085C848.538 64.9858 848.154 64.1264 847.387 63.4304C846.634 62.7344 845.477 62.2088 843.914 61.8537L838.374 60.6392C835.32 59.9432 833.062 58.8352 831.599 57.3153C830.15 55.7955 829.425 53.8707 829.425 51.5412C829.425 49.6094 829.965 47.919 831.045 46.4702C832.124 45.0213 833.616 43.892 835.519 43.0824C837.423 42.2585 839.603 41.8466 842.06 41.8466C845.597 41.8466 848.381 42.6136 850.413 44.1477C852.444 45.6676 853.786 47.706 854.44 50.2628ZM887.487 75.7244C885.413 75.7244 883.538 75.3409 881.862 74.5739C880.185 73.7926 878.857 72.6634 877.877 71.1861C876.911 69.7088 876.428 67.8977 876.428 65.7528C876.428 63.9062 876.783 62.3864 877.494 61.1932C878.204 60 879.163 59.0554 880.37 58.3594C881.577 57.6634 882.927 57.1378 884.418 56.7827C885.91 56.4276 887.43 56.1577 888.978 55.973C890.938 55.7457 892.529 55.5611 893.751 55.419C894.972 55.2628 895.86 55.0142 896.414 54.6733C896.968 54.3324 897.245 53.7784 897.245 53.0114V52.8622C897.245 51.0014 896.719 49.5597 895.668 48.5369C894.631 47.5142 893.083 47.0028 891.023 47.0028C888.879 47.0028 887.188 47.4787 885.952 48.4304C884.731 49.3679 883.886 50.4119 883.417 51.5625L877.43 50.1989C878.14 48.2102 879.177 46.6051 880.54 45.3835C881.918 44.1477 883.502 43.2528 885.292 42.6989C887.082 42.1307 888.964 41.8466 890.938 41.8466C892.245 41.8466 893.63 42.0028 895.093 42.3153C896.57 42.6136 897.948 43.1676 899.227 43.9773C900.519 44.7869 901.577 45.9446 902.401 47.4503C903.225 48.9418 903.637 50.8807 903.637 53.267V75H897.415V70.5256H897.16C896.748 71.3494 896.13 72.1591 895.306 72.9545C894.482 73.75 893.424 74.4105 892.131 74.9361C890.839 75.4616 889.29 75.7244 887.487 75.7244ZM888.871 70.6108C890.633 70.6108 892.138 70.2628 893.388 69.5668C894.653 68.8707 895.612 67.9616 896.265 66.8395C896.933 65.7031 897.266 64.4886 897.266 63.196V58.9773C897.039 59.2045 896.599 59.4176 895.945 59.6165C895.306 59.8011 894.575 59.9645 893.751 60.1065C892.927 60.2344 892.124 60.3551 891.343 60.4688C890.562 60.5682 889.908 60.6534 889.383 60.7244C888.147 60.8807 887.018 61.1435 885.995 61.5128C884.987 61.8821 884.177 62.4148 883.566 63.1108C882.969 63.7926 882.671 64.7017 882.671 65.8381C882.671 67.4148 883.254 68.608 884.418 69.4176C885.583 70.2131 887.067 70.6108 888.871 70.6108ZM918.493 55.5682V75H912.123V42.2727H918.238V47.5994H918.642C919.395 45.8665 920.574 44.4744 922.179 43.4233C923.799 42.3722 925.837 41.8466 928.294 41.8466C930.525 41.8466 932.478 42.3153 934.154 43.2528C935.83 44.1761 937.13 45.554 938.053 47.3864C938.976 49.2187 939.438 51.4844 939.438 54.1832V75H933.067V54.9503C933.067 52.5781 932.449 50.7244 931.213 49.3892C929.978 48.0398 928.28 47.3651 926.121 47.3651C924.644 47.3651 923.33 47.6847 922.179 48.3239C921.043 48.9631 920.141 49.9006 919.473 51.1364C918.82 52.358 918.493 53.8352 918.493 55.5682ZM960.233 75.6392C957.591 75.6392 955.233 74.9645 953.159 73.6151C951.1 72.2514 949.48 70.3125 948.301 67.7983C947.137 65.2699 946.554 62.2372 946.554 58.7003C946.554 55.1634 947.144 52.1378 948.323 49.6236C949.516 47.1094 951.15 45.1847 953.223 43.8494C955.297 42.5142 957.648 41.8466 960.276 41.8466C962.307 41.8466 963.941 42.1875 965.176 42.8693C966.426 43.5369 967.392 44.3182 968.074 45.2131C968.77 46.108 969.31 46.8963 969.694 47.5781H970.077V31.3636H976.448V75H970.226V69.9077H969.694C969.31 70.6037 968.756 71.3991 968.032 72.294C967.321 73.1889 966.341 73.9702 965.091 74.6378C963.841 75.3054 962.222 75.6392 960.233 75.6392ZM961.64 70.206C963.472 70.206 965.02 69.723 966.284 68.7571C967.563 67.777 968.529 66.4205 969.182 64.6875C969.85 62.9545 970.184 60.9375 970.184 58.6364C970.184 56.3636 969.857 54.375 969.203 52.6705C968.55 50.9659 967.591 49.6378 966.327 48.6861C965.063 47.7344 963.5 47.2585 961.64 47.2585C959.722 47.2585 958.124 47.7557 956.846 48.75C955.567 49.7443 954.601 51.1009 953.948 52.8196C953.309 54.5384 952.989 56.4773 952.989 58.6364C952.989 60.8239 953.316 62.7912 953.969 64.5384C954.623 66.2855 955.588 67.6705 956.867 68.6932C958.159 69.7017 959.75 70.206 961.64 70.206ZM1008.51 31.3636V75H1001.93V31.3636H1008.51ZM1023.96 55.5682V75H1017.59V42.2727H1023.71V47.5994H1024.11C1024.86 45.8665 1026.04 44.4744 1027.65 43.4233C1029.27 42.3722 1031.31 41.8466 1033.76 41.8466C1035.99 41.8466 1037.95 42.3153 1039.62 43.2528C1041.3 44.1761 1042.6 45.554 1043.52 47.3864C1044.44 49.2187 1044.91 51.4844 1044.91 54.1832V75H1038.54V54.9503C1038.54 52.5781 1037.92 50.7244 1036.68 49.3892C1035.45 48.0398 1033.75 47.3651 1031.59 47.3651C1030.11 47.3651 1028.8 47.6847 1027.65 48.3239C1026.51 48.9631 1025.61 49.9006 1024.94 51.1364C1024.29 52.358 1023.96 53.8352 1023.96 55.5682ZM1068.73 42.2727V47.3864H1050.85V42.2727H1068.73ZM1055.65 34.4318H1062.02V65.3906C1062.02 66.6264 1062.2 67.5568 1062.57 68.1818C1062.94 68.7926 1063.42 69.2116 1064 69.4389C1064.59 69.652 1065.24 69.7585 1065.94 69.7585C1066.45 69.7585 1066.9 69.723 1067.28 69.652C1067.66 69.581 1067.96 69.5241 1068.17 69.4815L1069.32 74.7443C1068.95 74.8864 1068.43 75.0284 1067.75 75.1705C1067.07 75.3267 1066.21 75.4119 1065.19 75.4261C1063.51 75.4545 1061.95 75.1562 1060.5 74.5312C1059.05 73.9062 1057.88 72.9403 1056.99 71.6335C1056.09 70.3267 1055.65 68.6861 1055.65 66.7116V34.4318ZM1089.53 75.6605C1086.3 75.6605 1083.53 74.9716 1081.2 73.5938C1078.88 72.2017 1077.09 70.2486 1075.83 67.7344C1074.58 65.206 1073.95 62.2443 1073.95 58.8494C1073.95 55.4972 1074.58 52.5426 1075.83 49.9858C1077.09 47.429 1078.85 45.4332 1081.11 43.9986C1083.38 42.5639 1086.04 41.8466 1089.08 41.8466C1090.93 41.8466 1092.72 42.152 1094.45 42.7628C1096.18 43.3736 1097.74 44.3324 1099.12 45.6392C1100.49 46.946 1101.58 48.6435 1102.38 50.7315C1103.17 52.8054 1103.57 55.3267 1103.57 58.2955V60.554H1077.55V55.7812H1097.33C1097.33 54.1051 1096.99 52.6207 1096.3 51.3281C1095.62 50.0213 1094.66 48.9915 1093.43 48.2386C1092.21 47.4858 1090.77 47.1094 1089.12 47.1094C1087.33 47.1094 1085.77 47.5497 1084.44 48.4304C1083.12 49.2969 1082.09 50.4332 1081.37 51.8395C1080.66 53.2315 1080.3 54.7443 1080.3 56.3778V60.1065C1080.3 62.294 1080.69 64.1548 1081.45 65.6889C1082.23 67.223 1083.32 68.3949 1084.71 69.2045C1086.11 70 1087.73 70.3977 1089.59 70.3977C1090.8 70.3977 1091.9 70.2273 1092.89 69.8864C1093.89 69.5312 1094.75 69.0057 1095.47 68.3097C1096.2 67.6136 1096.75 66.7543 1097.13 65.7315L1103.16 66.8182C1102.68 68.5937 1101.82 70.1491 1100.57 71.4844C1099.33 72.8054 1097.77 73.8352 1095.9 74.5739C1094.04 75.2983 1091.91 75.6605 1089.53 75.6605ZM1124.36 87.9545C1121.76 87.9545 1119.52 87.6136 1117.65 86.9318C1115.79 86.25 1114.27 85.348 1113.09 84.2259C1111.91 83.1037 1111.03 81.875 1110.45 80.5398L1115.92 78.2812C1116.31 78.9062 1116.82 79.5668 1117.46 80.2628C1118.11 80.973 1118.99 81.5767 1120.1 82.0739C1121.22 82.571 1122.66 82.8196 1124.42 82.8196C1126.84 82.8196 1128.83 82.2301 1130.41 81.0511C1131.99 79.8864 1132.78 78.0256 1132.78 75.4688V69.0341H1132.37C1131.99 69.7301 1131.43 70.5043 1130.71 71.3565C1130 72.2088 1129.02 72.9474 1127.77 73.5724C1126.52 74.1974 1124.89 74.5099 1122.89 74.5099C1120.3 74.5099 1117.97 73.9062 1115.9 72.6989C1113.84 71.4773 1112.21 69.6804 1111 67.3082C1109.81 64.9219 1109.21 61.9886 1109.21 58.5085C1109.21 55.0284 1109.8 52.0455 1110.98 49.5597C1112.17 47.0739 1113.81 45.1705 1115.88 43.8494C1117.95 42.5142 1120.3 41.8466 1122.93 41.8466C1124.96 41.8466 1126.6 42.1875 1127.85 42.8693C1129.1 43.5369 1130.08 44.3182 1130.77 45.2131C1131.48 46.108 1132.03 46.8963 1132.41 47.5781H1132.88V42.2727H1139.13V75.7244C1139.13 78.5369 1138.47 80.8452 1137.17 82.6491C1135.86 84.4531 1134.09 85.7884 1131.86 86.6548C1129.64 87.5213 1127.14 87.9545 1124.36 87.9545ZM1124.3 69.2259C1126.13 69.2259 1127.68 68.7997 1128.94 67.9474C1130.22 67.081 1131.19 65.8452 1131.84 64.2401C1132.51 62.6207 1132.84 60.6818 1132.84 58.4233C1132.84 56.2216 1132.51 54.2827 1131.86 52.6065C1131.21 50.9304 1130.25 49.6236 1128.98 48.6861C1127.72 47.7344 1126.16 47.2585 1124.3 47.2585C1122.38 47.2585 1120.78 47.7557 1119.5 48.75C1118.22 49.7301 1117.26 51.0653 1116.6 52.7557C1115.96 54.446 1115.65 56.3352 1115.65 58.4233C1115.65 60.5682 1115.97 62.4503 1116.63 64.0696C1117.28 65.6889 1118.24 66.9531 1119.52 67.8622C1120.82 68.7713 1122.41 69.2259 1124.3 69.2259ZM1147.67 75V42.2727H1153.83V47.4716H1154.17C1154.76 45.7102 1155.82 44.3253 1157.32 43.3168C1158.84 42.294 1160.56 41.7827 1162.48 41.7827C1162.88 41.7827 1163.34 41.7969 1163.88 41.8253C1164.44 41.8537 1164.87 41.8892 1165.18 41.9318V48.0256C1164.93 47.9545 1164.47 47.8764 1163.82 47.7912C1163.17 47.6918 1162.51 47.642 1161.86 47.642C1160.35 47.642 1159.01 47.9616 1157.83 48.6009C1156.67 49.2259 1155.74 50.0994 1155.06 51.2216C1154.38 52.3295 1154.04 53.5937 1154.04 55.0142V75H1147.67ZM1179.93 75.7244C1177.85 75.7244 1175.98 75.3409 1174.3 74.5739C1172.63 73.7926 1171.3 72.6634 1170.32 71.1861C1169.35 69.7088 1168.87 67.8977 1168.87 65.7528C1168.87 63.9062 1169.22 62.3864 1169.94 61.1932C1170.65 60 1171.6 59.0554 1172.81 58.3594C1174.02 57.6634 1175.37 57.1378 1176.86 56.7827C1178.35 56.4276 1179.87 56.1577 1181.42 55.973C1183.38 55.7457 1184.97 55.5611 1186.19 55.419C1187.41 55.2628 1188.3 55.0142 1188.86 54.6733C1189.41 54.3324 1189.69 53.7784 1189.69 53.0114V52.8622C1189.69 51.0014 1189.16 49.5597 1188.11 48.5369C1187.07 47.5142 1185.52 47.0028 1183.46 47.0028C1181.32 47.0028 1179.63 47.4787 1178.39 48.4304C1177.17 49.3679 1176.33 50.4119 1175.86 51.5625L1169.87 50.1989C1170.58 48.2102 1171.62 46.6051 1172.98 45.3835C1174.36 44.1477 1175.94 43.2528 1177.73 42.6989C1179.52 42.1307 1181.41 41.8466 1183.38 41.8466C1184.69 41.8466 1186.07 42.0028 1187.53 42.3153C1189.01 42.6136 1190.39 43.1676 1191.67 43.9773C1192.96 44.7869 1194.02 45.9446 1194.84 47.4503C1195.67 48.9418 1196.08 50.8807 1196.08 53.267V75H1189.86V70.5256H1189.6C1189.19 71.3494 1188.57 72.1591 1187.75 72.9545C1186.92 73.75 1185.87 74.4105 1184.57 74.9361C1183.28 75.4616 1181.73 75.7244 1179.93 75.7244ZM1181.31 70.6108C1183.07 70.6108 1184.58 70.2628 1185.83 69.5668C1187.09 68.8707 1188.05 67.9616 1188.71 66.8395C1189.37 65.7031 1189.71 64.4886 1189.71 63.196V58.9773C1189.48 59.2045 1189.04 59.4176 1188.39 59.6165C1187.75 59.8011 1187.02 59.9645 1186.19 60.1065C1185.37 60.2344 1184.57 60.3551 1183.78 60.4688C1183 60.5682 1182.35 60.6534 1181.82 60.7244C1180.59 60.8807 1179.46 61.1435 1178.44 61.5128C1177.43 61.8821 1176.62 62.4148 1176.01 63.1108C1175.41 63.7926 1175.11 64.7017 1175.11 65.8381C1175.11 67.4148 1175.69 68.608 1176.86 69.4176C1178.02 70.2131 1179.51 70.6108 1181.31 70.6108ZM1219.84 42.2727V47.3864H1201.96V42.2727H1219.84ZM1206.76 34.4318H1213.13V65.3906C1213.13 66.6264 1213.31 67.5568 1213.68 68.1818C1214.05 68.7926 1214.53 69.2116 1215.11 69.4389C1215.71 69.652 1216.35 69.7585 1217.05 69.7585C1217.56 69.7585 1218.01 69.723 1218.39 69.652C1218.78 69.581 1219.07 69.5241 1219.29 69.4815L1220.44 74.7443C1220.07 74.8864 1219.54 75.0284 1218.86 75.1705C1218.18 75.3267 1217.33 75.4119 1216.3 75.4261C1214.63 75.4545 1213.07 75.1562 1211.62 74.5312C1210.17 73.9062 1209 72.9403 1208.1 71.6335C1207.21 70.3267 1206.76 68.6861 1206.76 66.7116V34.4318ZM1226.89 75V42.2727H1233.26V75H1226.89ZM1230.11 37.223C1229 37.223 1228.05 36.8537 1227.25 36.1151C1226.47 35.3622 1226.08 34.4673 1226.08 33.4304C1226.08 32.3793 1226.47 31.4844 1227.25 30.7457C1228.05 29.9929 1229 29.6165 1230.11 29.6165C1231.21 29.6165 1232.16 29.9929 1232.94 30.7457C1233.73 31.4844 1234.13 32.3793 1234.13 33.4304C1234.13 34.4673 1233.73 35.3622 1232.94 36.1151C1232.16 36.8537 1231.21 37.223 1230.11 37.223ZM1255.62 75.6605C1252.55 75.6605 1249.87 74.9574 1247.58 73.5511C1245.3 72.1449 1243.52 70.1776 1242.26 67.6491C1240.99 65.1207 1240.36 62.1662 1240.36 58.7855C1240.36 55.3906 1240.99 52.4219 1242.26 49.8793C1243.52 47.3366 1245.3 45.3622 1247.58 43.956C1249.87 42.5497 1252.55 41.8466 1255.62 41.8466C1258.68 41.8466 1261.36 42.5497 1263.65 43.956C1265.93 45.3622 1267.71 47.3366 1268.97 49.8793C1270.24 52.4219 1270.87 55.3906 1270.87 58.7855C1270.87 62.1662 1270.24 65.1207 1268.97 67.6491C1267.71 70.1776 1265.93 72.1449 1263.65 73.5511C1261.36 74.9574 1258.68 75.6605 1255.62 75.6605ZM1255.64 70.3125C1257.63 70.3125 1259.27 69.7869 1260.58 68.7358C1261.89 67.6847 1262.85 66.2855 1263.48 64.5384C1264.12 62.7912 1264.44 60.8665 1264.44 58.7642C1264.44 56.6761 1264.12 54.7585 1263.48 53.0114C1262.85 51.25 1261.89 49.8366 1260.58 48.7713C1259.27 47.706 1257.63 47.1733 1255.64 47.1733C1253.63 47.1733 1251.97 47.706 1250.65 48.7713C1249.34 49.8366 1248.37 51.25 1247.73 53.0114C1247.11 54.7585 1246.79 56.6761 1246.79 58.7642C1246.79 60.8665 1247.11 62.7912 1247.73 64.5384C1248.37 66.2855 1249.34 67.6847 1250.65 68.7358C1251.97 69.7869 1253.63 70.3125 1255.64 70.3125ZM1284.35 55.5682V75H1277.98V42.2727H1284.1V47.5994H1284.5C1285.25 45.8665 1286.43 44.4744 1288.04 43.4233C1289.66 42.3722 1291.7 41.8466 1294.15 41.8466C1296.38 41.8466 1298.34 42.3153 1300.01 43.2528C1301.69 44.1761 1302.99 45.554 1303.91 47.3864C1304.84 49.2187 1305.3 51.4844 1305.3 54.1832V75H1298.93V54.9503C1298.93 52.5781 1298.31 50.7244 1297.07 49.3892C1295.84 48.0398 1294.14 47.3651 1291.98 47.3651C1290.5 47.3651 1289.19 47.6847 1288.04 48.3239C1286.9 48.9631 1286 49.9006 1285.33 51.1364C1284.68 52.358 1284.35 53.8352 1284.35 55.5682ZM1338.37 50.2628L1332.59 51.2855C1332.35 50.5469 1331.97 49.8437 1331.44 49.1761C1330.93 48.5085 1330.23 47.9616 1329.35 47.5355C1328.47 47.1094 1327.37 46.8963 1326.05 46.8963C1324.25 46.8963 1322.74 47.3011 1321.53 48.1108C1320.33 48.9062 1319.72 49.9361 1319.72 51.2003C1319.72 52.294 1320.13 53.1747 1320.94 53.8423C1321.75 54.5099 1323.05 55.0568 1324.86 55.483L1330.06 56.6761C1333.07 57.3722 1335.31 58.4446 1336.79 59.8935C1338.27 61.3423 1339 63.2244 1339 65.5398C1339 67.5 1338.44 69.2472 1337.3 70.7812C1336.18 72.3011 1334.61 73.4943 1332.59 74.3608C1330.59 75.2273 1328.27 75.6605 1325.62 75.6605C1321.96 75.6605 1318.97 74.8793 1316.65 73.3168C1314.34 71.7401 1312.92 69.5028 1312.39 66.6051L1318.55 65.6676C1318.93 67.2727 1319.72 68.4872 1320.92 69.3111C1322.11 70.1207 1323.66 70.5256 1325.58 70.5256C1327.67 70.5256 1329.34 70.0923 1330.59 69.2259C1331.84 68.3452 1332.46 67.2727 1332.46 66.0085C1332.46 64.9858 1332.08 64.1264 1331.31 63.4304C1330.56 62.7344 1329.4 62.2088 1327.84 61.8537L1322.3 60.6392C1319.25 59.9432 1316.99 58.8352 1315.52 57.3153C1314.08 55.7955 1313.35 53.8707 1313.35 51.5412C1313.35 49.6094 1313.89 47.919 1314.97 46.4702C1316.05 45.0213 1317.54 43.892 1319.44 43.0824C1321.35 42.2585 1323.53 41.8466 1325.99 41.8466C1329.52 41.8466 1332.31 42.6136 1334.34 44.1477C1336.37 45.6676 1337.71 47.706 1338.37 50.2628Z" fill="white"/>
<g filter="url(#filter0_f_1_5)">
<path d="M17 47L579 17V90L17 60V47Z" fill="#F325F9"/>
</g>
<g filter="url(#filter1_f_1_5)">
<path d="M1937 47L1375 17V90L1937 60V47Z" fill="#F325F9"/>
</g>
<defs>
<filter id="filter0_f_1_5" x="0" y="0" width="596" height="107" filterUnits="userSpaceOnUse" color-interpolation-filters="sRGB">
<feFlood flood-opacity="0" result="BackgroundImageFix"/>
<feBlend mode="normal" in="SourceGraphic" in2="BackgroundImageFix" result="shape"/>
<feGaussianBlur stdDeviation="8.5" result="effect1_foregroundBlur_1_5"/>
</filter>
<filter id="filter1_f_1_5" x="1358" y="0" width="596" height="107" filterUnits="userSpaceOnUse" color-interpolation-filters="sRGB">
<feFlood flood-opacity="0" result="BackgroundImageFix"/>
<feBlend mode="normal" in="SourceGraphic" in2="BackgroundImageFix" result="shape"/>
<feGaussianBlur stdDeviation="8.5" result="effect1_foregroundBlur_1_5"/>
</filter>
</defs>
</svg>
