<svg width="781" height="561" viewBox="0 0 781 561" fill="none" xmlns="http://www.w3.org/2000/svg">
<mask id="path-1-inside-1_117_1362" fill="white">
<path fill-rule="evenodd" clip-rule="evenodd" d="M781 561H0V122.284L120.925 1.35944L119.565 0H781V561Z"/>
</mask>
<path d="M0 561V563H-2V561H0ZM781 561H783V563H781V561ZM0 122.284H-2V121.456L-1.41421 120.87L0 122.284ZM120.925 1.35944L122.339 -0.0547485L123.753 1.35944L122.339 2.77362L120.925 1.35944ZM119.565 0L118.151 1.41418L114.737 -2H119.565V0ZM781 0V-2H783V0H781ZM0 559H781V563H0V559ZM2 122.284V561H-2V122.284H2ZM-1.41421 120.87L119.511 -0.0547485L122.339 2.77362L1.41421 123.698L-1.41421 120.87ZM119.511 2.77362L118.151 1.41418L120.98 -1.41418L122.339 -0.0547485L119.511 2.77362ZM781 2H119.565V-2H781V2ZM779 561V0H783V561H779Z" fill="url(#paint0_linear_117_1362)" mask="url(#path-1-inside-1_117_1362)"/>
<defs>
<linearGradient id="paint0_linear_117_1362" x1="18" y1="604.5" x2="581.5" y2="338" gradientUnits="userSpaceOnUse">
<stop stop-color="#A4A4A4"/>
<stop offset="1" stop-color="#A4A4A4" stop-opacity="0"/>
</linearGradient>
</defs>
</svg>
