<svg width="781" height="561" viewBox="0 0 781 561" fill="none" xmlns="http://www.w3.org/2000/svg">
<mask id="path-1-inside-1_2307_92" fill="white">
<path fill-rule="evenodd" clip-rule="evenodd" d="M781 0H0V438.716L120.925 559.641L119.565 561H781V0Z"/>
</mask>
<path d="M0 0V-2H-2V0H0ZM781 0H783V-2H781V0ZM0 438.716H-2V439.544L-1.41421 440.13L0 438.716ZM120.925 559.641L122.339 561.055L123.753 559.641L122.339 558.226L120.925 559.641ZM119.565 561L118.151 559.586L114.737 563H119.565V561ZM781 561V563H783V561H781ZM0 2H781V-2H0V2ZM2 438.716V0H-2V438.716H2ZM-1.41421 440.13L119.511 561.055L122.339 558.226L1.41421 437.302L-1.41421 440.13ZM119.511 558.226L118.151 559.586L120.98 562.414L122.339 561.055L119.511 558.226ZM781 559H119.565V563H781V559ZM779 0V561H783V0H779Z" fill="url(#paint0_linear_2307_92)" mask="url(#path-1-inside-1_2307_92)"/>
<defs>
<linearGradient id="paint0_linear_2307_92" x1="18" y1="-43.5001" x2="581.5" y2="223" gradientUnits="userSpaceOnUse">
<stop stop-color="#A4A4A4"/>
<stop offset="1" stop-color="#A4A4A4" stop-opacity="0"/>
</linearGradient>
</defs>
</svg>
