<svg width="84" height="136" viewBox="0 0 84 136" fill="none" xmlns="http://www.w3.org/2000/svg">
<path fill-rule="evenodd" clip-rule="evenodd" d="M64.1142 56C64.1669 56 64.2104 56.042 64.2129 56.0946C65.1951 76.7176 73.4016 93.1846 83.7755 95.4962C83.9061 95.5253 84 95.6402 84 95.7741V95.7741C84 95.908 83.9061 96.0228 83.7755 96.0519C73.3226 98.3811 65.0702 115.082 64.1917 135.925C64.19 135.967 64.1558 136 64.1142 136V136C64.0727 136 64.0385 135.967 64.0367 135.925C63.1506 114.903 54.7632 98.0939 44.1826 95.995C44.0768 95.974 44 95.8819 44 95.7741V95.7741C44 95.6663 44.0768 95.5742 44.1826 95.5532C54.684 93.47 63.0249 76.8965 64.0156 56.0946C64.0181 56.042 64.0615 56 64.1142 56V56Z" fill="#D8F474"/>
<path fill-rule="evenodd" clip-rule="evenodd" d="M26.1485 0C26.217 0 26.2733 0.0546379 26.2763 0.123044C27.5506 28.9846 38.2095 52.0342 51.6871 55.2896C51.8699 55.3338 52 55.4956 52 55.6837V55.6837C52 55.8718 51.8699 56.0336 51.6871 56.0778C38.1072 59.3579 27.3889 82.7339 26.2489 111.903C26.2468 111.957 26.2025 112 26.1485 112V112C26.0945 112 26.0502 111.957 26.048 111.903C24.8981 82.48 14.0025 58.9514 0.254585 55.9967C0.106528 55.9649 0 55.8351 0 55.6837V55.6837C0 55.5323 0.106537 55.4025 0.254594 55.3707C13.8998 52.4381 24.7352 29.2378 26.0207 0.123055C26.0237 0.0546489 26.08 0 26.1485 0V0Z" fill="#D8F474"/>
</svg>
