<svg width="1180" height="428" viewBox="0 0 1180 428" fill="none" xmlns="http://www.w3.org/2000/svg">
<g opacity="0.7">
<mask id="path-1-inside-1_151_53" fill="white">
<path fill-rule="evenodd" clip-rule="evenodd" d="M0 421.33C0 419.881 0.471793 418.471 1.34402 417.315L132.308 243.6C145.741 225.781 145.741 201.219 132.308 183.4L1.19305 9.48524C0.418794 8.45825 0 7.20706 0 5.92091C0 2.65088 2.65088 0 5.9209 0H1130C1157.61 0 1180 22.3858 1180 50V378C1180 405.614 1157.61 428 1130 428H6.67015C2.98634 428 0 425.014 0 421.33Z"/>
</mask>
<path fill-rule="evenodd" clip-rule="evenodd" d="M0 421.33C0 419.881 0.471793 418.471 1.34402 417.315L132.308 243.6C145.741 225.781 145.741 201.219 132.308 183.4L1.19305 9.48524C0.418794 8.45825 0 7.20706 0 5.92091C0 2.65088 2.65088 0 5.9209 0H1130C1157.61 0 1180 22.3858 1180 50V378C1180 405.614 1157.61 428 1130 428H6.67015C2.98634 428 0 425.014 0 421.33Z" fill="#782EE9"/>
<path d="M1.34402 417.315L-1.05149 415.509L1.34402 417.315ZM132.308 243.6L129.912 241.794L132.308 243.6ZM132.308 183.4L129.912 185.206L132.308 183.4ZM129.912 241.794L-1.05149 415.509L3.73953 419.12L134.703 245.406L129.912 241.794ZM-1.20246 11.2912L129.912 185.206L134.703 181.594L3.58856 7.67927L-1.20246 11.2912ZM5.9209 3H1130V-3H5.9209V3ZM1177 50V378H1183V50H1177ZM1130 425H6.67015V431H1130V425ZM6.67015 425C4.64318 425 3 423.357 3 421.33H-3C-3 426.671 1.32949 431 6.67015 431V425ZM1177 378C1177 403.957 1155.96 425 1130 425V431C1159.27 431 1183 407.271 1183 378H1177ZM1130 3C1155.96 3 1177 24.0426 1177 50H1183C1183 20.7289 1159.27 -3 1130 -3V3ZM3 5.92091C3 4.30773 4.30773 3 5.9209 3V-3C0.994024 -3 -3 0.994029 -3 5.92091H3ZM3.58856 7.67927C3.2066 7.17263 3 6.55539 3 5.92091H-3C-3 7.85873 -2.36901 9.74386 -1.20246 11.2912L3.58856 7.67927ZM-1.05149 415.509C-2.31601 417.186 -3 419.229 -3 421.33H3C3 420.533 3.2596 419.757 3.73953 419.12L-1.05149 415.509ZM134.703 245.406C148.943 226.518 148.943 200.482 134.703 181.594L129.912 185.206C142.54 201.956 142.54 225.044 129.912 241.794L134.703 245.406Z" fill="url(#paint0_linear_151_53)" mask="url(#path-1-inside-1_151_53)"/>
</g>
<defs>
<linearGradient id="paint0_linear_151_53" x1="-163.5" y1="-88.9988" x2="925.999" y2="560.501" gradientUnits="userSpaceOnUse">
<stop stop-color="white"/>
<stop offset="1" stop-color="white" stop-opacity="0"/>
</linearGradient>
</defs>
</svg>
