<svg width="201" height="232" viewBox="0 0 201 232" fill="none" xmlns="http://www.w3.org/2000/svg">
<mask id="mask0_1676_203" style="mask-type:alpha" maskUnits="userSpaceOnUse" x="0" y="0" width="201" height="129">
<path d="M201 0H0V129H201V0Z" fill="white"/>
</mask>
<g mask="url(#mask0_1676_203)">
<path opacity="0.58" d="M87.9482 47.6242L85.086 44.7529L82.2236 47.6242L85.086 50.4957L87.9482 47.6242Z" fill="white"/>
<path opacity="0.58" d="M71.7712 65.5107L69.8058 63.5391L67.8406 65.5107L69.8058 67.4822L71.7712 65.5107Z" fill="white"/>
<path opacity="0.24" d="M113.575 24.0723L111.892 22.3838L110.208 24.0723L111.892 25.7607L113.575 24.0723Z" fill="white"/>
<path opacity="0.88" d="M128.213 54.9589L126.53 53.2705L124.847 54.959L126.53 56.6474L128.213 54.9589Z" fill="white"/>
<path opacity="0.24" d="M32.4504 8.67087L30.7673 6.98242L29.0842 8.67087L30.7673 10.3593L32.4504 8.67087Z" fill="white"/>
<path d="M201.001 50.3255L196.909 46.2207L192.817 50.3255L196.909 54.4304L201.001 50.3255Z" fill="white"/>
<path opacity="0.68" d="M100.032 85.6763L96.9072 82.542L93.7828 85.6763L96.9072 88.8104L100.032 85.6763Z" fill="white"/>
<path opacity="0.68" d="M6.24739 24.9076L3.12306 21.7734L-0.00128174 24.9076L3.12306 28.0419L6.24739 24.9076Z" fill="white"/>
<path opacity="0.69" d="M79.3523 122.398L72.761 115.786L66.1696 122.398L72.761 129.011L79.3523 122.398Z" fill="white"/>
<path opacity="0.54" d="M181.651 27.0551L179.242 24.6387L176.834 27.055L179.242 29.4715L181.651 27.0551Z" fill="white"/>
<path opacity="0.88" d="M53.6852 30.0969L52.879 29.2881L52.0726 30.0969L52.879 30.9057L53.6852 30.0969Z" fill="white"/>
<path opacity="0.88" d="M162.906 0.812737L162.099 0.00390625L161.292 0.812737L162.099 1.62156L162.906 0.812737Z" fill="white"/>
<path d="M99.0643 22.934C76.0696 22.934 57.4286 41.544 57.4286 64.5007C57.4286 87.4573 76.0696 106.067 99.0643 106.067C122.059 106.067 140.7 87.4573 140.7 64.5007C140.7 41.544 122.059 22.934 99.0643 22.934Z" fill="url(#paint0_radial_1676_203)" fill-opacity="0.5"/>
<mask id="mask1_1676_203" style="mask-type:alpha" maskUnits="userSpaceOnUse" x="13" y="19" width="168" height="99">
<path d="M180.207 19.4199H13.8621V117.904H180.207V19.4199Z" fill="white"/>
</mask>
<g mask="url(#mask1_1676_203)">
<path d="M139.946 117.904V81.6963H175.766L180.207 86.1859V95.1654L175.766 99.655L180.207 104.145V113.124L175.766 117.904H139.946ZM171.324 95.3102V90.8205H148.829V95.3102H171.324ZM171.324 108.924V104.434H148.829V108.924H171.324Z" fill="white"/>
</g>
</g>
<path d="M49.9034 108.975L92.8103 78.9258C99.5493 74.2079 104.353 69.4537 107.22 64.6632C110.088 59.8727 111.522 53.7757 111.522 46.3722C111.522 42.235 110.912 38.6421 109.693 35.5936C108.475 32.4725 106.898 30.1498 104.962 28.6256C103.026 27.1013 101.198 26.0126 99.4776 25.3593C97.8287 24.6335 95.893 24.2706 93.6706 24.2706C86.3582 24.2706 80.4795 26.0126 76.0347 29.4966C71.6616 32.908 69.475 37.7711 69.475 44.0858C69.475 47.9327 70.0844 51.453 71.3031 54.6467C72.5219 57.8404 73.7406 60.0542 74.9593 61.2881L76.7875 63.2478C76.1422 65.7157 74.6009 67.0585 72.1634 67.2762C71.7333 67.1311 71.1597 66.9133 70.4428 66.623C69.7259 66.2601 68.4355 65.3891 66.5715 64.01C64.7076 62.6309 63.0587 61.0703 61.6249 59.3283C60.1911 57.5138 58.9006 55.0459 57.7536 51.9248C56.6065 48.8037 56.033 45.3923 56.033 41.6906C56.033 35.0129 57.9328 29.3151 61.7324 24.5972C65.532 19.8793 70.407 16.4679 76.3573 14.3629C82.3076 12.1854 88.9749 11.0967 96.359 11.0967C108.403 11.0967 117.902 13.9274 124.856 19.5889C131.81 25.2504 135.287 32.908 135.287 42.5616C135.287 47.1343 134.534 51.4168 133.029 55.4088C131.523 59.3283 129.408 62.776 126.684 65.752C123.96 68.7279 121.415 71.1594 119.049 73.0466C116.683 74.9338 113.887 76.8935 110.661 78.9258L84.2074 95.366V96.4547H109.801C114.819 96.4547 119.408 94.8216 123.566 91.5554C127.724 88.2165 130.986 84.5148 133.351 80.4501C135.574 80.4501 137.33 80.9582 138.621 81.9743L138.646 117.903H53.4521C51.8749 116.814 50.692 113.838 49.9034 108.975Z" fill="white"/>
<path d="M16.4489 205.526V203.182H32.8125V205.526H25.9517V225H23.3097V205.526H16.4489ZM40.8239 225.341C39.3466 225.341 38.0504 224.989 36.9354 224.286C35.8274 223.583 34.9609 222.599 34.3359 221.335C33.718 220.071 33.4091 218.594 33.4091 216.903C33.4091 215.199 33.718 213.711 34.3359 212.44C34.9609 211.168 35.8274 210.181 36.9354 209.478C38.0504 208.775 39.3466 208.423 40.8239 208.423C42.3011 208.423 43.5938 208.775 44.7017 209.478C45.8168 210.181 46.6832 211.168 47.3011 212.44C47.9261 213.711 48.2386 215.199 48.2386 216.903C48.2386 218.594 47.9261 220.071 47.3011 221.335C46.6832 222.599 45.8168 223.583 44.7017 224.286C43.5938 224.989 42.3011 225.341 40.8239 225.341ZM40.8239 223.082C41.946 223.082 42.8693 222.795 43.5938 222.219C44.3182 221.644 44.8544 220.888 45.2024 219.95C45.5504 219.013 45.7244 217.997 45.7244 216.903C45.7244 215.81 45.5504 214.79 45.2024 213.846C44.8544 212.901 44.3182 212.138 43.5938 211.555C42.8693 210.973 41.946 210.682 40.8239 210.682C39.7017 210.682 38.7784 210.973 38.054 211.555C37.3295 212.138 36.7933 212.901 36.4453 213.846C36.0973 214.79 35.9233 215.81 35.9233 216.903C35.9233 217.997 36.0973 219.013 36.4453 219.95C36.7933 220.888 37.3295 221.644 38.054 222.219C38.7784 222.795 39.7017 223.082 40.8239 223.082ZM59.193 208.636V210.767H50.7129V208.636H59.193ZM53.1845 204.716H55.6987V220.312C55.6987 221.023 55.8017 221.555 56.0076 221.911C56.2207 222.259 56.4906 222.493 56.8173 222.614C57.1511 222.727 57.5027 222.784 57.872 222.784C58.149 222.784 58.3762 222.77 58.5538 222.741C58.7314 222.706 58.8734 222.678 58.9799 222.656L59.4913 224.915C59.3208 224.979 59.0829 225.043 58.7775 225.107C58.4721 225.178 58.0851 225.213 57.6163 225.213C56.9061 225.213 56.21 225.06 55.5282 224.755C54.8535 224.45 54.2924 223.984 53.845 223.359C53.4047 222.734 53.1845 221.946 53.1845 220.994V204.716ZM67.7903 225.384C66.7534 225.384 65.8123 225.188 64.9672 224.798C64.122 224.4 63.4508 223.828 62.9537 223.082C62.4565 222.33 62.2079 221.42 62.2079 220.355C62.2079 219.418 62.3926 218.658 62.7619 218.075C63.1312 217.486 63.6248 217.024 64.2427 216.69C64.8606 216.357 65.5424 216.108 66.2882 215.945C67.041 215.774 67.7974 215.639 68.5574 215.54C69.5517 215.412 70.3578 215.316 70.9757 215.252C71.6007 215.181 72.0552 215.064 72.3393 214.901C72.6305 214.737 72.7761 214.453 72.7761 214.048V213.963C72.7761 212.912 72.4885 212.095 71.9132 211.513C71.345 210.93 70.4821 210.639 69.3244 210.639C68.1241 210.639 67.1831 210.902 66.5012 211.428C65.8194 211.953 65.34 212.514 65.063 213.111L62.6767 212.259C63.1028 211.264 63.671 210.49 64.3812 209.936C65.0985 209.375 65.8798 208.984 66.725 208.764C67.5772 208.537 68.4153 208.423 69.2392 208.423C69.7647 208.423 70.3684 208.487 71.0502 208.615C71.7392 208.736 72.4032 208.988 73.0424 209.371C73.6887 209.755 74.225 210.334 74.6511 211.108C75.0772 211.882 75.2903 212.919 75.2903 214.219V225H72.7761V222.784H72.6483C72.4778 223.139 72.1937 223.519 71.796 223.924C71.3983 224.329 70.8691 224.673 70.2086 224.957C69.5481 225.241 68.742 225.384 67.7903 225.384ZM68.1738 223.125C69.1681 223.125 70.0062 222.93 70.688 222.539C71.377 222.148 71.8954 221.644 72.2434 221.026C72.5985 220.408 72.7761 219.759 72.7761 219.077V216.776C72.6696 216.903 72.4352 217.021 72.073 217.127C71.7179 217.227 71.3059 217.315 70.8372 217.393C70.3755 217.464 69.9245 217.528 69.4842 217.585C69.051 217.635 68.6994 217.678 68.4295 217.713C67.7761 217.798 67.1653 217.937 66.5971 218.129C66.036 218.313 65.5815 218.594 65.2335 218.97C64.8926 219.339 64.7221 219.844 64.7221 220.483C64.7221 221.357 65.0453 222.017 65.6916 222.464C66.345 222.905 67.1724 223.125 68.1738 223.125ZM82.3935 203.182V225H79.8793V203.182H82.3935ZM107.027 212.301L104.768 212.94C104.626 212.564 104.417 212.198 104.14 211.843C103.87 211.481 103.501 211.183 103.032 210.948C102.563 210.714 101.963 210.597 101.231 210.597C100.23 210.597 99.3954 210.827 98.7278 211.289C98.0673 211.744 97.737 212.322 97.737 213.026C97.737 213.651 97.9643 214.144 98.4189 214.506C98.8734 214.869 99.5836 215.17 100.55 215.412L102.979 216.009C104.442 216.364 105.532 216.907 106.249 217.638C106.966 218.363 107.325 219.297 107.325 220.44C107.325 221.378 107.055 222.216 106.515 222.955C105.983 223.693 105.237 224.276 104.278 224.702C103.319 225.128 102.204 225.341 100.933 225.341C99.264 225.341 97.8826 224.979 96.7889 224.254C95.6951 223.53 95.0027 222.472 94.7115 221.08L97.0978 220.483C97.3251 221.364 97.7548 222.024 98.3869 222.464C99.0261 222.905 99.8606 223.125 100.89 223.125C102.062 223.125 102.993 222.876 103.682 222.379C104.378 221.875 104.726 221.271 104.726 220.568C104.726 220 104.527 219.524 104.129 219.141C103.731 218.75 103.121 218.459 102.297 218.267L99.5694 217.628C98.0708 217.273 96.97 216.722 96.2669 215.977C95.5708 215.224 95.2228 214.283 95.2228 213.153C95.2228 212.23 95.4821 211.413 96.0005 210.703C96.5261 209.993 97.2399 209.435 98.1419 209.031C99.051 208.626 100.081 208.423 101.231 208.423C102.851 208.423 104.122 208.778 105.045 209.489C105.976 210.199 106.636 211.136 107.027 212.301ZM121.422 218.31V208.636H123.936V225H121.422V222.23H121.252C120.868 223.061 120.272 223.768 119.462 224.35C118.652 224.925 117.63 225.213 116.394 225.213C115.371 225.213 114.462 224.989 113.667 224.542C112.871 224.087 112.246 223.406 111.792 222.496C111.337 221.58 111.11 220.426 111.11 219.034V208.636H113.624V218.864C113.624 220.057 113.958 221.009 114.625 221.719C115.3 222.429 116.159 222.784 117.203 222.784C117.828 222.784 118.464 222.624 119.11 222.305C119.764 221.985 120.311 221.495 120.751 220.835C121.199 220.174 121.422 219.332 121.422 218.31ZM128.541 231.136V208.636H130.97V211.236H131.269C131.453 210.952 131.709 210.589 132.036 210.149C132.369 209.702 132.845 209.304 133.463 208.956C134.088 208.601 134.933 208.423 135.999 208.423C137.377 208.423 138.591 208.768 139.642 209.457C140.693 210.146 141.514 211.122 142.103 212.386C142.693 213.651 142.987 215.142 142.987 216.861C142.987 218.594 142.693 220.096 142.103 221.367C141.514 222.631 140.697 223.612 139.653 224.308C138.609 224.996 137.405 225.341 136.041 225.341C134.99 225.341 134.149 225.167 133.517 224.819C132.884 224.464 132.398 224.062 132.057 223.615C131.716 223.161 131.453 222.784 131.269 222.486H131.056V231.136H128.541ZM131.013 216.818C131.013 218.054 131.194 219.144 131.556 220.089C131.919 221.026 132.448 221.761 133.144 222.294C133.84 222.82 134.692 223.082 135.7 223.082C136.752 223.082 137.629 222.805 138.332 222.251C139.042 221.69 139.575 220.937 139.93 219.993C140.292 219.041 140.473 217.983 140.473 216.818C140.473 215.668 140.296 214.631 139.941 213.707C139.593 212.777 139.063 212.042 138.353 211.502C137.65 210.955 136.766 210.682 135.7 210.682C134.678 210.682 133.818 210.941 133.122 211.46C132.426 211.971 131.901 212.688 131.546 213.612C131.191 214.528 131.013 215.597 131.013 216.818ZM146.823 231.136V208.636H149.252V211.236H149.55C149.735 210.952 149.99 210.589 150.317 210.149C150.651 209.702 151.127 209.304 151.744 208.956C152.369 208.601 153.215 208.423 154.28 208.423C155.658 208.423 156.872 208.768 157.923 209.457C158.975 210.146 159.795 211.122 160.384 212.386C160.974 213.651 161.269 215.142 161.269 216.861C161.269 218.594 160.974 220.096 160.384 221.367C159.795 222.631 158.978 223.612 157.934 224.308C156.89 224.996 155.686 225.341 154.323 225.341C153.271 225.341 152.43 225.167 151.798 224.819C151.166 224.464 150.679 224.062 150.338 223.615C149.997 223.161 149.735 222.784 149.55 222.486H149.337V231.136H146.823ZM149.294 216.818C149.294 218.054 149.475 219.144 149.838 220.089C150.2 221.026 150.729 221.761 151.425 222.294C152.121 222.82 152.973 223.082 153.982 223.082C155.033 223.082 155.91 222.805 156.613 222.251C157.323 221.69 157.856 220.937 158.211 219.993C158.573 219.041 158.754 217.983 158.754 216.818C158.754 215.668 158.577 214.631 158.222 213.707C157.874 212.777 157.345 212.042 156.634 211.502C155.931 210.955 155.047 210.682 153.982 210.682C152.959 210.682 152.1 210.941 151.404 211.46C150.708 211.971 150.182 212.688 149.827 213.612C149.472 214.528 149.294 215.597 149.294 216.818ZM167.618 203.182V225H165.104V203.182H167.618ZM173.842 231.136C173.416 231.136 173.036 231.101 172.702 231.03C172.369 230.966 172.138 230.902 172.01 230.838L172.649 228.622C173.26 228.778 173.8 228.835 174.268 228.793C174.737 228.75 175.153 228.54 175.515 228.164C175.884 227.795 176.222 227.195 176.527 226.364L176.996 225.085L170.945 208.636H173.672L178.189 221.676H178.359L182.876 208.636H185.604L178.658 227.386C178.345 228.232 177.958 228.931 177.496 229.485C177.035 230.046 176.499 230.462 175.888 230.732C175.284 231.001 174.602 231.136 173.842 231.136Z" fill="#C4C4C4"/>
<path d="M42.0682 182V178.955L50.1477 171.034C50.9205 170.254 51.5644 169.561 52.0795 168.955C52.5947 168.348 52.9811 167.761 53.2386 167.193C53.4962 166.625 53.625 166.019 53.625 165.375C53.625 164.64 53.4583 164.011 53.125 163.489C52.7917 162.958 52.3333 162.549 51.75 162.261C51.1667 161.973 50.5038 161.83 49.7614 161.83C48.9962 161.83 48.3258 161.989 47.75 162.307C47.1742 162.617 46.7273 163.061 46.4091 163.636C46.0985 164.212 45.9432 164.898 45.9432 165.693H41.9318C41.9318 164.216 42.2689 162.932 42.9432 161.841C43.6174 160.75 44.5455 159.905 45.7273 159.307C46.9167 158.708 48.2803 158.409 49.8182 158.409C51.3788 158.409 52.75 158.701 53.9318 159.284C55.1136 159.867 56.0303 160.667 56.6818 161.682C57.3409 162.697 57.6705 163.856 57.6705 165.159C57.6705 166.03 57.5038 166.886 57.1705 167.727C56.8371 168.568 56.25 169.5 55.4091 170.523C54.5758 171.545 53.4053 172.784 51.8977 174.239L47.8864 178.318V178.477H58.0227V182H42.0682ZM70.108 182V158.727H79.017C80.6989 158.727 82.0966 158.992 83.2102 159.523C84.3314 160.045 85.1686 160.761 85.7216 161.67C86.2822 162.58 86.5625 163.61 86.5625 164.761C86.5625 165.708 86.3807 166.519 86.017 167.193C85.6534 167.86 85.1648 168.402 84.5511 168.818C83.9375 169.235 83.2519 169.534 82.4943 169.716V169.943C83.3201 169.989 84.1117 170.242 84.8693 170.705C85.6345 171.159 86.2595 171.803 86.7443 172.636C87.2292 173.47 87.4716 174.477 87.4716 175.659C87.4716 176.864 87.1799 177.947 86.5966 178.909C86.0133 179.864 85.1345 180.617 83.9602 181.17C82.786 181.723 81.3087 182 79.5284 182H70.108ZM74.3239 178.477H78.858C80.3883 178.477 81.4905 178.186 82.1648 177.602C82.8466 177.011 83.1875 176.254 83.1875 175.33C83.1875 174.64 83.017 174.019 82.6761 173.466C82.3352 172.905 81.8504 172.466 81.2216 172.148C80.5928 171.822 79.8428 171.659 78.9716 171.659H74.3239V178.477ZM74.3239 168.625H78.4943C79.2216 168.625 79.8769 168.492 80.4602 168.227C81.0436 167.955 81.5019 167.572 81.8352 167.08C82.1761 166.58 82.3466 165.989 82.3466 165.307C82.3466 164.405 82.0284 163.663 81.392 163.08C80.7633 162.496 79.8277 162.205 78.5852 162.205H74.3239V168.625ZM90.9574 182V164.545H95.071V182H90.9574ZM93.0256 162.068C92.3741 162.068 91.8134 161.852 91.3438 161.42C90.8741 160.981 90.6392 160.455 90.6392 159.841C90.6392 159.22 90.8741 158.693 91.3438 158.261C91.8134 157.822 92.3741 157.602 93.0256 157.602C93.6847 157.602 94.2453 157.822 94.7074 158.261C95.1771 158.693 95.4119 159.22 95.4119 159.841C95.4119 160.455 95.1771 160.981 94.7074 161.42C94.2453 161.852 93.6847 162.068 93.0256 162.068ZM103.415 158.727V182H99.3011V158.727H103.415ZM111.759 158.727V182H107.645V158.727H111.759ZM115.989 182V164.545H120.102V182H115.989ZM118.057 162.068C117.405 162.068 116.845 161.852 116.375 161.42C115.905 160.981 115.67 160.455 115.67 159.841C115.67 159.22 115.905 158.693 116.375 158.261C116.845 157.822 117.405 157.602 118.057 157.602C118.716 157.602 119.277 157.822 119.739 158.261C120.208 158.693 120.443 159.22 120.443 159.841C120.443 160.455 120.208 160.981 119.739 161.42C119.277 161.852 118.716 162.068 118.057 162.068ZM131.946 182.341C130.241 182.341 128.764 181.966 127.514 181.216C126.264 180.466 125.295 179.417 124.605 178.068C123.923 176.72 123.582 175.144 123.582 173.341C123.582 171.538 123.923 169.958 124.605 168.602C125.295 167.246 126.264 166.193 127.514 165.443C128.764 164.693 130.241 164.318 131.946 164.318C133.651 164.318 135.128 164.693 136.378 165.443C137.628 166.193 138.594 167.246 139.276 168.602C139.965 169.958 140.31 171.538 140.31 173.341C140.31 175.144 139.965 176.72 139.276 178.068C138.594 179.417 137.628 180.466 136.378 181.216C135.128 181.966 133.651 182.341 131.946 182.341ZM131.969 179.045C132.893 179.045 133.666 178.792 134.287 178.284C134.908 177.769 135.37 177.08 135.673 176.216C135.984 175.352 136.139 174.39 136.139 173.33C136.139 172.261 135.984 171.295 135.673 170.432C135.37 169.561 134.908 168.867 134.287 168.352C133.666 167.837 132.893 167.58 131.969 167.58C131.022 167.58 130.234 167.837 129.605 168.352C128.984 168.867 128.518 169.561 128.207 170.432C127.904 171.295 127.753 172.261 127.753 173.33C127.753 174.39 127.904 175.352 128.207 176.216C128.518 177.08 128.984 177.769 129.605 178.284C130.234 178.792 131.022 179.045 131.969 179.045ZM147.915 171.773V182H143.801V164.545H147.733V167.511H147.938C148.339 166.534 148.979 165.758 149.858 165.182C150.744 164.606 151.839 164.318 153.142 164.318C154.347 164.318 155.396 164.576 156.29 165.091C157.191 165.606 157.888 166.352 158.381 167.33C158.881 168.307 159.127 169.492 159.119 170.886V182H155.006V171.523C155.006 170.356 154.703 169.443 154.097 168.784C153.498 168.125 152.669 167.795 151.608 167.795C150.888 167.795 150.248 167.955 149.688 168.273C149.134 168.583 148.699 169.034 148.381 169.625C148.07 170.216 147.915 170.932 147.915 171.773Z" fill="white"/>
<defs>
<radialGradient id="paint0_radial_1676_203" cx="0" cy="0" r="1" gradientUnits="userSpaceOnUse" gradientTransform="translate(99.0643 64.5007) rotate(-90) scale(41.5667 41.6357)">
<stop stop-color="white" stop-opacity="0.67"/>
<stop offset="1" stop-color="white" stop-opacity="0"/>
</radialGradient>
</defs>
</svg>
