<svg width="1920" height="91" viewBox="0 0 1920 91" fill="none" xmlns="http://www.w3.org/2000/svg">
<path d="M819.202 33.3594V28.6364H847.344V33.3594H835.999V65H830.53V33.3594H819.202ZM860.67 65.5504C858.113 65.5504 855.882 64.9645 853.976 63.7926C852.07 62.6207 850.591 60.9813 849.537 58.8743C848.484 56.7673 847.957 54.3052 847.957 51.4879C847.957 48.6589 848.484 46.1849 849.537 44.0661C850.591 41.9472 852.07 40.3018 853.976 39.13C855.882 37.9581 858.113 37.3722 860.67 37.3722C863.227 37.3722 865.458 37.9581 867.364 39.13C869.27 40.3018 870.749 41.9472 871.803 44.0661C872.856 46.1849 873.383 48.6589 873.383 51.4879C873.383 54.3052 872.856 56.7673 871.803 58.8743C870.749 60.9813 869.27 62.6207 867.364 63.7926C865.458 64.9645 863.227 65.5504 860.67 65.5504ZM860.688 61.0938C862.345 61.0938 863.718 60.6558 864.807 59.7798C865.896 58.9039 866.701 57.7379 867.222 56.282C867.755 54.826 868.021 53.2221 868.021 51.4702C868.021 49.7301 867.755 48.1321 867.222 46.6761C866.701 45.2083 865.896 44.0305 864.807 43.1428C863.718 42.255 862.345 41.8111 860.688 41.8111C859.019 41.8111 857.634 42.255 856.533 43.1428C855.444 44.0305 854.633 45.2083 854.1 46.6761C853.58 48.1321 853.319 49.7301 853.319 51.4702C853.319 53.2221 853.58 54.826 854.1 56.282C854.633 57.7379 855.444 58.9039 856.533 59.7798C857.634 60.6558 859.019 61.0938 860.688 61.0938ZM884.192 55.7493L884.156 49.2685H885.08L895.946 37.7273H902.303L889.909 50.8665H889.075L884.192 55.7493ZM879.309 65V28.6364H884.618V65H879.309ZM896.532 65L886.767 52.0384L890.424 48.3274L903.048 65H896.532ZM917.772 65.5504C915.085 65.5504 912.771 64.9763 910.83 63.8281C908.9 62.6681 907.409 61.0405 906.355 58.9453C905.314 56.8383 904.793 54.3703 904.793 51.5412C904.793 48.7476 905.314 46.2855 906.355 44.1548C907.409 42.0241 908.877 40.361 910.759 39.1655C912.653 37.9699 914.866 37.3722 917.4 37.3722C918.938 37.3722 920.43 37.6267 921.874 38.1357C923.318 38.6446 924.614 39.4437 925.762 40.5327C926.911 41.6217 927.816 43.0362 928.479 44.7763C929.142 46.5045 929.473 48.6056 929.473 51.0795V52.9616H907.794V48.9844H924.271C924.271 47.5876 923.987 46.3506 923.419 45.2734C922.85 44.1844 922.051 43.3262 921.022 42.6989C920.004 42.0715 918.808 41.7578 917.435 41.7578C915.944 41.7578 914.641 42.1248 913.529 42.8587C912.428 43.5807 911.576 44.5277 910.972 45.6996C910.38 46.8596 910.084 48.1203 910.084 49.4815V52.5888C910.084 54.4117 910.404 55.9624 911.043 57.2408C911.694 58.5192 912.6 59.4957 913.76 60.1705C914.92 60.8333 916.275 61.1648 917.826 61.1648C918.832 61.1648 919.749 61.0227 920.578 60.7386C921.406 60.4427 922.123 60.0047 922.726 59.4247C923.33 58.8447 923.792 58.1286 924.111 57.2763L929.136 58.1818C928.734 59.6615 928.011 60.9576 926.97 62.0703C925.94 63.1712 924.644 64.0294 923.081 64.6449C921.531 65.2486 919.761 65.5504 917.772 65.5504ZM940.673 48.8068V65H935.364V37.7273H940.46V42.1662H940.797C941.424 40.7221 942.407 39.562 943.744 38.6861C945.094 37.8101 946.793 37.3722 948.84 37.3722C950.699 37.3722 952.326 37.7628 953.723 38.544C955.12 39.3134 956.203 40.4616 956.972 41.9886C957.742 43.5156 958.127 45.4036 958.127 47.6527V65H952.818V48.2919C952.818 46.3151 952.303 44.7704 951.273 43.6577C950.243 42.5331 948.829 41.9709 947.029 41.9709C945.798 41.9709 944.703 42.2372 943.744 42.7699C942.798 43.3026 942.046 44.0838 941.49 45.1136C940.945 46.1316 940.673 47.3627 940.673 48.8068ZM976.735 65.5504C974.178 65.5504 971.946 64.9645 970.041 63.7926C968.135 62.6207 966.655 60.9813 965.602 58.8743C964.548 56.7673 964.021 54.3052 964.021 51.4879C964.021 48.6589 964.548 46.1849 965.602 44.0661C966.655 41.9472 968.135 40.3018 970.041 39.13C971.946 37.9581 974.178 37.3722 976.735 37.3722C979.291 37.3722 981.523 37.9581 983.428 39.13C985.334 40.3018 986.814 41.9472 987.867 44.0661C988.921 46.1849 989.448 48.6589 989.448 51.4879C989.448 54.3052 988.921 56.7673 987.867 58.8743C986.814 60.9813 985.334 62.6207 983.428 63.7926C981.523 64.9645 979.291 65.5504 976.735 65.5504ZM976.752 61.0938C978.41 61.0938 979.783 60.6558 980.872 59.7798C981.961 58.9039 982.766 57.7379 983.286 56.282C983.819 54.826 984.085 53.2221 984.085 51.4702C984.085 49.7301 983.819 48.1321 983.286 46.6761C982.766 45.2083 981.961 44.0305 980.872 43.1428C979.783 42.255 978.41 41.8111 976.752 41.8111C975.083 41.8111 973.698 42.255 972.597 43.1428C971.508 44.0305 970.698 45.2083 970.165 46.6761C969.644 48.1321 969.384 49.7301 969.384 51.4702C969.384 53.2221 969.644 54.826 970.165 56.282C970.698 57.7379 971.508 58.9039 972.597 59.7798C973.698 60.6558 975.083 61.0938 976.752 61.0938ZM995.374 65V37.7273H1000.47V42.1662H1000.81C1001.38 40.6629 1002.3 39.491 1003.59 38.6506C1004.88 37.7983 1006.43 37.3722 1008.23 37.3722C1010.05 37.3722 1011.58 37.7983 1012.81 38.6506C1014.05 39.5028 1014.97 40.6747 1015.56 42.1662H1015.85C1016.5 40.7102 1017.53 39.5502 1018.95 38.6861C1020.37 37.8101 1022.07 37.3722 1024.03 37.3722C1026.51 37.3722 1028.52 38.1475 1030.09 39.6982C1031.66 41.2488 1032.45 43.5866 1032.45 46.7116V65H1027.14V47.2088C1027.14 45.3622 1026.64 44.0246 1025.63 43.196C1024.62 42.3674 1023.42 41.9531 1022.02 41.9531C1020.3 41.9531 1018.95 42.4858 1017.99 43.5511C1017.04 44.6046 1016.56 45.96 1016.56 47.6172V65H1011.26V46.8714C1011.26 45.3918 1010.8 44.2022 1009.88 43.3026C1008.96 42.4029 1007.76 41.9531 1006.28 41.9531C1005.27 41.9531 1004.34 42.2195 1003.49 42.7521C1002.65 43.273 1001.97 44.0009 1001.45 44.9361C1000.94 45.8712 1000.68 46.9543 1000.68 48.1854V65H995.374ZM1039.56 65V37.7273H1044.87V65H1039.56ZM1042.24 33.5192C1041.32 33.5192 1040.53 33.2114 1039.86 32.5959C1039.21 31.9685 1038.89 31.2228 1038.89 30.3587C1038.89 29.4827 1039.21 28.737 1039.86 28.1214C1040.53 27.4941 1041.32 27.1804 1042.24 27.1804C1043.17 27.1804 1043.95 27.4941 1044.61 28.1214C1045.27 28.737 1045.6 29.4827 1045.6 30.3587C1045.6 31.2228 1045.27 31.9685 1044.61 32.5959C1043.95 33.2114 1043.17 33.5192 1042.24 33.5192ZM1063.5 65.5504C1060.86 65.5504 1058.59 64.9527 1056.68 63.7571C1054.79 62.5497 1053.33 60.8866 1052.32 58.7678C1051.3 56.6489 1050.79 54.2223 1050.79 51.4879C1050.79 48.718 1051.31 46.2737 1052.35 44.1548C1053.39 42.0241 1054.86 40.361 1056.75 39.1655C1058.65 37.9699 1060.88 37.3722 1063.45 37.3722C1065.52 37.3722 1067.37 37.7569 1068.99 38.5263C1070.61 39.2839 1071.92 40.3492 1072.91 41.7223C1073.92 43.0954 1074.52 44.6993 1074.71 46.5341H1069.54C1069.25 45.2557 1068.6 44.1548 1067.59 43.2315C1066.58 42.3082 1065.23 41.8466 1063.54 41.8466C1062.06 41.8466 1060.76 42.2372 1059.65 43.0185C1058.55 43.7879 1057.69 44.8887 1057.07 46.321C1056.46 47.7415 1056.15 49.4223 1056.15 51.3636C1056.15 53.3523 1056.45 55.0687 1057.06 56.5128C1057.66 57.9569 1058.51 59.0755 1059.61 59.8686C1060.73 60.6617 1062.03 61.0582 1063.54 61.0582C1064.54 61.0582 1065.46 60.8748 1066.27 60.5078C1067.1 60.129 1067.79 59.5904 1068.35 58.892C1068.92 58.1937 1069.31 57.3532 1069.54 56.3707H1074.71C1074.52 58.1345 1073.94 59.7088 1072.98 61.0938C1072.02 62.4787 1070.74 63.5677 1069.13 64.3608C1067.53 65.1539 1065.66 65.5504 1063.5 65.5504ZM1100.82 44.3857L1096.01 45.2379C1095.81 44.6224 1095.49 44.0365 1095.05 43.4801C1094.62 42.9238 1094.04 42.468 1093.31 42.1129C1092.58 41.7578 1091.66 41.5803 1090.56 41.5803C1089.05 41.5803 1087.8 41.9176 1086.79 42.5923C1085.79 43.2552 1085.28 44.1134 1085.28 45.1669C1085.28 46.0784 1085.62 46.8123 1086.3 47.3686C1086.97 47.925 1088.06 48.3807 1089.56 48.7358L1093.9 49.7301C1096.4 50.3101 1098.28 51.2038 1099.51 52.4112C1100.74 53.6186 1101.35 55.187 1101.35 57.1165C1101.35 58.75 1100.88 60.206 1099.93 61.4844C1099 62.7509 1097.69 63.7453 1096.01 64.4673C1094.34 65.1894 1092.4 65.5504 1090.2 65.5504C1087.15 65.5504 1084.66 64.8994 1082.73 63.5973C1080.8 62.2834 1079.61 60.419 1079.18 58.0043L1084.31 57.223C1084.63 58.5606 1085.28 59.5727 1086.28 60.2592C1087.27 60.9339 1088.57 61.2713 1090.17 61.2713C1091.91 61.2713 1093.3 60.9103 1094.34 60.1882C1095.38 59.4543 1095.9 58.5606 1095.9 57.5071C1095.9 56.6548 1095.58 55.9387 1094.94 55.3587C1094.32 54.7786 1093.35 54.3407 1092.05 54.0447L1087.43 53.0327C1084.89 52.4527 1083.01 51.5294 1081.79 50.2628C1080.58 48.9962 1079.97 47.3923 1079.97 45.451C1079.97 43.8411 1080.42 42.4325 1081.32 41.2251C1082.22 40.0178 1083.47 39.0767 1085.05 38.402C1086.64 37.7154 1088.46 37.3722 1090.5 37.3722C1093.45 37.3722 1095.77 38.0114 1097.46 39.2898C1099.16 40.5563 1100.28 42.255 1100.82 44.3857Z" fill="white"/>
<g filter="url(#filter0_f_1721_301)">
<path d="M-2 40.4247L787 17V74L-2 50.5753V40.4247Z" fill="#F325F9"/>
</g>
<g filter="url(#filter1_f_1721_301)">
<path d="M1918 40.4247L1134 17V74L1918 50.5753V40.4247Z" fill="#F325F9"/>
</g>
<defs>
<filter id="filter0_f_1721_301" x="-19" y="0" width="823" height="91" filterUnits="userSpaceOnUse" color-interpolation-filters="sRGB">
<feFlood flood-opacity="0" result="BackgroundImageFix"/>
<feBlend mode="normal" in="SourceGraphic" in2="BackgroundImageFix" result="shape"/>
<feGaussianBlur stdDeviation="8.5" result="effect1_foregroundBlur_1721_301"/>
</filter>
<filter id="filter1_f_1721_301" x="1117" y="0" width="818" height="91" filterUnits="userSpaceOnUse" color-interpolation-filters="sRGB">
<feFlood flood-opacity="0" result="BackgroundImageFix"/>
<feBlend mode="normal" in="SourceGraphic" in2="BackgroundImageFix" result="shape"/>
<feGaussianBlur stdDeviation="8.5" result="effect1_foregroundBlur_1721_301"/>
</filter>
</defs>
</svg>
