<svg width="202" height="233" viewBox="0 0 202 233" fill="none" xmlns="http://www.w3.org/2000/svg">
<mask id="mask0_1676_204" style="mask-type:alpha" maskUnits="userSpaceOnUse" x="0" y="0" width="202" height="130">
<path d="M0 130L202 130L202 0L0 0L0 130Z" fill="white"/>
</mask>
<g mask="url(#mask0_1676_204)">
<path opacity="0.58" d="M113.614 82.0069L116.491 84.9005L119.367 82.0069L116.491 79.1133L113.614 82.0069Z" fill="white"/>
<path opacity="0.58" d="M129.871 63.9819L131.846 65.9687L133.822 63.9819L131.846 61.9951L129.871 63.9819Z" fill="white"/>
<path opacity="0.24" d="M87.8604 105.741L89.5519 107.442L91.2433 105.741L89.5519 104.039L87.8604 105.741Z" fill="white"/>
<path opacity="0.88" d="M73.1492 74.6157L74.8407 76.3172L76.5321 74.6157L74.8407 72.9141L73.1492 74.6157Z" fill="white"/>
<path opacity="0.24" d="M169.388 121.263L171.079 122.965L172.771 121.263L171.079 119.562L169.388 121.263Z" fill="white"/>
<path d="M-0.00140381 79.2841L4.11084 83.4207L8.22307 79.2841L4.11082 75.1475L-0.00140381 79.2841Z" fill="white"/>
<path opacity="0.68" d="M101.47 43.6596L104.61 46.818L107.75 43.6596L104.61 40.501L101.47 43.6596Z" fill="white"/>
<path opacity="0.68" d="M195.721 104.9L198.861 108.058L202.001 104.9L198.861 101.741L195.721 104.9Z" fill="white"/>
<path opacity="0.69" d="M122.252 6.65271L128.877 13.3162L135.501 6.65271L128.877 -0.0107422L122.252 6.65271Z" fill="white"/>
<path opacity="0.54" d="M19.4447 102.736L21.8654 105.171L24.2862 102.736L21.8654 100.301L19.4447 102.736Z" fill="white"/>
<path opacity="0.88" d="M148.047 99.6706L148.857 100.486L149.668 99.6706L148.857 98.8555L148.047 99.6706Z" fill="white"/>
<path opacity="0.88" d="M38.2848 129.181L39.095 129.996L39.9054 129.181L39.095 128.366L38.2848 129.181Z" fill="white"/>
<path d="M105.329 106.889C128.438 106.889 147.172 88.1348 147.172 65.0002C147.172 41.8656 128.438 23.1113 105.329 23.1113C82.2194 23.1113 63.4857 41.8656 63.4857 65.0002C63.4857 88.1348 82.2194 106.889 105.329 106.889Z" fill="url(#paint0_radial_1676_204)" fill-opacity="0.5"/>
</g>
<path fill-rule="evenodd" clip-rule="evenodd" d="M93.7331 16.8547C87.711 18.2806 83.093 24.9773 83.8469 31.1904C84.3247 35.125 85.4412 36.638 96.0445 47.721C98.7172 50.5142 100.771 52.9164 100.608 53.0589C100.446 53.2018 99.1305 53.7467 97.6855 54.2704C91.113 56.6517 86.5763 59.4326 82.7633 63.4182C76.8772 69.5704 73.9432 78.0868 74.8859 86.2853C76.3265 98.8156 83.546 108.642 94.0932 112.429C96.6159 113.335 97.1715 113.404 101.889 113.404C106.616 113.404 107.16 113.336 109.705 112.422C118.017 109.438 124.354 102.487 127.665 92.7226C128.606 89.9481 128.651 89.5157 128.67 83.1509C128.691 75.9017 128.518 74.8581 126.405 69.513C124.564 64.854 122.575 62.381 110.955 50.2971C96.2838 35.0399 93.2605 31.7401 92.9897 30.6862C92.6355 29.3102 93.3736 27.2376 94.5662 26.2586C95.6259 25.3882 95.7009 25.379 101.654 25.3804C109.935 25.3821 110.589 25.7902 110.969 31.189L111.173 34.0961H115.552H119.931L120.039 32.045C120.184 29.2856 119.563 25.9277 118.513 23.8034C117.413 21.576 114.376 18.7674 111.787 17.5836C109.816 16.6821 109.611 16.6606 102.415 16.6014C98.3686 16.5683 94.4618 16.6825 93.7331 16.8547ZM111.929 63.8035C115.832 67.829 117.313 70.0251 118.833 74.0356C119.842 76.6986 119.891 77.0701 119.888 82.1254C119.885 86.7327 119.782 87.7094 119.098 89.6114C117.704 93.4917 116.237 95.8874 113.679 98.4618C110.896 101.263 108.212 102.756 104.9 103.347C97.5677 104.655 89.7366 99.0679 86.5752 90.2732C85.2636 86.6244 85.025 80.4459 86.0676 77.1207C87.725 71.8348 91.7856 67.2458 97.0482 64.7117C99.5383 63.5126 107.551 60.3351 108.251 60.2691C108.378 60.2572 110.033 61.8478 111.929 63.8035Z" fill="white"/>
<path d="M32.9602 204.182H35.6023V218.628C35.6023 220.119 35.2507 221.451 34.5476 222.623C33.8516 223.788 32.8679 224.707 31.5966 225.382C30.3253 226.05 28.8338 226.384 27.1222 226.384C25.4105 226.384 23.919 226.05 22.6477 225.382C21.3764 224.707 20.3892 223.788 19.6861 222.623C18.9901 221.451 18.642 220.119 18.642 218.628V204.182H21.2841V218.415C21.2841 219.48 21.5185 220.428 21.9872 221.259C22.456 222.083 23.1236 222.733 23.9901 223.209C24.8636 223.678 25.9077 223.912 27.1222 223.912C28.3366 223.912 29.3807 223.678 30.2543 223.209C31.1278 222.733 31.7955 222.083 32.2571 221.259C32.7259 220.428 32.9602 219.48 32.9602 218.415V204.182ZM47.6539 209.636V211.767H39.1738V209.636H47.6539ZM41.6454 205.716H44.1596V221.312C44.1596 222.023 44.2626 222.555 44.4686 222.911C44.6816 223.259 44.9515 223.493 45.2782 223.614C45.612 223.727 45.9636 223.784 46.3329 223.784C46.6099 223.784 46.8372 223.77 47.0147 223.741C47.1923 223.706 47.3343 223.678 47.4409 223.656L47.9522 225.915C47.7818 225.979 47.5439 226.043 47.2385 226.107C46.9331 226.178 46.546 226.213 46.0772 226.213C45.367 226.213 44.671 226.06 43.9892 225.755C43.3145 225.45 42.7534 224.984 42.3059 224.359C41.8656 223.734 41.6454 222.946 41.6454 221.994V205.716ZM51.4359 226V209.636H53.9501V226H51.4359ZM52.7143 206.909C52.2243 206.909 51.8017 206.742 51.4466 206.408C51.0985 206.075 50.9245 205.673 50.9245 205.205C50.9245 204.736 51.0985 204.335 51.4466 204.001C51.8017 203.667 52.2243 203.5 52.7143 203.5C53.2044 203.5 53.6234 203.667 53.9714 204.001C54.3265 204.335 54.5041 204.736 54.5041 205.205C54.5041 205.673 54.3265 206.075 53.9714 206.408C53.6234 206.742 53.2044 206.909 52.7143 206.909ZM61.0692 204.182V226H58.555V204.182H61.0692ZM65.6742 226V209.636H68.1884V226H65.6742ZM66.9526 206.909C66.4625 206.909 66.04 206.742 65.6848 206.408C65.3368 206.075 65.1628 205.673 65.1628 205.205C65.1628 204.736 65.3368 204.335 65.6848 204.001C66.04 203.667 66.4625 203.5 66.9526 203.5C67.4426 203.5 67.8617 203.667 68.2097 204.001C68.5648 204.335 68.7424 204.736 68.7424 205.205C68.7424 205.673 68.5648 206.075 68.2097 206.408C67.8617 206.742 67.4426 206.909 66.9526 206.909ZM79.9098 209.636V211.767H71.4297V209.636H79.9098ZM73.9013 205.716H76.4155V221.312C76.4155 222.023 76.5185 222.555 76.7244 222.911C76.9375 223.259 77.2074 223.493 77.5341 223.614C77.8679 223.727 78.2195 223.784 78.5888 223.784C78.8658 223.784 79.093 223.77 79.2706 223.741C79.4482 223.706 79.5902 223.678 79.6967 223.656L80.2081 225.915C80.0376 225.979 79.7997 226.043 79.4943 226.107C79.1889 226.178 78.8018 226.213 78.3331 226.213C77.6229 226.213 76.9268 226.06 76.245 225.755C75.5703 225.45 75.0092 224.984 74.5618 224.359C74.1214 223.734 73.9013 222.946 73.9013 221.994V205.716ZM85.3111 232.136C84.8849 232.136 84.505 232.101 84.1712 232.03C83.8374 231.966 83.6065 231.902 83.4787 231.838L84.1179 229.622C84.7287 229.778 85.2685 229.835 85.7372 229.793C86.206 229.75 86.6214 229.54 86.9837 229.164C87.353 228.795 87.6903 228.195 87.9957 227.364L88.4645 226.085L82.4134 209.636H85.1406L89.6577 222.676H89.8281L94.3452 209.636H97.0724L90.1264 228.386C89.8139 229.232 89.4268 229.931 88.9652 230.485C88.5036 231.046 87.9673 231.462 87.3565 231.732C86.7528 232.001 86.071 232.136 85.3111 232.136ZM115.945 209.636V211.767H107.465V209.636H115.945ZM109.936 205.716H112.451V221.312C112.451 222.023 112.554 222.555 112.76 222.911C112.973 223.259 113.243 223.493 113.569 223.614C113.903 223.727 114.255 223.784 114.624 223.784C114.901 223.784 115.128 223.77 115.306 223.741C115.483 223.706 115.625 223.678 115.732 223.656L116.243 225.915C116.073 225.979 115.835 226.043 115.529 226.107C115.224 226.178 114.837 226.213 114.368 226.213C113.658 226.213 112.962 226.06 112.28 225.755C111.605 225.45 111.044 224.984 110.597 224.359C110.157 223.734 109.936 222.946 109.936 221.994V205.716ZM126.199 226.341C124.722 226.341 123.425 225.989 122.31 225.286C121.202 224.583 120.336 223.599 119.711 222.335C119.093 221.071 118.784 219.594 118.784 217.903C118.784 216.199 119.093 214.711 119.711 213.44C120.336 212.168 121.202 211.181 122.31 210.478C123.425 209.775 124.722 209.423 126.199 209.423C127.676 209.423 128.969 209.775 130.077 210.478C131.192 211.181 132.058 212.168 132.676 213.44C133.301 214.711 133.614 216.199 133.614 217.903C133.614 219.594 133.301 221.071 132.676 222.335C132.058 223.599 131.192 224.583 130.077 225.286C128.969 225.989 127.676 226.341 126.199 226.341ZM126.199 224.082C127.321 224.082 128.244 223.795 128.969 223.219C129.693 222.644 130.229 221.888 130.577 220.95C130.925 220.013 131.099 218.997 131.099 217.903C131.099 216.81 130.925 215.79 130.577 214.846C130.229 213.901 129.693 213.138 128.969 212.555C128.244 211.973 127.321 211.682 126.199 211.682C125.077 211.682 124.153 211.973 123.429 212.555C122.705 213.138 122.168 213.901 121.82 214.846C121.472 215.79 121.298 216.81 121.298 217.903C121.298 218.997 121.472 220.013 121.82 220.95C122.168 221.888 122.705 222.644 123.429 223.219C124.153 223.795 125.077 224.082 126.199 224.082ZM139.795 220.034L139.753 216.923H140.264L147.423 209.636H150.534L142.906 217.349H142.693L139.795 220.034ZM137.452 226V204.182H139.966V226H137.452ZM147.849 226L141.457 217.903L143.247 216.156L151.045 226H147.849ZM159.957 226.341C158.38 226.341 157.02 225.993 155.877 225.297C154.74 224.594 153.863 223.614 153.245 222.357C152.634 221.092 152.329 219.622 152.329 217.946C152.329 216.27 152.634 214.793 153.245 213.514C153.863 212.229 154.722 211.227 155.823 210.51C156.931 209.786 158.224 209.423 159.701 209.423C160.553 209.423 161.395 209.565 162.226 209.849C163.057 210.134 163.813 210.595 164.495 211.234C165.177 211.866 165.72 212.705 166.125 213.749C166.53 214.793 166.732 216.078 166.732 217.605V218.67H154.119V216.497H164.176C164.176 215.574 163.991 214.75 163.622 214.026C163.259 213.301 162.741 212.729 162.066 212.31C161.399 211.891 160.61 211.682 159.701 211.682C158.7 211.682 157.833 211.93 157.102 212.428C156.377 212.918 155.82 213.557 155.429 214.345C155.039 215.134 154.843 215.979 154.843 216.881V218.33C154.843 219.565 155.056 220.613 155.482 221.472C155.916 222.325 156.516 222.974 157.283 223.422C158.05 223.862 158.941 224.082 159.957 224.082C160.617 224.082 161.214 223.99 161.747 223.805C162.286 223.614 162.752 223.33 163.142 222.953C163.533 222.57 163.835 222.094 164.048 221.526L166.477 222.207C166.221 223.031 165.791 223.756 165.188 224.381C164.584 224.999 163.838 225.482 162.95 225.83C162.063 226.17 161.065 226.341 159.957 226.341ZM173.071 216.156V226H170.557V209.636H172.986V212.193H173.199C173.583 211.362 174.165 210.695 174.946 210.19C175.727 209.679 176.736 209.423 177.972 209.423C179.08 209.423 180.049 209.651 180.88 210.105C181.711 210.553 182.357 211.234 182.819 212.151C183.281 213.06 183.512 214.21 183.512 215.602V226H180.997V215.773C180.997 214.487 180.664 213.486 179.996 212.768C179.328 212.044 178.412 211.682 177.247 211.682C176.445 211.682 175.727 211.856 175.095 212.204C174.47 212.552 173.977 213.06 173.615 213.727C173.252 214.395 173.071 215.205 173.071 216.156Z" fill="#C4C4C4"/>
<path d="M28.5682 185.909V156.818H30.4318V185.909H28.5682ZM33.9432 166.125C33.8371 165.133 33.3902 164.36 32.6023 163.807C31.822 163.254 30.8068 162.977 29.5568 162.977C28.678 162.977 27.9242 163.11 27.2955 163.375C26.6667 163.64 26.1856 164 25.8523 164.455C25.5189 164.909 25.3485 165.428 25.3409 166.011C25.3409 166.496 25.4508 166.917 25.6705 167.273C25.8977 167.629 26.2045 167.932 26.5909 168.182C26.9773 168.424 27.4053 168.629 27.875 168.795C28.3447 168.962 28.8182 169.102 29.2955 169.216L31.4773 169.761C32.3561 169.966 33.2008 170.242 34.0114 170.591C34.8295 170.939 35.5606 171.379 36.2045 171.909C36.8561 172.439 37.3712 173.08 37.75 173.83C38.1288 174.58 38.3182 175.458 38.3182 176.466C38.3182 177.83 37.9697 179.03 37.2727 180.068C36.5758 181.098 35.5682 181.905 34.25 182.489C32.9394 183.064 31.3523 183.352 29.4886 183.352C27.678 183.352 26.1061 183.072 24.7727 182.511C23.447 181.951 22.4091 181.133 21.6591 180.057C20.9167 178.981 20.5152 177.67 20.4545 176.125H24.6023C24.6629 176.936 24.9129 177.61 25.3523 178.148C25.7917 178.686 26.3636 179.087 27.0682 179.352C27.7803 179.617 28.5758 179.75 29.4545 179.75C30.3712 179.75 31.1742 179.614 31.8636 179.341C32.5606 179.061 33.1061 178.674 33.5 178.182C33.8939 177.682 34.0947 177.098 34.1023 176.432C34.0947 175.826 33.9167 175.326 33.5682 174.932C33.2197 174.53 32.7311 174.197 32.1023 173.932C31.4811 173.659 30.7538 173.417 29.9205 173.205L27.2727 172.523C25.3561 172.03 23.8409 171.284 22.7273 170.284C21.6212 169.277 21.0682 167.939 21.0682 166.273C21.0682 164.902 21.4394 163.701 22.1818 162.67C22.9318 161.64 23.9508 160.841 25.2386 160.273C26.5265 159.697 27.9848 159.409 29.6136 159.409C31.2652 159.409 32.7121 159.697 33.9545 160.273C35.2045 160.841 36.1856 161.633 36.8977 162.648C37.6098 163.655 37.9773 164.814 38 166.125H33.9432ZM50.0142 183V159.727H58.9233C60.6051 159.727 62.0028 159.992 63.1165 160.523C64.2377 161.045 65.0748 161.761 65.6278 162.67C66.1884 163.58 66.4688 164.61 66.4688 165.761C66.4688 166.708 66.2869 167.519 65.9233 168.193C65.5597 168.86 65.071 169.402 64.4574 169.818C63.8438 170.235 63.1581 170.534 62.4006 170.716V170.943C63.2263 170.989 64.018 171.242 64.7756 171.705C65.5407 172.159 66.1657 172.803 66.6506 173.636C67.1354 174.47 67.3778 175.477 67.3778 176.659C67.3778 177.864 67.0862 178.947 66.5028 179.909C65.9195 180.864 65.0407 181.617 63.8665 182.17C62.6922 182.723 61.215 183 59.4347 183H50.0142ZM54.2301 179.477H58.7642C60.2945 179.477 61.3968 179.186 62.071 178.602C62.7528 178.011 63.0938 177.254 63.0938 176.33C63.0938 175.64 62.9233 175.019 62.5824 174.466C62.2415 173.905 61.7566 173.466 61.1278 173.148C60.4991 172.822 59.7491 172.659 58.8778 172.659H54.2301V179.477ZM54.2301 169.625H58.4006C59.1278 169.625 59.7831 169.492 60.3665 169.227C60.9498 168.955 61.4081 168.572 61.7415 168.08C62.0824 167.58 62.2528 166.989 62.2528 166.307C62.2528 165.405 61.9347 164.663 61.2983 164.08C60.6695 163.496 59.7339 163.205 58.4915 163.205H54.2301V169.625ZM83.6932 166.125C83.5871 165.133 83.1402 164.36 82.3523 163.807C81.572 163.254 80.5568 162.977 79.3068 162.977C78.428 162.977 77.6742 163.11 77.0455 163.375C76.4167 163.64 75.9356 164 75.6023 164.455C75.2689 164.909 75.0985 165.428 75.0909 166.011C75.0909 166.496 75.2008 166.917 75.4205 167.273C75.6477 167.629 75.9545 167.932 76.3409 168.182C76.7273 168.424 77.1553 168.629 77.625 168.795C78.0947 168.962 78.5682 169.102 79.0455 169.216L81.2273 169.761C82.1061 169.966 82.9508 170.242 83.7614 170.591C84.5795 170.939 85.3106 171.379 85.9545 171.909C86.6061 172.439 87.1212 173.08 87.5 173.83C87.8788 174.58 88.0682 175.458 88.0682 176.466C88.0682 177.83 87.7197 179.03 87.0227 180.068C86.3258 181.098 85.3182 181.905 84 182.489C82.6894 183.064 81.1023 183.352 79.2386 183.352C77.428 183.352 75.8561 183.072 74.5227 182.511C73.197 181.951 72.1591 181.133 71.4091 180.057C70.6667 178.981 70.2652 177.67 70.2045 176.125H74.3523C74.4129 176.936 74.6629 177.61 75.1023 178.148C75.5417 178.686 76.1136 179.087 76.8182 179.352C77.5303 179.617 78.3258 179.75 79.2045 179.75C80.1212 179.75 80.9242 179.614 81.6136 179.341C82.3106 179.061 82.8561 178.674 83.25 178.182C83.6439 177.682 83.8447 177.098 83.8523 176.432C83.8447 175.826 83.6667 175.326 83.3182 174.932C82.9697 174.53 82.4811 174.197 81.8523 173.932C81.2311 173.659 80.5038 173.417 79.6705 173.205L77.0227 172.523C75.1061 172.03 73.5909 171.284 72.4773 170.284C71.3712 169.277 70.8182 167.939 70.8182 166.273C70.8182 164.902 71.1894 163.701 71.9318 162.67C72.6818 161.64 73.7008 160.841 74.9886 160.273C76.2765 159.697 77.7348 159.409 79.3636 159.409C81.0152 159.409 82.4621 159.697 83.7045 160.273C84.9545 160.841 85.9356 161.633 86.6477 162.648C87.3598 163.655 87.7273 164.814 87.75 166.125H83.6932ZM111.747 167.58H107.497C107.376 166.883 107.152 166.265 106.827 165.727C106.501 165.182 106.096 164.72 105.611 164.341C105.126 163.962 104.573 163.678 103.952 163.489C103.338 163.292 102.675 163.193 101.963 163.193C100.698 163.193 99.5767 163.511 98.5994 164.148C97.6222 164.777 96.857 165.701 96.304 166.92C95.7509 168.133 95.4744 169.614 95.4744 171.364C95.4744 173.144 95.7509 174.644 96.304 175.864C96.8646 177.076 97.6297 177.992 98.5994 178.614C99.5767 179.227 100.694 179.534 101.952 179.534C102.649 179.534 103.3 179.443 103.906 179.261C104.52 179.072 105.069 178.795 105.554 178.432C106.046 178.068 106.459 177.621 106.793 177.091C107.134 176.561 107.368 175.955 107.497 175.273L111.747 175.295C111.588 176.402 111.243 177.439 110.713 178.409C110.19 179.379 109.505 180.235 108.656 180.977C107.808 181.712 106.815 182.288 105.679 182.705C104.543 183.114 103.281 183.318 101.895 183.318C99.8494 183.318 98.0237 182.845 96.4176 181.898C94.8116 180.951 93.5464 179.583 92.6222 177.795C91.6979 176.008 91.2358 173.864 91.2358 171.364C91.2358 168.856 91.7017 166.712 92.6335 164.932C93.5653 163.144 94.8343 161.777 96.4403 160.83C98.0464 159.883 99.8646 159.409 101.895 159.409C103.19 159.409 104.395 159.591 105.509 159.955C106.622 160.318 107.615 160.852 108.486 161.557C109.357 162.254 110.073 163.11 110.634 164.125C111.202 165.133 111.573 166.284 111.747 167.58ZM123.494 183H115.608V159.727H123.653C125.964 159.727 127.949 160.193 129.608 161.125C131.275 162.049 132.555 163.379 133.449 165.114C134.343 166.848 134.79 168.924 134.79 171.341C134.79 173.765 134.339 175.848 133.438 177.591C132.544 179.333 131.252 180.67 129.562 181.602C127.881 182.534 125.858 183 123.494 183ZM119.824 179.352H123.29C124.911 179.352 126.263 179.057 127.347 178.466C128.43 177.867 129.244 176.977 129.79 175.795C130.335 174.606 130.608 173.121 130.608 171.341C130.608 169.561 130.335 168.083 129.79 166.909C129.244 165.727 128.438 164.845 127.369 164.261C126.309 163.67 124.991 163.375 123.415 163.375H119.824V179.352ZM140.534 183H136.034L144.227 159.727H149.432L157.636 183H153.136L146.92 164.5H146.739L140.534 183ZM140.682 173.875H152.955V177.261H140.682V173.875ZM180.403 171.364C180.403 173.871 179.934 176.019 178.994 177.807C178.063 179.587 176.79 180.951 175.176 181.898C173.57 182.845 171.748 183.318 169.71 183.318C167.672 183.318 165.847 182.845 164.233 181.898C162.627 180.943 161.354 179.576 160.415 177.795C159.483 176.008 159.017 173.864 159.017 171.364C159.017 168.856 159.483 166.712 160.415 164.932C161.354 163.144 162.627 161.777 164.233 160.83C165.847 159.883 167.672 159.409 169.71 159.409C171.748 159.409 173.57 159.883 175.176 160.83C176.79 161.777 178.063 163.144 178.994 164.932C179.934 166.712 180.403 168.856 180.403 171.364ZM176.165 171.364C176.165 169.598 175.888 168.11 175.335 166.898C174.79 165.678 174.032 164.758 173.062 164.136C172.093 163.508 170.975 163.193 169.71 163.193C168.445 163.193 167.328 163.508 166.358 164.136C165.388 164.758 164.627 165.678 164.074 166.898C163.528 168.11 163.256 169.598 163.256 171.364C163.256 173.129 163.528 174.621 164.074 175.841C164.627 177.053 165.388 177.973 166.358 178.602C167.328 179.223 168.445 179.534 169.71 179.534C170.975 179.534 172.093 179.223 173.062 178.602C174.032 177.973 174.79 177.053 175.335 175.841C175.888 174.621 176.165 173.129 176.165 171.364Z" fill="white"/>
<defs>
<radialGradient id="paint0_radial_1676_204" cx="0" cy="0" r="1" gradientUnits="userSpaceOnUse" gradientTransform="translate(105.329 65.0002) rotate(90) scale(41.8889 41.8429)">
<stop stop-color="white" stop-opacity="0.67"/>
<stop offset="1" stop-color="white" stop-opacity="0"/>
</radialGradient>
</defs>
</svg>
