<svg width="677" height="428" viewBox="0 0 677 428" fill="none" xmlns="http://www.w3.org/2000/svg">
<mask id="path-1-inside-1_151_86" fill="white">
<path fill-rule="evenodd" clip-rule="evenodd" d="M519 0.475426C519 0.212855 518.787 0 518.525 0H50C22.3858 0 0 22.3858 0 50V378C0 405.614 22.3858 428 50 428H517.786C518.456 428 519 427.456 519 426.786C519 426.508 519.095 426.239 519.27 426.023L665.607 244.925C680.42 226.594 680.42 200.406 665.607 182.075L519.106 0.774235C519.037 0.689646 519 0.584179 519 0.475426Z"/>
</mask>
<path fill-rule="evenodd" clip-rule="evenodd" d="M519 0.475426C519 0.212855 518.787 0 518.525 0H50C22.3858 0 0 22.3858 0 50V378C0 405.614 22.3858 428 50 428H517.786C518.456 428 519 427.456 519 426.786C519 426.508 519.095 426.239 519.27 426.023L665.607 244.925C680.42 226.594 680.42 200.406 665.607 182.075L519.106 0.774235C519.037 0.689646 519 0.584179 519 0.475426Z" fill="#782EE9"/>
<path d="M519.106 0.774235L521.439 -1.11129L519.106 0.774235ZM665.607 244.925L663.273 243.04L665.607 244.925ZM519.27 426.023L521.603 427.908L519.27 426.023ZM50 3H518.525V-3H50V3ZM3 378V50H-3V378H3ZM517.786 425H50V431H517.786V425ZM663.273 243.04L516.936 424.137L521.603 427.908L667.94 246.811L663.273 243.04ZM516.772 2.65976L663.273 183.96L667.94 180.189L521.439 -1.11129L516.772 2.65976ZM521.439 -1.11129C521.802 -0.662112 522 -0.102071 522 0.475426H516C516 1.27043 516.273 2.0414 516.772 2.65976L521.439 -1.11129ZM667.94 246.811C683.642 227.379 683.642 199.621 667.94 180.189L663.273 183.96C677.197 201.192 677.197 225.808 663.273 243.04L667.94 246.811ZM522 426.786C522 427.194 521.86 427.59 521.603 427.908L516.936 424.137C516.331 424.887 516 425.822 516 426.786H522ZM517.786 431C520.113 431 522 429.113 522 426.786H516C516 425.8 516.799 425 517.786 425V431ZM-3 378C-3 407.271 20.7289 431 50 431V425C24.0426 425 3 403.957 3 378H-3ZM518.525 3C517.13 3 516 1.86955 516 0.475426H522C522 -1.44384 520.444 -3 518.525 -3V3ZM50 -3C20.7289 -3 -3 20.7289 -3 50H3C3 24.0426 24.0426 3 50 3V-3Z" fill="url(#paint0_linear_151_86)" mask="url(#path-1-inside-1_151_86)"/>
<defs>
<linearGradient id="paint0_linear_151_86" x1="-110.521" y1="-88.9989" x2="748.227" y2="257.055" gradientUnits="userSpaceOnUse">
<stop stop-color="white"/>
<stop offset="1" stop-color="white" stop-opacity="0"/>
</linearGradient>
</defs>
</svg>
