<svg width="1235" height="753" viewBox="0 0 1235 753" fill="none" xmlns="http://www.w3.org/2000/svg">
<path d="M672.513 737.633L662.135 751.603H682.133L691.878 738.485L672.513 737.633Z" fill="#D50ACC"/>
<path d="M732.334 739.029L721.621 753H742.264L752.324 739.881L732.334 739.029Z" fill="#D50ACC"/>
<path d="M793.405 739.029L783.026 753H803.024L812.77 739.881L793.405 739.029Z" fill="#D50ACC"/>
<path d="M26.4582 5.37745L1.07025 35.5351V688.491L41.6184 736.657H1197.5L1228.21 700.168V77.4111L1199.94 43.8276H667.105L634.089 4.6123L26.4582 5.37745Z" fill="#1A1A1A" fill-opacity="0.3" stroke="#007FF5" stroke-width="2" stroke-miterlimit="10"/>
<path d="M26.9754 39.4617V54.4855H537.91L533.987 49.0039H140.323L133.129 38.9541L26.9754 39.4617Z" fill="#007FF5"/>
<path d="M537.909 48.4398L541.524 54.486H550.709L546.988 48.2734L537.909 48.4398Z" fill="#D50ACC"/>
<path d="M550.711 48.4398L554.326 54.486H563.511L559.79 48.2734L550.711 48.4398Z" fill="#007FF5"/>
<path d="M563.509 48.4398L567.426 54.486H577.376L573.345 48.2734L563.509 48.4398Z" fill="#D50ACC"/>
<path d="M577.374 48.4398L580.989 54.486H590.174L586.453 48.2734L577.374 48.4398Z" fill="#007FF5"/>
<path opacity="0.6" d="M664.054 1.10557L683.698 30.7347H1157.21L1136.84 0L664.054 1.10557Z" fill="#D50ACC"/>
<path opacity="0.6" d="M1152.42 0L1171.37 27.7684H1206.2L1234.93 69.8516V0.861037L1152.42 0Z" fill="#D50ACC"/>
<path d="M381.974 737.644L392.281 751.686H652.476L663.094 737.213L381.974 737.644Z" fill="#007FF5"/>
<path d="M702.257 737.213L691.878 751.686H711.876L721.621 738.095L702.257 737.213Z" fill="#007FF5"/>
<path d="M762.702 738.528L752.324 753.001H772.321L782.067 739.411L762.702 738.528Z" fill="#007FF5"/>
<path d="M823.148 737.213L812.769 751.686H832.767L842.513 738.095L823.148 737.213Z" fill="#007FF5"/>
<rect x="14.9079" y="65.7285" width="1199.27" height="656.137" rx="50" fill="black"/>
</svg>
