<svg width="157" height="43" viewBox="0 0 157 43" fill="none" xmlns="http://www.w3.org/2000/svg">
<g clip-path="url(#clip0_106_688)">
<path fill-rule="evenodd" clip-rule="evenodd" d="M61.3 12.5V25.5H64.5H67.7V20.5C67.7 17.2 67.7 15.4 67.7 15.2C67.8 14.7 67.9 14.2 68.2 13.8C68.6 13.1 69.3 12.8 70.1 12.9C71.2 13 71.9 13.6 72.1 14.9C72.1 15.1 72.1 17.1 72.1 20.3V25.4H75.3H78.5V19.4C78.5 14.3 78.5 13.3 78.4 12.8C78.2 11 77.6 9.6 76.5 8.6C75.6 7.7 74.5 7.2 73.2 7C72.7 6.9 71.3 7 70.9 7.1C69.7 7.4 68.8 7.8 68 8.7L67.5 9.1V4.3V-0.5H64.3H61.1V12.5H61.3ZM129.3 -0.299999C129.1 0.100001 122.6 15.8 122.6 15.8C122.6 15.8 124.3 15.8 126.4 15.8H130.2L133.6 7.7C135.5 3.2 137 -0.5 137 -0.5C137 -0.5 135.3 -0.5 133.2 -0.5H129.4L129.3 -0.299999ZM47.3 7.1C45.9 7.3 44.8 7.7 43.7 8.4C41.5 9.8 40.1 12.2 39.7 15C39.5 16.3 39.6 17.9 39.9 19.1C40.7 22.2 42.8 24.6 45.5 25.5C46.5 25.8 46.9 25.9 48.1 25.9C49 25.9 49.3 25.9 49.6 25.8C50.9 25.5 51.8 25 52.6 24.2L53 23.8V24.6V25.4H56.1H59.2V16.4V7.4H56.1H53V8.2V9L52.7 8.7C52 7.9 51 7.4 49.7 7.1C49.3 7 49.1 7 48.3 7C47.8 7.1 47.4 7.1 47.3 7.1ZM88.1 7.1C86.4 7.3 84.6 8.1 83.3 9.1C80.8 11.2 79.5 14.5 80 17.9C80.5 21.7 83.2 24.6 87 25.6C87.8 25.8 88.6 25.9 89.6 25.9C91.4 25.9 92.7 25.6 94.1 24.9C96.9 23.5 98.7 21 99.1 17.9C99.2 17.1 99.2 15.8 99.1 15.1C98.9 13.6 98.3 12.1 97.4 10.9C97 10.4 96.2 9.5 95.7 9.1C94.3 8 92.7 7.3 90.9 7.1C90.2 7 88.8 7 88.1 7.1ZM108.5 7.1C106.8 7.3 105.1 8 103.8 9.1C103.3 9.5 102.4 10.4 102.1 10.9C101.2 12.1 100.7 13.6 100.4 15.1C100.3 15.8 100.3 17.2 100.4 17.9C101 21.9 103.9 25 107.9 25.8C108.7 26 109.1 26 110 26C111.7 26 113.2 25.7 114.6 24.9C118.3 23 120.3 18.8 119.4 14.5C118.6 10.5 115.4 7.6 111.3 7.1C110.6 7 109.2 7 108.5 7.1ZM19 7.5C19 7.5 20.7 11.6 22.8 16.6C24.9 21.6 26.6 25.7 26.6 25.7C26.6 25.7 26 27.2 25.2 29C24.4 30.8 23.8 32.2 23.8 32.3C23.8 32.4 25.3 32.3 27.2 32.3H30.6L35.7 20C38.5 13.2 40.8 7.7 40.8 7.6C40.8 7.6 40.1 7.5 37.4 7.6H34L31.9 12.8C31 15.6 30.1 18 30.1 18C30.1 18 29.2 15.6 28 12.8L26 7.6H22.5C20.6 7.5 19 7.5 19 7.5ZM50.4 12.9C51.7 13.2 52.7 14.2 53.1 15.5C53.2 16 53.2 16.9 53.1 17.4C52.8 18.7 51.8 19.7 50.5 20C50 20.1 49.1 20.1 48.6 20C47.5 19.7 46.5 18.9 46.1 17.9C45.6 16.8 45.8 15.4 46.4 14.4C47.3 13.1 48.8 12.6 50.4 12.9ZM90.3 13C91.7 13.2 92.8 14.3 93.1 15.7C93.2 16.2 93.2 17 93.1 17.5C92.8 18.8 91.8 19.7 90.6 20.1C90.2 20.2 89.1 20.2 88.7 20.1C87.7 19.8 86.9 19.1 86.4 18.2C86.1 17.6 86.1 17.3 86.1 16.6C86.1 16 86.2 15.7 86.4 15.2C86.7 14.6 87.1 14 87.7 13.6C88.3 13 89.3 12.8 90.3 13ZM110.6 13C111.8 13.2 112.8 14 113.2 15.1C113.4 15.6 113.5 15.9 113.5 16.5C113.5 17.2 113.4 17.5 113.2 18.1C112.8 19 111.9 19.7 110.9 20C110.5 20.1 109.4 20.1 109 20C107.8 19.7 106.8 18.7 106.5 17.4C106.4 16.9 106.4 16 106.5 15.5C106.9 13.9 108.3 12.8 109.9 12.8C110.1 12.9 110.4 12.9 110.6 13ZM124.2 17.4C122.3 17.6 120.9 19 120.5 20.8C120.4 21.3 120.4 22.2 120.5 22.7C120.9 24.3 122.1 25.4 123.7 25.8C123.9 25.8 124.3 25.9 124.6 25.9C125.8 25.9 126.8 25.5 127.6 24.7C128.5 23.8 128.8 22.9 128.8 21.7C128.8 20.2 128.1 18.9 126.9 18.2C126.1 17.5 125 17.3 124.2 17.4ZM71.5 27.2C70.2 27.6 69.6 29.1 70.3 30.2C70.5 30.5 70.9 30.9 71.2 31C71.5 31.1 71.5 31.1 72.1 31.1C72.6 31.1 72.7 31.1 73 31C73.4 30.8 73.8 30.4 74 30C74.5 29 74 27.8 73 27.3C72.7 27.1 72.6 27.1 72.2 27.1C71.8 27.1 71.7 27.1 71.5 27.2ZM66.1 27.3C64.4 27.6 63.3 28.7 62.8 30.5C62.7 30.8 62.7 31.1 62.7 31.5V32.2H62H61.3V33.7V35.2H62H62.7V38.8V42.4H64.6H66.5V38.8V35.2H67.8H69.1V33.7V32.2H67.8H66.5V31.9C66.6 31.2 66.9 30.7 67.5 30.6C67.9 30.5 68.5 30.5 68.9 30.7C69.1 30.8 69.2 30.8 69.2 30.8C69.2 30.8 69.2 30.1 69.2 29.2V27.6L68.9 27.5C68.5 27.3 68 27.3 67.3 27.3C66.8 27.2 66.4 27.3 66.1 27.3ZM81.3 32C80.5 32.2 79.9 32.6 79.5 33.1L79.3 33.4V32.8V32.2H77.4H75.5V37.3V42.4H77.4H79.3V39.6C79.3 38 79.3 36.7 79.3 36.5C79.4 36.1 79.6 35.7 79.8 35.5C80.3 35.1 81.2 35.2 81.6 35.7C81.9 36.1 81.9 36.1 81.9 39.3V42.3H83.8H85.7V38.9C85.7 35.3 85.7 34.9 85.5 34.2C85.3 33.6 85.1 33.1 84.6 32.7C84.2 32.3 83.8 32 83.2 31.9C82.7 31.9 81.7 31.9 81.3 32ZM90.8 31.9C90.2 32 89.3 32.3 88.8 32.7C87.7 33.5 87 34.7 86.7 36.2C86.6 36.8 86.6 37.9 86.7 38.5C86.9 39.4 87.2 40.3 87.7 40.9C88.4 41.8 89.3 42.4 90.4 42.6C91 42.7 92 42.7 92.5 42.5C93.1 42.3 93.5 42.1 94 41.7L94.4 41.3V41.8V42.3H96.3H98.2V37.2V32.1H96.3H94.4V32.6V33.1L94.1 33C93.6 32.5 92.9 32.1 92.1 32C91.8 31.9 91.1 31.9 90.8 31.9ZM105.3 32C104.6 32.1 103.9 32.6 103.5 33.1L103.3 33.3V32.7V32.1H101.4H99.5V37.2V42.3H101.4H103.3V39.4C103.3 36.3 103.3 36.3 103.5 35.8C103.7 35.4 104.1 35.2 104.5 35.2C104.9 35.2 105.1 35.3 105.4 35.5C105.8 35.9 105.8 35.8 105.8 39.2V42.2H107.7H109.6V38.5C109.6 34.8 109.6 34.8 109.5 34.4C109.4 34.2 109.3 33.8 109.2 33.5C109 33.1 108.9 33 108.6 32.7C108.2 32.3 107.9 32.1 107.5 31.9C106.8 31.9 106 31.8 105.3 32ZM115.2 32C113.5 32.3 112.2 33.1 111.4 34.5C111.2 34.9 111 35.4 110.8 35.9C110.7 36.4 110.7 36.5 110.7 37.3C110.7 38.2 110.7 38.5 111 39.2C111.6 40.9 113 42.2 114.9 42.6C115.2 42.7 115.5 42.7 116.2 42.7C117.2 42.7 117.6 42.6 118.3 42.3L118.7 42.1V40.4V38.7L118.4 38.9C117.9 39.2 117.6 39.3 117 39.3C116.4 39.3 116.1 39.3 115.7 39.1C115.3 38.9 115 38.6 114.8 38.2C114.7 37.9 114.7 37.9 114.7 37.4C114.7 37 114.7 36.9 114.8 36.6C115.1 35.8 115.8 35.4 116.8 35.3C117.5 35.3 117.8 35.3 118.8 35.8C118.8 35.8 118.8 35 118.8 34.1V32.4L118.5 32.3C117.4 31.9 116.2 31.8 115.2 32ZM123.8 32C120.9 32.5 119.1 35 119.3 37.9C119.4 38.9 119.7 39.8 120.2 40.5C120.9 41.6 122 42.3 123.4 42.6C124 42.7 125.6 42.7 126.3 42.6C127.3 42.4 128.2 41.9 128.9 41.2C129.2 40.9 129.7 40.2 129.7 40.2C129.7 40.2 129 39.9 128.1 39.6L126.5 39L126.3 39.2C126 39.5 125.8 39.6 125.4 39.7C124.3 40 123.2 39.4 123 38.4V38.2H126.5H130V37.3C130 36.7 130 36.3 129.9 36.1C129.7 34.9 129.2 34.1 128.5 33.3C127.8 32.6 127 32.2 125.9 32C125.5 31.9 124.3 31.9 123.8 32ZM70.2 37.3V42.4H72.1H74V37.3V32.2H72.1H70.2V37.3ZM125.3 34.8C125.6 34.9 125.7 35 126 35.2C126.2 35.4 126.4 35.6 126.4 35.9V36.1H124.7C122.8 36.1 122.9 36.1 123.1 35.7C123.4 35 124.3 34.6 125.3 34.8ZM93 35.3C93.5 35.4 94.1 35.9 94.3 36.4C94.8 37.5 94.3 38.8 93.1 39.2C92.7 39.3 92.1 39.3 91.7 39.2C91.1 39 90.5 38.5 90.4 37.9C90.3 37.6 90.3 37.5 90.3 37.2C90.3 36.8 90.3 36.7 90.5 36.4C90.9 35.5 91.9 35.1 93 35.3Z" fill="white"/>
</g>
<defs>
<clipPath id="clip0_106_688">
<rect width="157" height="43" fill="white"/>
</clipPath>
</defs>
</svg>
