<svg width="158" height="43" viewBox="0 0 158 43" fill="none" xmlns="http://www.w3.org/2000/svg">
<g clip-path="url(#clip0_1721_1885)">
<path fill-rule="evenodd" clip-rule="evenodd" d="M61.8645 12.5V25.5H65.0645H68.2645V20.5C68.2645 17.2 68.2645 15.4 68.2645 15.2C68.3644 14.7 68.4645 14.2 68.7645 13.8C69.1645 13.1 69.8645 12.8 70.6645 12.9C71.7645 13 72.4645 13.6 72.6645 14.9C72.6645 15.1 72.6645 17.1 72.6645 20.3V25.4H75.8645H79.0645V19.4C79.0645 14.3 79.0645 13.3 78.9645 12.8C78.7645 11 78.1645 9.6 77.0645 8.6C76.1645 7.7 75.0644 7.2 73.7645 7C73.2645 6.9 71.8645 7 71.4645 7.1C70.2645 7.4 69.3645 7.8 68.5645 8.7L68.0645 9.1V4.3V-0.5H64.8645H61.6645V12.5H61.8645ZM129.864 -0.299999C129.664 0.100001 123.164 15.8 123.164 15.8C123.164 15.8 124.864 15.8 126.964 15.8H130.764L134.164 7.7C136.064 3.2 137.564 -0.5 137.564 -0.5C137.564 -0.5 135.864 -0.5 133.764 -0.5H129.964L129.864 -0.299999ZM47.8645 7.1C46.4645 7.3 45.3645 7.7 44.2645 8.4C42.0645 9.8 40.6645 12.2 40.2645 15C40.0645 16.3 40.1645 17.9 40.4645 19.1C41.2645 22.2 43.3645 24.6 46.0645 25.5C47.0645 25.8 47.4645 25.9 48.6645 25.9C49.5645 25.9 49.8645 25.9 50.1645 25.8C51.4645 25.5 52.3645 25 53.1645 24.2L53.5645 23.8V24.6V25.4H56.6645H59.7645V16.4V7.4H56.6645H53.5645V8.2V9L53.2645 8.7C52.5645 7.9 51.5645 7.4 50.2645 7.1C49.8645 7 49.6645 7 48.8645 7C48.3645 7.1 47.9645 7.1 47.8645 7.1ZM88.6645 7.1C86.9645 7.3 85.1645 8.1 83.8645 9.1C81.3645 11.2 80.0645 14.5 80.5645 17.9C81.0645 21.7 83.7645 24.6 87.5645 25.6C88.3645 25.8 89.1645 25.9 90.1645 25.9C91.9645 25.9 93.2645 25.6 94.6645 24.9C97.4645 23.5 99.2645 21 99.6645 17.9C99.7645 17.1 99.7645 15.8 99.6645 15.1C99.4645 13.6 98.8645 12.1 97.9645 10.9C97.5645 10.4 96.7645 9.5 96.2645 9.1C94.8644 8 93.2645 7.3 91.4645 7.1C90.7645 7 89.3644 7 88.6645 7.1ZM109.064 7.1C107.364 7.3 105.664 8 104.364 9.1C103.864 9.5 102.964 10.4 102.664 10.9C101.764 12.1 101.264 13.6 100.964 15.1C100.864 15.8 100.864 17.2 100.964 17.9C101.564 21.9 104.464 25 108.464 25.8C109.264 26 109.664 26 110.564 26C112.264 26 113.764 25.7 115.164 24.9C118.864 23 120.864 18.8 119.964 14.5C119.164 10.5 115.964 7.6 111.864 7.1C111.164 7 109.764 7 109.064 7.1ZM19.5645 7.5C19.5645 7.5 21.2645 11.6 23.3645 16.6C25.4645 21.6 27.1645 25.7 27.1645 25.7C27.1645 25.7 26.5645 27.2 25.7645 29C24.9645 30.8 24.3645 32.2 24.3645 32.3C24.3645 32.4 25.8645 32.3 27.7645 32.3H31.1645L36.2645 20C39.0645 13.2 41.3645 7.7 41.3645 7.6C41.3645 7.6 40.6645 7.5 37.9645 7.6H34.5645L32.4645 12.8C31.5645 15.6 30.6645 18 30.6645 18C30.6645 18 29.7645 15.6 28.5645 12.8L26.5645 7.6H23.0645C21.1645 7.5 19.5645 7.5 19.5645 7.5ZM50.9645 12.9C52.2645 13.2 53.2645 14.2 53.6645 15.5C53.7645 16 53.7645 16.9 53.6645 17.4C53.3645 18.7 52.3645 19.7 51.0645 20C50.5645 20.1 49.6645 20.1 49.1645 20C48.0645 19.7 47.0645 18.9 46.6645 17.9C46.1645 16.8 46.3645 15.4 46.9645 14.4C47.8645 13.1 49.3645 12.6 50.9645 12.9ZM90.8645 13C92.2645 13.2 93.3644 14.3 93.6645 15.7C93.7645 16.2 93.7645 17 93.6645 17.5C93.3644 18.8 92.3644 19.7 91.1645 20.1C90.7645 20.2 89.6645 20.2 89.2645 20.1C88.2645 19.8 87.4645 19.1 86.9645 18.2C86.6645 17.6 86.6645 17.3 86.6645 16.6C86.6645 16 86.7645 15.7 86.9645 15.2C87.2645 14.6 87.6645 14 88.2645 13.6C88.8644 13 89.8645 12.8 90.8645 13ZM111.164 13C112.364 13.2 113.364 14 113.764 15.1C113.964 15.6 114.064 15.9 114.064 16.5C114.064 17.2 113.964 17.5 113.764 18.1C113.364 19 112.464 19.7 111.464 20C111.064 20.1 109.964 20.1 109.564 20C108.364 19.7 107.364 18.7 107.064 17.4C106.964 16.9 106.964 16 107.064 15.5C107.464 13.9 108.864 12.8 110.464 12.8C110.664 12.9 110.964 12.9 111.164 13ZM124.764 17.4C122.864 17.6 121.464 19 121.064 20.8C120.964 21.3 120.964 22.2 121.064 22.7C121.464 24.3 122.664 25.4 124.264 25.8C124.464 25.8 124.864 25.9 125.164 25.9C126.364 25.9 127.364 25.5 128.164 24.7C129.064 23.8 129.364 22.9 129.364 21.7C129.364 20.2 128.664 18.9 127.464 18.2C126.664 17.5 125.564 17.3 124.764 17.4ZM72.0645 27.2C70.7645 27.6 70.1645 29.1 70.8645 30.2C71.0645 30.5 71.4645 30.9 71.7645 31C72.0644 31.1 72.0645 31.1 72.6645 31.1C73.1645 31.1 73.2645 31.1 73.5645 31C73.9645 30.8 74.3645 30.4 74.5645 30C75.0645 29 74.5645 27.8 73.5645 27.3C73.2645 27.1 73.1645 27.1 72.7645 27.1C72.3644 27.1 72.2645 27.1 72.0645 27.2ZM66.6645 27.3C64.9645 27.6 63.8645 28.7 63.3645 30.5C63.2645 30.8 63.2645 31.1 63.2645 31.5V32.2H62.5645H61.8645V33.7V35.2H62.5645H63.2645V38.8V42.4H65.1645H67.0645V38.8V35.2H68.3645H69.6645V33.7V32.2H68.3645H67.0645V31.9C67.1645 31.2 67.4645 30.7 68.0645 30.6C68.4645 30.5 69.0645 30.5 69.4645 30.7C69.6645 30.8 69.7645 30.8 69.7645 30.8C69.7645 30.8 69.7645 30.1 69.7645 29.2V27.6L69.4645 27.5C69.0645 27.3 68.5645 27.3 67.8645 27.3C67.3645 27.2 66.9645 27.3 66.6645 27.3ZM81.8645 32C81.0645 32.2 80.4645 32.6 80.0645 33.1L79.8645 33.4V32.8V32.2H77.9645H76.0645V37.3V42.4H77.9645H79.8645V39.6C79.8645 38 79.8645 36.7 79.8645 36.5C79.9645 36.1 80.1645 35.7 80.3645 35.5C80.8645 35.1 81.7645 35.2 82.1645 35.7C82.4645 36.1 82.4645 36.1 82.4645 39.3V42.3H84.3645H86.2645V38.9C86.2645 35.3 86.2645 34.9 86.0645 34.2C85.8645 33.6 85.6645 33.1 85.1645 32.7C84.7645 32.3 84.3644 32 83.7645 31.9C83.2645 31.9 82.2645 31.9 81.8645 32ZM91.3645 31.9C90.7645 32 89.8645 32.3 89.3645 32.7C88.2645 33.5 87.5645 34.7 87.2645 36.2C87.1645 36.8 87.1645 37.9 87.2645 38.5C87.4644 39.4 87.7645 40.3 88.2645 40.9C88.9644 41.8 89.8645 42.4 90.9645 42.6C91.5645 42.7 92.5645 42.7 93.0645 42.5C93.6645 42.3 94.0645 42.1 94.5645 41.7L94.9645 41.3V41.8V42.3H96.8645H98.7645V37.2V32.1H96.8645H94.9645V32.6V33.1L94.6645 33C94.1645 32.5 93.4645 32.1 92.6645 32C92.3644 31.9 91.6645 31.9 91.3645 31.9ZM105.864 32C105.164 32.1 104.464 32.6 104.064 33.1L103.864 33.3V32.7V32.1H101.964H100.064V37.2V42.3H101.964H103.864V39.4C103.864 36.3 103.864 36.3 104.064 35.8C104.264 35.4 104.664 35.2 105.064 35.2C105.464 35.2 105.664 35.3 105.964 35.5C106.364 35.9 106.364 35.8 106.364 39.2V42.2H108.264H110.164V38.5C110.164 34.8 110.164 34.8 110.064 34.4C109.964 34.2 109.864 33.8 109.764 33.5C109.564 33.1 109.464 33 109.164 32.7C108.764 32.3 108.464 32.1 108.064 31.9C107.364 31.9 106.564 31.8 105.864 32ZM115.764 32C114.064 32.3 112.764 33.1 111.964 34.5C111.764 34.9 111.564 35.4 111.364 35.9C111.264 36.4 111.264 36.5 111.264 37.3C111.264 38.2 111.264 38.5 111.564 39.2C112.164 40.9 113.564 42.2 115.464 42.6C115.764 42.7 116.064 42.7 116.764 42.7C117.764 42.7 118.164 42.6 118.864 42.3L119.264 42.1V40.4V38.7L118.964 38.9C118.464 39.2 118.164 39.3 117.564 39.3C116.964 39.3 116.664 39.3 116.264 39.1C115.864 38.9 115.564 38.6 115.364 38.2C115.264 37.9 115.264 37.9 115.264 37.4C115.264 37 115.264 36.9 115.364 36.6C115.664 35.8 116.364 35.4 117.364 35.3C118.064 35.3 118.364 35.3 119.364 35.8C119.364 35.8 119.364 35 119.364 34.1V32.4L119.064 32.3C117.964 31.9 116.764 31.8 115.764 32ZM124.364 32C121.464 32.5 119.664 35 119.864 37.9C119.964 38.9 120.264 39.8 120.764 40.5C121.464 41.6 122.564 42.3 123.964 42.6C124.564 42.7 126.164 42.7 126.864 42.6C127.864 42.4 128.764 41.9 129.464 41.2C129.764 40.9 130.264 40.2 130.264 40.2C130.264 40.2 129.564 39.9 128.664 39.6L127.064 39L126.864 39.2C126.564 39.5 126.364 39.6 125.964 39.7C124.864 40 123.764 39.4 123.564 38.4V38.2H127.064H130.564V37.3C130.564 36.7 130.564 36.3 130.464 36.1C130.264 34.9 129.764 34.1 129.064 33.3C128.364 32.6 127.564 32.2 126.464 32C126.064 31.9 124.864 31.9 124.364 32ZM70.7645 37.3V42.4H72.6645H74.5645V37.3V32.2H72.6645H70.7645V37.3ZM125.864 34.8C126.164 34.9 126.264 35 126.564 35.2C126.764 35.4 126.964 35.6 126.964 35.9V36.1H125.264C123.364 36.1 123.464 36.1 123.664 35.7C123.964 35 124.864 34.6 125.864 34.8ZM93.5645 35.3C94.0645 35.4 94.6645 35.9 94.8645 36.4C95.3645 37.5 94.8644 38.8 93.6645 39.2C93.2645 39.3 92.6645 39.3 92.2645 39.2C91.6645 39 91.0645 38.5 90.9645 37.9C90.8645 37.6 90.8645 37.5 90.8645 37.2C90.8645 36.8 90.8645 36.7 91.0645 36.4C91.4645 35.5 92.4645 35.1 93.5645 35.3Z" fill="#3D3D3D"/>
</g>
<defs>
<clipPath id="clip0_1721_1885">
<rect width="157" height="43" fill="white" transform="translate(0.564453)"/>
</clipPath>
</defs>
</svg>
